G04 #@! TF.FileFunction,Legend,Top*
%FSLAX46Y46*%
G04 Gerber Fmt 4.6, Leading zero omitted, Abs format (unit mm)*
G04 Created by KiCad (PCBNEW 4.0.2-stable) date 07.07.2016 20:55:51*
%MOMM*%
G01*
G04 APERTURE LIST*
%ADD10C,0.100000*%
%ADD11C,0.300000*%
%ADD12C,0.200000*%
%ADD13C,0.150000*%
G04 APERTURE END LIST*
D10*
D11*
X124501429Y-105660000D02*
X125215715Y-105660000D01*
X124358572Y-106088571D02*
X124858572Y-104588571D01*
X125358572Y-106088571D01*
X126715715Y-105945714D02*
X126644286Y-106017143D01*
X126430000Y-106088571D01*
X126287143Y-106088571D01*
X126072858Y-106017143D01*
X125930000Y-105874286D01*
X125858572Y-105731429D01*
X125787143Y-105445714D01*
X125787143Y-105231429D01*
X125858572Y-104945714D01*
X125930000Y-104802857D01*
X126072858Y-104660000D01*
X126287143Y-104588571D01*
X126430000Y-104588571D01*
X126644286Y-104660000D01*
X126715715Y-104731429D01*
X127144286Y-104588571D02*
X128001429Y-104588571D01*
X127572858Y-106088571D02*
X127572858Y-104588571D01*
X129358572Y-105945714D02*
X129287143Y-106017143D01*
X129072857Y-106088571D01*
X128930000Y-106088571D01*
X128715715Y-106017143D01*
X128572857Y-105874286D01*
X128501429Y-105731429D01*
X128430000Y-105445714D01*
X128430000Y-105231429D01*
X128501429Y-104945714D01*
X128572857Y-104802857D01*
X128715715Y-104660000D01*
X128930000Y-104588571D01*
X129072857Y-104588571D01*
X129287143Y-104660000D01*
X129358572Y-104731429D01*
X130215715Y-106088571D02*
X130072857Y-106017143D01*
X130001429Y-105945714D01*
X129930000Y-105802857D01*
X129930000Y-105374286D01*
X130001429Y-105231429D01*
X130072857Y-105160000D01*
X130215715Y-105088571D01*
X130430000Y-105088571D01*
X130572857Y-105160000D01*
X130644286Y-105231429D01*
X130715715Y-105374286D01*
X130715715Y-105802857D01*
X130644286Y-105945714D01*
X130572857Y-106017143D01*
X130430000Y-106088571D01*
X130215715Y-106088571D01*
X131358572Y-105088571D02*
X131358572Y-106088571D01*
X131358572Y-105231429D02*
X131430000Y-105160000D01*
X131572858Y-105088571D01*
X131787143Y-105088571D01*
X131930000Y-105160000D01*
X132001429Y-105302857D01*
X132001429Y-106088571D01*
X133858572Y-106088571D02*
X133858572Y-104588571D01*
X133858572Y-105160000D02*
X134001429Y-105088571D01*
X134287143Y-105088571D01*
X134430000Y-105160000D01*
X134501429Y-105231429D01*
X134572858Y-105374286D01*
X134572858Y-105802857D01*
X134501429Y-105945714D01*
X134430000Y-106017143D01*
X134287143Y-106088571D01*
X134001429Y-106088571D01*
X133858572Y-106017143D01*
X135072858Y-105088571D02*
X135430001Y-106088571D01*
X135787143Y-105088571D02*
X135430001Y-106088571D01*
X135287143Y-106445714D01*
X135215715Y-106517143D01*
X135072858Y-106588571D01*
X137501429Y-106088571D02*
X137501429Y-104588571D01*
X138001429Y-105660000D01*
X138501429Y-104588571D01*
X138501429Y-106088571D01*
X139215715Y-106088571D02*
X139215715Y-105088571D01*
X139215715Y-104588571D02*
X139144286Y-104660000D01*
X139215715Y-104731429D01*
X139287143Y-104660000D01*
X139215715Y-104588571D01*
X139215715Y-104731429D01*
X140572858Y-106017143D02*
X140430001Y-106088571D01*
X140144287Y-106088571D01*
X140001429Y-106017143D01*
X139930001Y-105945714D01*
X139858572Y-105802857D01*
X139858572Y-105374286D01*
X139930001Y-105231429D01*
X140001429Y-105160000D01*
X140144287Y-105088571D01*
X140430001Y-105088571D01*
X140572858Y-105160000D01*
X141215715Y-106088571D02*
X141215715Y-104588571D01*
X141858572Y-106088571D02*
X141858572Y-105302857D01*
X141787143Y-105160000D01*
X141644286Y-105088571D01*
X141430001Y-105088571D01*
X141287143Y-105160000D01*
X141215715Y-105231429D01*
X143215715Y-106088571D02*
X143215715Y-105302857D01*
X143144286Y-105160000D01*
X143001429Y-105088571D01*
X142715715Y-105088571D01*
X142572858Y-105160000D01*
X143215715Y-106017143D02*
X143072858Y-106088571D01*
X142715715Y-106088571D01*
X142572858Y-106017143D01*
X142501429Y-105874286D01*
X142501429Y-105731429D01*
X142572858Y-105588571D01*
X142715715Y-105517143D01*
X143072858Y-105517143D01*
X143215715Y-105445714D01*
X144501429Y-106017143D02*
X144358572Y-106088571D01*
X144072858Y-106088571D01*
X143930001Y-106017143D01*
X143858572Y-105874286D01*
X143858572Y-105302857D01*
X143930001Y-105160000D01*
X144072858Y-105088571D01*
X144358572Y-105088571D01*
X144501429Y-105160000D01*
X144572858Y-105302857D01*
X144572858Y-105445714D01*
X143858572Y-105588571D01*
X145430001Y-106088571D02*
X145287143Y-106017143D01*
X145215715Y-105874286D01*
X145215715Y-104588571D01*
X147144286Y-106088571D02*
X147144286Y-104588571D01*
X147501429Y-104588571D01*
X147715714Y-104660000D01*
X147858572Y-104802857D01*
X147930000Y-104945714D01*
X148001429Y-105231429D01*
X148001429Y-105445714D01*
X147930000Y-105731429D01*
X147858572Y-105874286D01*
X147715714Y-106017143D01*
X147501429Y-106088571D01*
X147144286Y-106088571D01*
X148644286Y-106088571D02*
X148644286Y-105088571D01*
X148644286Y-105374286D02*
X148715714Y-105231429D01*
X148787143Y-105160000D01*
X148930000Y-105088571D01*
X149072857Y-105088571D01*
X149787143Y-106088571D02*
X149644285Y-106017143D01*
X149572857Y-105945714D01*
X149501428Y-105802857D01*
X149501428Y-105374286D01*
X149572857Y-105231429D01*
X149644285Y-105160000D01*
X149787143Y-105088571D01*
X150001428Y-105088571D01*
X150144285Y-105160000D01*
X150215714Y-105231429D01*
X150287143Y-105374286D01*
X150287143Y-105802857D01*
X150215714Y-105945714D01*
X150144285Y-106017143D01*
X150001428Y-106088571D01*
X149787143Y-106088571D01*
X150858571Y-106017143D02*
X151001428Y-106088571D01*
X151287143Y-106088571D01*
X151430000Y-106017143D01*
X151501428Y-105874286D01*
X151501428Y-105802857D01*
X151430000Y-105660000D01*
X151287143Y-105588571D01*
X151072857Y-105588571D01*
X150930000Y-105517143D01*
X150858571Y-105374286D01*
X150858571Y-105302857D01*
X150930000Y-105160000D01*
X151072857Y-105088571D01*
X151287143Y-105088571D01*
X151430000Y-105160000D01*
X151930000Y-105088571D02*
X152501429Y-105088571D01*
X152144286Y-104588571D02*
X152144286Y-105874286D01*
X152215714Y-106017143D01*
X152358572Y-106088571D01*
X152501429Y-106088571D01*
D12*
X113030000Y-111760000D02*
X113030000Y-62230000D01*
X162560000Y-111760000D02*
X113030000Y-111760000D01*
X162560000Y-62230000D02*
X162560000Y-111760000D01*
X113030000Y-62230000D02*
X162560000Y-62230000D01*
D11*
X104381429Y-81495001D02*
X103381429Y-81495001D01*
X104952857Y-81137858D02*
X103881429Y-80780715D01*
X103881429Y-81709287D01*
X103381429Y-82352143D02*
X103381429Y-82637858D01*
X103452857Y-82780715D01*
X103524286Y-82852143D01*
X103738571Y-82995001D01*
X104024286Y-83066429D01*
X104595714Y-83066429D01*
X104738571Y-82995001D01*
X104810000Y-82923572D01*
X104881429Y-82780715D01*
X104881429Y-82495001D01*
X104810000Y-82352143D01*
X104738571Y-82280715D01*
X104595714Y-82209286D01*
X104238571Y-82209286D01*
X104095714Y-82280715D01*
X104024286Y-82352143D01*
X103952857Y-82495001D01*
X103952857Y-82780715D01*
X104024286Y-82923572D01*
X104095714Y-82995001D01*
X104238571Y-83066429D01*
X103452857Y-83780714D02*
X103381429Y-83780714D01*
X103238571Y-83709286D01*
X103167143Y-83637857D01*
X104881429Y-85137858D02*
X104881429Y-84423572D01*
X104167143Y-84352143D01*
X104238571Y-84423572D01*
X104310000Y-84566429D01*
X104310000Y-84923572D01*
X104238571Y-85066429D01*
X104167143Y-85137858D01*
X104024286Y-85209286D01*
X103667143Y-85209286D01*
X103524286Y-85137858D01*
X103452857Y-85066429D01*
X103381429Y-84923572D01*
X103381429Y-84566429D01*
X103452857Y-84423572D01*
X103524286Y-84352143D01*
X104881429Y-85709286D02*
X104881429Y-86637857D01*
X104310000Y-86137857D01*
X104310000Y-86352143D01*
X104238571Y-86495000D01*
X104167143Y-86566429D01*
X104024286Y-86637857D01*
X103667143Y-86637857D01*
X103524286Y-86566429D01*
X103452857Y-86495000D01*
X103381429Y-86352143D01*
X103381429Y-85923571D01*
X103452857Y-85780714D01*
X103524286Y-85709286D01*
X104881429Y-87566428D02*
X104881429Y-87709285D01*
X104810000Y-87852142D01*
X104738571Y-87923571D01*
X104595714Y-87995000D01*
X104310000Y-88066428D01*
X103952857Y-88066428D01*
X103667143Y-87995000D01*
X103524286Y-87923571D01*
X103452857Y-87852142D01*
X103381429Y-87709285D01*
X103381429Y-87566428D01*
X103452857Y-87423571D01*
X103524286Y-87352142D01*
X103667143Y-87280714D01*
X103952857Y-87209285D01*
X104310000Y-87209285D01*
X104595714Y-87280714D01*
X104738571Y-87352142D01*
X104810000Y-87423571D01*
X104881429Y-87566428D01*
X103381429Y-89852142D02*
X104381429Y-89852142D01*
X104238571Y-89852142D02*
X104310000Y-89923570D01*
X104381429Y-90066428D01*
X104381429Y-90280713D01*
X104310000Y-90423570D01*
X104167143Y-90494999D01*
X103381429Y-90494999D01*
X104167143Y-90494999D02*
X104310000Y-90566428D01*
X104381429Y-90709285D01*
X104381429Y-90923570D01*
X104310000Y-91066428D01*
X104167143Y-91137856D01*
X103381429Y-91137856D01*
X103381429Y-91852142D02*
X104381429Y-91852142D01*
X104238571Y-91852142D02*
X104310000Y-91923570D01*
X104381429Y-92066428D01*
X104381429Y-92280713D01*
X104310000Y-92423570D01*
X104167143Y-92494999D01*
X103381429Y-92494999D01*
X104167143Y-92494999D02*
X104310000Y-92566428D01*
X104381429Y-92709285D01*
X104381429Y-92923570D01*
X104310000Y-93066428D01*
X104167143Y-93137856D01*
X103381429Y-93137856D01*
X105410000Y-62230000D02*
X105410000Y-111760000D01*
X113030000Y-62230000D02*
X102710000Y-62230000D01*
X113030000Y-111760000D02*
X102710000Y-111760000D01*
X105410000Y-111760000D02*
X104823579Y-110633496D01*
X105410000Y-111760000D02*
X105996421Y-110633496D01*
X105410000Y-62230000D02*
X104823579Y-63356504D01*
X105410000Y-62230000D02*
X105996421Y-63356504D01*
X132295001Y-55478571D02*
X132295001Y-56478571D01*
X131937858Y-54907143D02*
X131580715Y-55978571D01*
X132509287Y-55978571D01*
X133152143Y-56478571D02*
X133437858Y-56478571D01*
X133580715Y-56407143D01*
X133652143Y-56335714D01*
X133795001Y-56121429D01*
X133866429Y-55835714D01*
X133866429Y-55264286D01*
X133795001Y-55121429D01*
X133723572Y-55050000D01*
X133580715Y-54978571D01*
X133295001Y-54978571D01*
X133152143Y-55050000D01*
X133080715Y-55121429D01*
X133009286Y-55264286D01*
X133009286Y-55621429D01*
X133080715Y-55764286D01*
X133152143Y-55835714D01*
X133295001Y-55907143D01*
X133580715Y-55907143D01*
X133723572Y-55835714D01*
X133795001Y-55764286D01*
X133866429Y-55621429D01*
X134580714Y-56407143D02*
X134580714Y-56478571D01*
X134509286Y-56621429D01*
X134437857Y-56692857D01*
X135937858Y-54978571D02*
X135223572Y-54978571D01*
X135152143Y-55692857D01*
X135223572Y-55621429D01*
X135366429Y-55550000D01*
X135723572Y-55550000D01*
X135866429Y-55621429D01*
X135937858Y-55692857D01*
X136009286Y-55835714D01*
X136009286Y-56192857D01*
X135937858Y-56335714D01*
X135866429Y-56407143D01*
X135723572Y-56478571D01*
X135366429Y-56478571D01*
X135223572Y-56407143D01*
X135152143Y-56335714D01*
X136509286Y-54978571D02*
X137437857Y-54978571D01*
X136937857Y-55550000D01*
X137152143Y-55550000D01*
X137295000Y-55621429D01*
X137366429Y-55692857D01*
X137437857Y-55835714D01*
X137437857Y-56192857D01*
X137366429Y-56335714D01*
X137295000Y-56407143D01*
X137152143Y-56478571D01*
X136723571Y-56478571D01*
X136580714Y-56407143D01*
X136509286Y-56335714D01*
X138366428Y-54978571D02*
X138509285Y-54978571D01*
X138652142Y-55050000D01*
X138723571Y-55121429D01*
X138795000Y-55264286D01*
X138866428Y-55550000D01*
X138866428Y-55907143D01*
X138795000Y-56192857D01*
X138723571Y-56335714D01*
X138652142Y-56407143D01*
X138509285Y-56478571D01*
X138366428Y-56478571D01*
X138223571Y-56407143D01*
X138152142Y-56335714D01*
X138080714Y-56192857D01*
X138009285Y-55907143D01*
X138009285Y-55550000D01*
X138080714Y-55264286D01*
X138152142Y-55121429D01*
X138223571Y-55050000D01*
X138366428Y-54978571D01*
X140652142Y-56478571D02*
X140652142Y-55478571D01*
X140652142Y-55621429D02*
X140723570Y-55550000D01*
X140866428Y-55478571D01*
X141080713Y-55478571D01*
X141223570Y-55550000D01*
X141294999Y-55692857D01*
X141294999Y-56478571D01*
X141294999Y-55692857D02*
X141366428Y-55550000D01*
X141509285Y-55478571D01*
X141723570Y-55478571D01*
X141866428Y-55550000D01*
X141937856Y-55692857D01*
X141937856Y-56478571D01*
X142652142Y-56478571D02*
X142652142Y-55478571D01*
X142652142Y-55621429D02*
X142723570Y-55550000D01*
X142866428Y-55478571D01*
X143080713Y-55478571D01*
X143223570Y-55550000D01*
X143294999Y-55692857D01*
X143294999Y-56478571D01*
X143294999Y-55692857D02*
X143366428Y-55550000D01*
X143509285Y-55478571D01*
X143723570Y-55478571D01*
X143866428Y-55550000D01*
X143937856Y-55692857D01*
X143937856Y-56478571D01*
X113030000Y-57150000D02*
X162560000Y-57150000D01*
X113030000Y-62230000D02*
X113030000Y-54450000D01*
X162560000Y-62230000D02*
X162560000Y-54450000D01*
X162560000Y-57150000D02*
X161433496Y-57736421D01*
X162560000Y-57150000D02*
X161433496Y-56563579D01*
X113030000Y-57150000D02*
X114156504Y-57736421D01*
X113030000Y-57150000D02*
X114156504Y-56563579D01*
D13*
X118110000Y-96520000D02*
X118110000Y-78740000D01*
X118110000Y-78740000D02*
X120650000Y-78740000D01*
X120650000Y-78740000D02*
X120650000Y-96520000D01*
X117830000Y-99340000D02*
X117830000Y-97790000D01*
X118110000Y-96520000D02*
X120650000Y-96520000D01*
X120930000Y-97790000D02*
X120930000Y-99340000D01*
X120930000Y-99340000D02*
X117830000Y-99340000D01*
X138430000Y-101880000D02*
X136880000Y-101880000D01*
X136880000Y-101880000D02*
X136880000Y-98780000D01*
X136880000Y-98780000D02*
X138430000Y-98780000D01*
X139700000Y-99060000D02*
X149860000Y-99060000D01*
X149860000Y-99060000D02*
X149860000Y-101600000D01*
X149860000Y-101600000D02*
X139700000Y-101600000D01*
X139700000Y-99060000D02*
X139700000Y-101600000D01*
X120650000Y-73660000D02*
X120650000Y-66040000D01*
X118110000Y-73660000D02*
X118110000Y-66040000D01*
X117830000Y-76480000D02*
X117830000Y-74930000D01*
X120650000Y-66040000D02*
X118110000Y-66040000D01*
X118110000Y-73660000D02*
X120650000Y-73660000D01*
X120930000Y-74930000D02*
X120930000Y-76480000D01*
X120930000Y-76480000D02*
X117830000Y-76480000D01*
X124460000Y-73660000D02*
X124460000Y-66040000D01*
X121920000Y-73660000D02*
X121920000Y-66040000D01*
X121640000Y-76480000D02*
X121640000Y-74930000D01*
X124460000Y-66040000D02*
X121920000Y-66040000D01*
X121920000Y-73660000D02*
X124460000Y-73660000D01*
X124740000Y-74930000D02*
X124740000Y-76480000D01*
X124740000Y-76480000D02*
X121640000Y-76480000D01*
X128270000Y-73660000D02*
X128270000Y-66040000D01*
X125730000Y-73660000D02*
X125730000Y-66040000D01*
X125450000Y-76480000D02*
X125450000Y-74930000D01*
X128270000Y-66040000D02*
X125730000Y-66040000D01*
X125730000Y-73660000D02*
X128270000Y-73660000D01*
X128550000Y-74930000D02*
X128550000Y-76480000D01*
X128550000Y-76480000D02*
X125450000Y-76480000D01*
X157760000Y-97510000D02*
X157760000Y-99060000D01*
X154660000Y-99060000D02*
X154660000Y-97510000D01*
X154660000Y-97510000D02*
X157760000Y-97510000D01*
X154940000Y-100330000D02*
X157480000Y-100330000D01*
X157760000Y-93700000D02*
X157760000Y-95250000D01*
X154660000Y-95250000D02*
X154660000Y-93700000D01*
X154660000Y-93700000D02*
X157760000Y-93700000D01*
X154940000Y-96520000D02*
X157480000Y-96520000D01*
X157480000Y-69850000D02*
X157480000Y-92710000D01*
X157480000Y-92710000D02*
X154940000Y-92710000D01*
X154940000Y-92710000D02*
X154940000Y-69850000D01*
X157760000Y-67030000D02*
X157760000Y-68580000D01*
X157480000Y-69850000D02*
X154940000Y-69850000D01*
X154660000Y-68580000D02*
X154660000Y-67030000D01*
X154660000Y-67030000D02*
X157760000Y-67030000D01*
X123960000Y-79335000D02*
X124960000Y-79335000D01*
X124960000Y-80685000D02*
X123960000Y-80685000D01*
X123960000Y-81875000D02*
X124960000Y-81875000D01*
X124960000Y-83225000D02*
X123960000Y-83225000D01*
X123960000Y-84415000D02*
X124960000Y-84415000D01*
X124960000Y-85765000D02*
X123960000Y-85765000D01*
X123960000Y-86955000D02*
X124960000Y-86955000D01*
X124960000Y-88305000D02*
X123960000Y-88305000D01*
X123960000Y-89495000D02*
X124960000Y-89495000D01*
X124960000Y-90845000D02*
X123960000Y-90845000D01*
X123960000Y-94575000D02*
X124960000Y-94575000D01*
X124960000Y-95925000D02*
X123960000Y-95925000D01*
X138430000Y-63500000D02*
X138430000Y-68580000D01*
X138430000Y-68580000D02*
X146050000Y-68580000D01*
X146050000Y-68580000D02*
X146050000Y-63500000D01*
X130810000Y-63500000D02*
X130810000Y-96520000D01*
X130810000Y-96520000D02*
X153670000Y-96520000D01*
X153670000Y-96520000D02*
X153670000Y-63500000D01*
X153670000Y-63500000D02*
X130810000Y-63500000D01*
X118403810Y-100782381D02*
X118403810Y-99782381D01*
X119451429Y-100687143D02*
X119403810Y-100734762D01*
X119260953Y-100782381D01*
X119165715Y-100782381D01*
X119022857Y-100734762D01*
X118927619Y-100639524D01*
X118880000Y-100544286D01*
X118832381Y-100353810D01*
X118832381Y-100210952D01*
X118880000Y-100020476D01*
X118927619Y-99925238D01*
X119022857Y-99830000D01*
X119165715Y-99782381D01*
X119260953Y-99782381D01*
X119403810Y-99830000D01*
X119451429Y-99877619D01*
X120403810Y-100782381D02*
X119832381Y-100782381D01*
X120118095Y-100782381D02*
X120118095Y-99782381D01*
X120022857Y-99925238D01*
X119927619Y-100020476D01*
X119832381Y-100068095D01*
X136342381Y-101068095D02*
X135342381Y-101068095D01*
X135342381Y-100687142D01*
X135390000Y-100591904D01*
X135437619Y-100544285D01*
X135532857Y-100496666D01*
X135675714Y-100496666D01*
X135770952Y-100544285D01*
X135818571Y-100591904D01*
X135866190Y-100687142D01*
X135866190Y-101068095D01*
X136342381Y-99544285D02*
X136342381Y-100115714D01*
X136342381Y-99830000D02*
X135342381Y-99830000D01*
X135485238Y-99925238D01*
X135580476Y-100020476D01*
X135628095Y-100115714D01*
X118641905Y-77922381D02*
X118641905Y-76922381D01*
X119022858Y-76922381D01*
X119118096Y-76970000D01*
X119165715Y-77017619D01*
X119213334Y-77112857D01*
X119213334Y-77255714D01*
X119165715Y-77350952D01*
X119118096Y-77398571D01*
X119022858Y-77446190D01*
X118641905Y-77446190D01*
X119594286Y-77017619D02*
X119641905Y-76970000D01*
X119737143Y-76922381D01*
X119975239Y-76922381D01*
X120070477Y-76970000D01*
X120118096Y-77017619D01*
X120165715Y-77112857D01*
X120165715Y-77208095D01*
X120118096Y-77350952D01*
X119546667Y-77922381D01*
X120165715Y-77922381D01*
X122451905Y-77922381D02*
X122451905Y-76922381D01*
X122832858Y-76922381D01*
X122928096Y-76970000D01*
X122975715Y-77017619D01*
X123023334Y-77112857D01*
X123023334Y-77255714D01*
X122975715Y-77350952D01*
X122928096Y-77398571D01*
X122832858Y-77446190D01*
X122451905Y-77446190D01*
X123356667Y-76922381D02*
X123975715Y-76922381D01*
X123642381Y-77303333D01*
X123785239Y-77303333D01*
X123880477Y-77350952D01*
X123928096Y-77398571D01*
X123975715Y-77493810D01*
X123975715Y-77731905D01*
X123928096Y-77827143D01*
X123880477Y-77874762D01*
X123785239Y-77922381D01*
X123499524Y-77922381D01*
X123404286Y-77874762D01*
X123356667Y-77827143D01*
X126261905Y-77922381D02*
X126261905Y-76922381D01*
X126642858Y-76922381D01*
X126738096Y-76970000D01*
X126785715Y-77017619D01*
X126833334Y-77112857D01*
X126833334Y-77255714D01*
X126785715Y-77350952D01*
X126738096Y-77398571D01*
X126642858Y-77446190D01*
X126261905Y-77446190D01*
X127690477Y-77255714D02*
X127690477Y-77922381D01*
X127452381Y-76874762D02*
X127214286Y-77589048D01*
X127833334Y-77589048D01*
X159281905Y-99512381D02*
X159281905Y-98512381D01*
X159662858Y-98512381D01*
X159758096Y-98560000D01*
X159805715Y-98607619D01*
X159853334Y-98702857D01*
X159853334Y-98845714D01*
X159805715Y-98940952D01*
X159758096Y-98988571D01*
X159662858Y-99036190D01*
X159281905Y-99036190D01*
X160758096Y-98512381D02*
X160281905Y-98512381D01*
X160234286Y-98988571D01*
X160281905Y-98940952D01*
X160377143Y-98893333D01*
X160615239Y-98893333D01*
X160710477Y-98940952D01*
X160758096Y-98988571D01*
X160805715Y-99083810D01*
X160805715Y-99321905D01*
X160758096Y-99417143D01*
X160710477Y-99464762D01*
X160615239Y-99512381D01*
X160377143Y-99512381D01*
X160281905Y-99464762D01*
X160234286Y-99417143D01*
X159281905Y-95702381D02*
X159281905Y-94702381D01*
X159662858Y-94702381D01*
X159758096Y-94750000D01*
X159805715Y-94797619D01*
X159853334Y-94892857D01*
X159853334Y-95035714D01*
X159805715Y-95130952D01*
X159758096Y-95178571D01*
X159662858Y-95226190D01*
X159281905Y-95226190D01*
X160710477Y-94702381D02*
X160520000Y-94702381D01*
X160424762Y-94750000D01*
X160377143Y-94797619D01*
X160281905Y-94940476D01*
X160234286Y-95130952D01*
X160234286Y-95511905D01*
X160281905Y-95607143D01*
X160329524Y-95654762D01*
X160424762Y-95702381D01*
X160615239Y-95702381D01*
X160710477Y-95654762D01*
X160758096Y-95607143D01*
X160805715Y-95511905D01*
X160805715Y-95273810D01*
X160758096Y-95178571D01*
X160710477Y-95130952D01*
X160615239Y-95083333D01*
X160424762Y-95083333D01*
X160329524Y-95130952D01*
X160281905Y-95178571D01*
X160234286Y-95273810D01*
X155471905Y-66492381D02*
X155471905Y-65492381D01*
X155852858Y-65492381D01*
X155948096Y-65540000D01*
X155995715Y-65587619D01*
X156043334Y-65682857D01*
X156043334Y-65825714D01*
X155995715Y-65920952D01*
X155948096Y-65968571D01*
X155852858Y-66016190D01*
X155471905Y-66016190D01*
X156376667Y-65492381D02*
X157043334Y-65492381D01*
X156614762Y-66492381D01*
X121753334Y-79192381D02*
X121420000Y-78716190D01*
X121181905Y-79192381D02*
X121181905Y-78192381D01*
X121562858Y-78192381D01*
X121658096Y-78240000D01*
X121705715Y-78287619D01*
X121753334Y-78382857D01*
X121753334Y-78525714D01*
X121705715Y-78620952D01*
X121658096Y-78668571D01*
X121562858Y-78716190D01*
X121181905Y-78716190D01*
X122705715Y-79192381D02*
X122134286Y-79192381D01*
X122420000Y-79192381D02*
X122420000Y-78192381D01*
X122324762Y-78335238D01*
X122229524Y-78430476D01*
X122134286Y-78478095D01*
X121753334Y-81732381D02*
X121420000Y-81256190D01*
X121181905Y-81732381D02*
X121181905Y-80732381D01*
X121562858Y-80732381D01*
X121658096Y-80780000D01*
X121705715Y-80827619D01*
X121753334Y-80922857D01*
X121753334Y-81065714D01*
X121705715Y-81160952D01*
X121658096Y-81208571D01*
X121562858Y-81256190D01*
X121181905Y-81256190D01*
X122134286Y-80827619D02*
X122181905Y-80780000D01*
X122277143Y-80732381D01*
X122515239Y-80732381D01*
X122610477Y-80780000D01*
X122658096Y-80827619D01*
X122705715Y-80922857D01*
X122705715Y-81018095D01*
X122658096Y-81160952D01*
X122086667Y-81732381D01*
X122705715Y-81732381D01*
X121753334Y-84272381D02*
X121420000Y-83796190D01*
X121181905Y-84272381D02*
X121181905Y-83272381D01*
X121562858Y-83272381D01*
X121658096Y-83320000D01*
X121705715Y-83367619D01*
X121753334Y-83462857D01*
X121753334Y-83605714D01*
X121705715Y-83700952D01*
X121658096Y-83748571D01*
X121562858Y-83796190D01*
X121181905Y-83796190D01*
X122086667Y-83272381D02*
X122705715Y-83272381D01*
X122372381Y-83653333D01*
X122515239Y-83653333D01*
X122610477Y-83700952D01*
X122658096Y-83748571D01*
X122705715Y-83843810D01*
X122705715Y-84081905D01*
X122658096Y-84177143D01*
X122610477Y-84224762D01*
X122515239Y-84272381D01*
X122229524Y-84272381D01*
X122134286Y-84224762D01*
X122086667Y-84177143D01*
X121753334Y-86812381D02*
X121420000Y-86336190D01*
X121181905Y-86812381D02*
X121181905Y-85812381D01*
X121562858Y-85812381D01*
X121658096Y-85860000D01*
X121705715Y-85907619D01*
X121753334Y-86002857D01*
X121753334Y-86145714D01*
X121705715Y-86240952D01*
X121658096Y-86288571D01*
X121562858Y-86336190D01*
X121181905Y-86336190D01*
X122610477Y-86145714D02*
X122610477Y-86812381D01*
X122372381Y-85764762D02*
X122134286Y-86479048D01*
X122753334Y-86479048D01*
X121753334Y-89352381D02*
X121420000Y-88876190D01*
X121181905Y-89352381D02*
X121181905Y-88352381D01*
X121562858Y-88352381D01*
X121658096Y-88400000D01*
X121705715Y-88447619D01*
X121753334Y-88542857D01*
X121753334Y-88685714D01*
X121705715Y-88780952D01*
X121658096Y-88828571D01*
X121562858Y-88876190D01*
X121181905Y-88876190D01*
X122658096Y-88352381D02*
X122181905Y-88352381D01*
X122134286Y-88828571D01*
X122181905Y-88780952D01*
X122277143Y-88733333D01*
X122515239Y-88733333D01*
X122610477Y-88780952D01*
X122658096Y-88828571D01*
X122705715Y-88923810D01*
X122705715Y-89161905D01*
X122658096Y-89257143D01*
X122610477Y-89304762D01*
X122515239Y-89352381D01*
X122277143Y-89352381D01*
X122181905Y-89304762D01*
X122134286Y-89257143D01*
X121753334Y-94432381D02*
X121420000Y-93956190D01*
X121181905Y-94432381D02*
X121181905Y-93432381D01*
X121562858Y-93432381D01*
X121658096Y-93480000D01*
X121705715Y-93527619D01*
X121753334Y-93622857D01*
X121753334Y-93765714D01*
X121705715Y-93860952D01*
X121658096Y-93908571D01*
X121562858Y-93956190D01*
X121181905Y-93956190D01*
X122610477Y-93432381D02*
X122420000Y-93432381D01*
X122324762Y-93480000D01*
X122277143Y-93527619D01*
X122181905Y-93670476D01*
X122134286Y-93860952D01*
X122134286Y-94241905D01*
X122181905Y-94337143D01*
X122229524Y-94384762D01*
X122324762Y-94432381D01*
X122515239Y-94432381D01*
X122610477Y-94384762D01*
X122658096Y-94337143D01*
X122705715Y-94241905D01*
X122705715Y-94003810D01*
X122658096Y-93908571D01*
X122610477Y-93860952D01*
X122515239Y-93813333D01*
X122324762Y-93813333D01*
X122229524Y-93860952D01*
X122181905Y-93908571D01*
X122134286Y-94003810D01*
X141263810Y-84272381D02*
X141263810Y-83272381D01*
X142311429Y-84177143D02*
X142263810Y-84224762D01*
X142120953Y-84272381D01*
X142025715Y-84272381D01*
X141882857Y-84224762D01*
X141787619Y-84129524D01*
X141740000Y-84034286D01*
X141692381Y-83843810D01*
X141692381Y-83700952D01*
X141740000Y-83510476D01*
X141787619Y-83415238D01*
X141882857Y-83320000D01*
X142025715Y-83272381D01*
X142120953Y-83272381D01*
X142263810Y-83320000D01*
X142311429Y-83367619D01*
X142692381Y-83367619D02*
X142740000Y-83320000D01*
X142835238Y-83272381D01*
X143073334Y-83272381D01*
X143168572Y-83320000D01*
X143216191Y-83367619D01*
X143263810Y-83462857D01*
X143263810Y-83558095D01*
X143216191Y-83700952D01*
X142644762Y-84272381D01*
X143263810Y-84272381D01*
M02*
