G04 #@! TF.FileFunction,Copper,L1,Top,Signal*
%FSLAX46Y46*%
G04 Gerber Fmt 4.6, Leading zero omitted, Abs format (unit mm)*
G04 Created by KiCad (PCBNEW 4.0.2-stable) date 07.07.2016 20:55:51*
%MOMM*%
G01*
G04 APERTURE LIST*
%ADD10C,0.100000*%
%ADD11R,2.032000X1.727200*%
%ADD12O,2.032000X1.727200*%
%ADD13R,1.727200X2.032000*%
%ADD14O,1.727200X2.032000*%
%ADD15R,2.235200X2.235200*%
%ADD16R,1.200000X0.900000*%
%ADD17C,1.524000*%
%ADD18C,3.000000*%
%ADD19C,0.600000*%
%ADD20C,0.250000*%
%ADD21C,0.254000*%
G04 APERTURE END LIST*
D10*
D11*
X119380000Y-97790000D03*
D12*
X119380000Y-95250000D03*
X119380000Y-92710000D03*
X119380000Y-90170000D03*
X119380000Y-87630000D03*
X119380000Y-85090000D03*
X119380000Y-82550000D03*
X119380000Y-80010000D03*
D13*
X138430000Y-100330000D03*
D14*
X140970000Y-100330000D03*
X143510000Y-100330000D03*
X146050000Y-100330000D03*
X148590000Y-100330000D03*
D11*
X119380000Y-74930000D03*
D12*
X119380000Y-72390000D03*
X119380000Y-69850000D03*
X119380000Y-67310000D03*
D11*
X123190000Y-74930000D03*
D12*
X123190000Y-72390000D03*
X123190000Y-69850000D03*
X123190000Y-67310000D03*
D11*
X127000000Y-74930000D03*
D12*
X127000000Y-72390000D03*
X127000000Y-69850000D03*
X127000000Y-67310000D03*
D15*
X156210000Y-99060000D03*
X156210000Y-95250000D03*
D11*
X156210000Y-68580000D03*
D12*
X156210000Y-71120000D03*
X156210000Y-73660000D03*
X156210000Y-76200000D03*
X156210000Y-78740000D03*
X156210000Y-81280000D03*
X156210000Y-83820000D03*
X156210000Y-86360000D03*
X156210000Y-88900000D03*
X156210000Y-91440000D03*
D16*
X125560000Y-80010000D03*
X123360000Y-80010000D03*
X125560000Y-82550000D03*
X123360000Y-82550000D03*
X125560000Y-85090000D03*
X123360000Y-85090000D03*
X125560000Y-87630000D03*
X123360000Y-87630000D03*
X125560000Y-90170000D03*
X123360000Y-90170000D03*
X125560000Y-95250000D03*
X123360000Y-95250000D03*
D17*
X133350000Y-66040000D03*
X133350000Y-68580000D03*
X133350000Y-71120000D03*
X133350000Y-73660000D03*
X133350000Y-76200000D03*
X133350000Y-78740000D03*
X133350000Y-81280000D03*
X133350000Y-83820000D03*
X133350000Y-86360000D03*
X133350000Y-88900000D03*
X133350000Y-91440000D03*
X133350000Y-93980000D03*
X151130000Y-93980000D03*
X151130000Y-91440000D03*
X151130000Y-88900000D03*
X151130000Y-86360000D03*
X151130000Y-83820000D03*
X151130000Y-81280000D03*
X151130000Y-78740000D03*
X151130000Y-76200000D03*
X151130000Y-73660000D03*
X151130000Y-71120000D03*
X151130000Y-68580000D03*
X151130000Y-66040000D03*
D18*
X142240000Y-67310000D03*
X157480000Y-106680000D03*
X118110000Y-106680000D03*
D19*
X128270000Y-82550000D03*
X151130000Y-91440000D03*
X148590000Y-92710000D03*
D20*
X123360000Y-95250000D02*
X119380000Y-95250000D01*
X119380000Y-90170000D02*
X123360000Y-90170000D01*
X119380000Y-87630000D02*
X123360000Y-87630000D01*
X119380000Y-85090000D02*
X123190000Y-85090000D01*
X123190000Y-85090000D02*
X123360000Y-85090000D01*
X119380000Y-82550000D02*
X123360000Y-82550000D01*
X119380000Y-80010000D02*
X123360000Y-80010000D01*
X133350000Y-81280000D02*
X135890000Y-81280000D01*
X135890000Y-69850000D02*
X127000000Y-69850000D01*
X135890000Y-81280000D02*
X135890000Y-69850000D01*
X133350000Y-88900000D02*
X129540000Y-85090000D01*
X129540000Y-80010000D02*
X125560000Y-80010000D01*
X129540000Y-85090000D02*
X129540000Y-80010000D01*
X125560000Y-80010000D02*
X125730000Y-80010000D01*
X133350000Y-91440000D02*
X128270000Y-86360000D01*
X127000000Y-85090000D02*
X125560000Y-85090000D01*
X128270000Y-86360000D02*
X127000000Y-85090000D01*
X125560000Y-82550000D02*
X128270000Y-82550000D01*
X125560000Y-95250000D02*
X126830000Y-96520000D01*
X148590000Y-96520000D02*
X151130000Y-93980000D01*
X126830000Y-96520000D02*
X148590000Y-96520000D01*
X146050000Y-92710000D02*
X147320000Y-91440000D01*
X130640000Y-92710000D02*
X146050000Y-92710000D01*
X125560000Y-87630000D02*
X130640000Y-92710000D01*
X147320000Y-91440000D02*
X151130000Y-91440000D01*
X151130000Y-88900000D02*
X156210000Y-88900000D01*
X125560000Y-90170000D02*
X130640000Y-95250000D01*
X146050000Y-95250000D02*
X148590000Y-92710000D01*
X130640000Y-95250000D02*
X146050000Y-95250000D01*
X151130000Y-83820000D02*
X156210000Y-83820000D01*
X151130000Y-81280000D02*
X156210000Y-81280000D01*
X151130000Y-78740000D02*
X156210000Y-78740000D01*
X151130000Y-76200000D02*
X156210000Y-76200000D01*
X123190000Y-67310000D02*
X121920000Y-67310000D01*
X121920000Y-67310000D02*
X119380000Y-69850000D01*
X127000000Y-67310000D02*
X125730000Y-67310000D01*
X125730000Y-67310000D02*
X123190000Y-69850000D01*
X156210000Y-71120000D02*
X158750000Y-71120000D01*
X158750000Y-99060000D02*
X156210000Y-99060000D01*
X158750000Y-71120000D02*
X158750000Y-99060000D01*
X156210000Y-91440000D02*
X156210000Y-95250000D01*
D21*
G36*
X161163000Y-66092606D02*
X161163000Y-107897394D01*
X158697394Y-110363000D01*
X116892606Y-110363000D01*
X114427000Y-107897394D01*
X114427000Y-107299270D01*
X114982458Y-107299270D01*
X115457512Y-108448989D01*
X116336384Y-109329396D01*
X117485272Y-109806456D01*
X118729270Y-109807542D01*
X119878989Y-109332488D01*
X120759396Y-108453616D01*
X121236456Y-107304728D01*
X121236460Y-107299270D01*
X154352458Y-107299270D01*
X154827512Y-108448989D01*
X155706384Y-109329396D01*
X156855272Y-109806456D01*
X158099270Y-109807542D01*
X159248989Y-109332488D01*
X160129396Y-108453616D01*
X160606456Y-107304728D01*
X160607542Y-106060730D01*
X160132488Y-104911011D01*
X159253616Y-104030604D01*
X158104728Y-103553544D01*
X156860730Y-103552458D01*
X155711011Y-104027512D01*
X154830604Y-104906384D01*
X154353544Y-106055272D01*
X154352458Y-107299270D01*
X121236460Y-107299270D01*
X121237542Y-106060730D01*
X120762488Y-104911011D01*
X119883616Y-104030604D01*
X118734728Y-103553544D01*
X117490730Y-103552458D01*
X116341011Y-104027512D01*
X115460604Y-104906384D01*
X114983544Y-106055272D01*
X114982458Y-107299270D01*
X114427000Y-107299270D01*
X114427000Y-99314000D01*
X136918960Y-99314000D01*
X136918960Y-101346000D01*
X136963238Y-101581317D01*
X137102310Y-101797441D01*
X137314510Y-101942431D01*
X137566400Y-101993440D01*
X139293600Y-101993440D01*
X139528917Y-101949162D01*
X139745041Y-101810090D01*
X139890031Y-101597890D01*
X139898400Y-101556561D01*
X139910330Y-101574415D01*
X140396511Y-101899271D01*
X140970000Y-102013345D01*
X141543489Y-101899271D01*
X142029670Y-101574415D01*
X142240000Y-101259634D01*
X142450330Y-101574415D01*
X142936511Y-101899271D01*
X143510000Y-102013345D01*
X144083489Y-101899271D01*
X144569670Y-101574415D01*
X144780000Y-101259634D01*
X144990330Y-101574415D01*
X145476511Y-101899271D01*
X146050000Y-102013345D01*
X146623489Y-101899271D01*
X147109670Y-101574415D01*
X147316461Y-101264931D01*
X147687964Y-101680732D01*
X148215209Y-101934709D01*
X148230974Y-101937358D01*
X148463000Y-101816217D01*
X148463000Y-100457000D01*
X148717000Y-100457000D01*
X148717000Y-101816217D01*
X148949026Y-101937358D01*
X148964791Y-101934709D01*
X149492036Y-101680732D01*
X149881954Y-101244320D01*
X150075184Y-100691913D01*
X149930924Y-100457000D01*
X148717000Y-100457000D01*
X148463000Y-100457000D01*
X148443000Y-100457000D01*
X148443000Y-100203000D01*
X148463000Y-100203000D01*
X148463000Y-98843783D01*
X148717000Y-98843783D01*
X148717000Y-100203000D01*
X149930924Y-100203000D01*
X150075184Y-99968087D01*
X149881954Y-99415680D01*
X149492036Y-98979268D01*
X148964791Y-98725291D01*
X148949026Y-98722642D01*
X148717000Y-98843783D01*
X148463000Y-98843783D01*
X148230974Y-98722642D01*
X148215209Y-98725291D01*
X147687964Y-98979268D01*
X147316461Y-99395069D01*
X147109670Y-99085585D01*
X146623489Y-98760729D01*
X146050000Y-98646655D01*
X145476511Y-98760729D01*
X144990330Y-99085585D01*
X144780000Y-99400366D01*
X144569670Y-99085585D01*
X144083489Y-98760729D01*
X143510000Y-98646655D01*
X142936511Y-98760729D01*
X142450330Y-99085585D01*
X142240000Y-99400366D01*
X142029670Y-99085585D01*
X141543489Y-98760729D01*
X140970000Y-98646655D01*
X140396511Y-98760729D01*
X139910330Y-99085585D01*
X139900757Y-99099913D01*
X139896762Y-99078683D01*
X139757690Y-98862559D01*
X139545490Y-98717569D01*
X139293600Y-98666560D01*
X137566400Y-98666560D01*
X137331083Y-98710838D01*
X137114959Y-98849910D01*
X136969969Y-99062110D01*
X136918960Y-99314000D01*
X114427000Y-99314000D01*
X114427000Y-74066400D01*
X117716560Y-74066400D01*
X117716560Y-75793600D01*
X117760838Y-76028917D01*
X117899910Y-76245041D01*
X118112110Y-76390031D01*
X118364000Y-76441040D01*
X120396000Y-76441040D01*
X120631317Y-76396762D01*
X120847441Y-76257690D01*
X120992431Y-76045490D01*
X121043440Y-75793600D01*
X121043440Y-74066400D01*
X121526560Y-74066400D01*
X121526560Y-75793600D01*
X121570838Y-76028917D01*
X121709910Y-76245041D01*
X121922110Y-76390031D01*
X122174000Y-76441040D01*
X124206000Y-76441040D01*
X124441317Y-76396762D01*
X124657441Y-76257690D01*
X124802431Y-76045490D01*
X124853440Y-75793600D01*
X124853440Y-74066400D01*
X125336560Y-74066400D01*
X125336560Y-75793600D01*
X125380838Y-76028917D01*
X125519910Y-76245041D01*
X125732110Y-76390031D01*
X125984000Y-76441040D01*
X128016000Y-76441040D01*
X128251317Y-76396762D01*
X128467441Y-76257690D01*
X128612431Y-76045490D01*
X128663440Y-75793600D01*
X128663440Y-74066400D01*
X128619162Y-73831083D01*
X128480090Y-73614959D01*
X128267890Y-73469969D01*
X128173073Y-73450768D01*
X128350732Y-73292036D01*
X128604709Y-72764791D01*
X128607358Y-72749026D01*
X128486217Y-72517000D01*
X127127000Y-72517000D01*
X127127000Y-72537000D01*
X126873000Y-72537000D01*
X126873000Y-72517000D01*
X125513783Y-72517000D01*
X125392642Y-72749026D01*
X125395291Y-72764791D01*
X125649268Y-73292036D01*
X125824845Y-73448907D01*
X125748683Y-73463238D01*
X125532559Y-73602310D01*
X125387569Y-73814510D01*
X125336560Y-74066400D01*
X124853440Y-74066400D01*
X124809162Y-73831083D01*
X124670090Y-73614959D01*
X124457890Y-73469969D01*
X124363073Y-73450768D01*
X124540732Y-73292036D01*
X124794709Y-72764791D01*
X124797358Y-72749026D01*
X124676217Y-72517000D01*
X123317000Y-72517000D01*
X123317000Y-72537000D01*
X123063000Y-72537000D01*
X123063000Y-72517000D01*
X121703783Y-72517000D01*
X121582642Y-72749026D01*
X121585291Y-72764791D01*
X121839268Y-73292036D01*
X122014845Y-73448907D01*
X121938683Y-73463238D01*
X121722559Y-73602310D01*
X121577569Y-73814510D01*
X121526560Y-74066400D01*
X121043440Y-74066400D01*
X120999162Y-73831083D01*
X120860090Y-73614959D01*
X120647890Y-73469969D01*
X120553073Y-73450768D01*
X120730732Y-73292036D01*
X120984709Y-72764791D01*
X120987358Y-72749026D01*
X120866217Y-72517000D01*
X119507000Y-72517000D01*
X119507000Y-72537000D01*
X119253000Y-72537000D01*
X119253000Y-72517000D01*
X117893783Y-72517000D01*
X117772642Y-72749026D01*
X117775291Y-72764791D01*
X118029268Y-73292036D01*
X118204845Y-73448907D01*
X118128683Y-73463238D01*
X117912559Y-73602310D01*
X117767569Y-73814510D01*
X117716560Y-74066400D01*
X114427000Y-74066400D01*
X114427000Y-67310000D01*
X117696655Y-67310000D01*
X117810729Y-67883489D01*
X118135585Y-68369670D01*
X118450366Y-68580000D01*
X118135585Y-68790330D01*
X117810729Y-69276511D01*
X117696655Y-69850000D01*
X117810729Y-70423489D01*
X118135585Y-70909670D01*
X118445069Y-71116461D01*
X118029268Y-71487964D01*
X117775291Y-72015209D01*
X117772642Y-72030974D01*
X117893783Y-72263000D01*
X119253000Y-72263000D01*
X119253000Y-72243000D01*
X119507000Y-72243000D01*
X119507000Y-72263000D01*
X120866217Y-72263000D01*
X120987358Y-72030974D01*
X120984709Y-72015209D01*
X120730732Y-71487964D01*
X120314931Y-71116461D01*
X120624415Y-70909670D01*
X120949271Y-70423489D01*
X121063345Y-69850000D01*
X120962381Y-69342421D01*
X121941398Y-68363404D01*
X121945585Y-68369670D01*
X122260366Y-68580000D01*
X121945585Y-68790330D01*
X121620729Y-69276511D01*
X121506655Y-69850000D01*
X121620729Y-70423489D01*
X121945585Y-70909670D01*
X122255069Y-71116461D01*
X121839268Y-71487964D01*
X121585291Y-72015209D01*
X121582642Y-72030974D01*
X121703783Y-72263000D01*
X123063000Y-72263000D01*
X123063000Y-72243000D01*
X123317000Y-72243000D01*
X123317000Y-72263000D01*
X124676217Y-72263000D01*
X124797358Y-72030974D01*
X124794709Y-72015209D01*
X124540732Y-71487964D01*
X124124931Y-71116461D01*
X124434415Y-70909670D01*
X124759271Y-70423489D01*
X124873345Y-69850000D01*
X124772381Y-69342421D01*
X125751398Y-68363404D01*
X125755585Y-68369670D01*
X126070366Y-68580000D01*
X125755585Y-68790330D01*
X125430729Y-69276511D01*
X125316655Y-69850000D01*
X125430729Y-70423489D01*
X125755585Y-70909670D01*
X126065069Y-71116461D01*
X125649268Y-71487964D01*
X125395291Y-72015209D01*
X125392642Y-72030974D01*
X125513783Y-72263000D01*
X126873000Y-72263000D01*
X126873000Y-72243000D01*
X127127000Y-72243000D01*
X127127000Y-72263000D01*
X128486217Y-72263000D01*
X128607358Y-72030974D01*
X128604709Y-72015209D01*
X128350732Y-71487964D01*
X127934931Y-71116461D01*
X128244415Y-70909670D01*
X128444648Y-70610000D01*
X132049121Y-70610000D01*
X131953243Y-70840900D01*
X131952758Y-71396661D01*
X132164990Y-71910303D01*
X132557630Y-72303629D01*
X132765512Y-72389949D01*
X132559697Y-72474990D01*
X132166371Y-72867630D01*
X131953243Y-73380900D01*
X131952758Y-73936661D01*
X132164990Y-74450303D01*
X132557630Y-74843629D01*
X132765512Y-74929949D01*
X132559697Y-75014990D01*
X132166371Y-75407630D01*
X131953243Y-75920900D01*
X131952758Y-76476661D01*
X132164990Y-76990303D01*
X132557630Y-77383629D01*
X132765512Y-77469949D01*
X132559697Y-77554990D01*
X132166371Y-77947630D01*
X131953243Y-78460900D01*
X131952758Y-79016661D01*
X132164990Y-79530303D01*
X132557630Y-79923629D01*
X132765512Y-80009949D01*
X132559697Y-80094990D01*
X132166371Y-80487630D01*
X131953243Y-81000900D01*
X131952758Y-81556661D01*
X132164990Y-82070303D01*
X132557630Y-82463629D01*
X132765512Y-82549949D01*
X132559697Y-82634990D01*
X132166371Y-83027630D01*
X131953243Y-83540900D01*
X131952758Y-84096661D01*
X132164990Y-84610303D01*
X132557630Y-85003629D01*
X132765512Y-85089949D01*
X132559697Y-85174990D01*
X132166371Y-85567630D01*
X131953243Y-86080900D01*
X131952940Y-86428138D01*
X130300000Y-84775198D01*
X130300000Y-80010000D01*
X130242148Y-79719161D01*
X130077401Y-79472599D01*
X129830839Y-79307852D01*
X129540000Y-79250000D01*
X126715105Y-79250000D01*
X126624090Y-79108559D01*
X126411890Y-78963569D01*
X126160000Y-78912560D01*
X124960000Y-78912560D01*
X124724683Y-78956838D01*
X124508559Y-79095910D01*
X124460866Y-79165711D01*
X124424090Y-79108559D01*
X124211890Y-78963569D01*
X123960000Y-78912560D01*
X122760000Y-78912560D01*
X122524683Y-78956838D01*
X122308559Y-79095910D01*
X122203274Y-79250000D01*
X120824648Y-79250000D01*
X120624415Y-78950330D01*
X120138234Y-78625474D01*
X119564745Y-78511400D01*
X119195255Y-78511400D01*
X118621766Y-78625474D01*
X118135585Y-78950330D01*
X117810729Y-79436511D01*
X117696655Y-80010000D01*
X117810729Y-80583489D01*
X118135585Y-81069670D01*
X118450366Y-81280000D01*
X118135585Y-81490330D01*
X117810729Y-81976511D01*
X117696655Y-82550000D01*
X117810729Y-83123489D01*
X118135585Y-83609670D01*
X118450366Y-83820000D01*
X118135585Y-84030330D01*
X117810729Y-84516511D01*
X117696655Y-85090000D01*
X117810729Y-85663489D01*
X118135585Y-86149670D01*
X118450366Y-86360000D01*
X118135585Y-86570330D01*
X117810729Y-87056511D01*
X117696655Y-87630000D01*
X117810729Y-88203489D01*
X118135585Y-88689670D01*
X118450366Y-88900000D01*
X118135585Y-89110330D01*
X117810729Y-89596511D01*
X117696655Y-90170000D01*
X117810729Y-90743489D01*
X118135585Y-91229670D01*
X118445069Y-91436461D01*
X118029268Y-91807964D01*
X117775291Y-92335209D01*
X117772642Y-92350974D01*
X117893783Y-92583000D01*
X119253000Y-92583000D01*
X119253000Y-92563000D01*
X119507000Y-92563000D01*
X119507000Y-92583000D01*
X120866217Y-92583000D01*
X120987358Y-92350974D01*
X120984709Y-92335209D01*
X120730732Y-91807964D01*
X120314931Y-91436461D01*
X120624415Y-91229670D01*
X120824648Y-90930000D01*
X122204895Y-90930000D01*
X122295910Y-91071441D01*
X122508110Y-91216431D01*
X122760000Y-91267440D01*
X123960000Y-91267440D01*
X124195317Y-91223162D01*
X124411441Y-91084090D01*
X124459134Y-91014289D01*
X124495910Y-91071441D01*
X124708110Y-91216431D01*
X124960000Y-91267440D01*
X125582638Y-91267440D01*
X130075198Y-95760000D01*
X127144802Y-95760000D01*
X126807440Y-95422638D01*
X126807440Y-94800000D01*
X126763162Y-94564683D01*
X126624090Y-94348559D01*
X126411890Y-94203569D01*
X126160000Y-94152560D01*
X124960000Y-94152560D01*
X124724683Y-94196838D01*
X124508559Y-94335910D01*
X124460866Y-94405711D01*
X124424090Y-94348559D01*
X124211890Y-94203569D01*
X123960000Y-94152560D01*
X122760000Y-94152560D01*
X122524683Y-94196838D01*
X122308559Y-94335910D01*
X122203274Y-94490000D01*
X120824648Y-94490000D01*
X120624415Y-94190330D01*
X120314931Y-93983539D01*
X120730732Y-93612036D01*
X120984709Y-93084791D01*
X120987358Y-93069026D01*
X120866217Y-92837000D01*
X119507000Y-92837000D01*
X119507000Y-92857000D01*
X119253000Y-92857000D01*
X119253000Y-92837000D01*
X117893783Y-92837000D01*
X117772642Y-93069026D01*
X117775291Y-93084791D01*
X118029268Y-93612036D01*
X118445069Y-93983539D01*
X118135585Y-94190330D01*
X117810729Y-94676511D01*
X117696655Y-95250000D01*
X117810729Y-95823489D01*
X118135585Y-96309670D01*
X118149913Y-96319243D01*
X118128683Y-96323238D01*
X117912559Y-96462310D01*
X117767569Y-96674510D01*
X117716560Y-96926400D01*
X117716560Y-98653600D01*
X117760838Y-98888917D01*
X117899910Y-99105041D01*
X118112110Y-99250031D01*
X118364000Y-99301040D01*
X120396000Y-99301040D01*
X120631317Y-99256762D01*
X120847441Y-99117690D01*
X120992431Y-98905490D01*
X121043440Y-98653600D01*
X121043440Y-97942400D01*
X154444960Y-97942400D01*
X154444960Y-100177600D01*
X154489238Y-100412917D01*
X154628310Y-100629041D01*
X154840510Y-100774031D01*
X155092400Y-100825040D01*
X157327600Y-100825040D01*
X157562917Y-100780762D01*
X157779041Y-100641690D01*
X157924031Y-100429490D01*
X157975040Y-100177600D01*
X157975040Y-99820000D01*
X158750000Y-99820000D01*
X159040839Y-99762148D01*
X159287401Y-99597401D01*
X159452148Y-99350839D01*
X159510000Y-99060000D01*
X159510000Y-71120000D01*
X159452148Y-70829161D01*
X159287401Y-70582599D01*
X159040839Y-70417852D01*
X158750000Y-70360000D01*
X157654648Y-70360000D01*
X157454415Y-70060330D01*
X157440087Y-70050757D01*
X157461317Y-70046762D01*
X157677441Y-69907690D01*
X157822431Y-69695490D01*
X157873440Y-69443600D01*
X157873440Y-67716400D01*
X157829162Y-67481083D01*
X157690090Y-67264959D01*
X157477890Y-67119969D01*
X157226000Y-67068960D01*
X155194000Y-67068960D01*
X154958683Y-67113238D01*
X154742559Y-67252310D01*
X154597569Y-67464510D01*
X154546560Y-67716400D01*
X154546560Y-69443600D01*
X154590838Y-69678917D01*
X154729910Y-69895041D01*
X154942110Y-70040031D01*
X154983439Y-70048400D01*
X154965585Y-70060330D01*
X154640729Y-70546511D01*
X154526655Y-71120000D01*
X154640729Y-71693489D01*
X154965585Y-72179670D01*
X155275069Y-72386461D01*
X154859268Y-72757964D01*
X154605291Y-73285209D01*
X154602642Y-73300974D01*
X154723783Y-73533000D01*
X156083000Y-73533000D01*
X156083000Y-73513000D01*
X156337000Y-73513000D01*
X156337000Y-73533000D01*
X157696217Y-73533000D01*
X157817358Y-73300974D01*
X157814709Y-73285209D01*
X157560732Y-72757964D01*
X157144931Y-72386461D01*
X157454415Y-72179670D01*
X157654648Y-71880000D01*
X157990000Y-71880000D01*
X157990000Y-98300000D01*
X157975040Y-98300000D01*
X157975040Y-97942400D01*
X157930762Y-97707083D01*
X157791690Y-97490959D01*
X157579490Y-97345969D01*
X157327600Y-97294960D01*
X155092400Y-97294960D01*
X154857083Y-97339238D01*
X154640959Y-97478310D01*
X154495969Y-97690510D01*
X154444960Y-97942400D01*
X121043440Y-97942400D01*
X121043440Y-96926400D01*
X120999162Y-96691083D01*
X120860090Y-96474959D01*
X120647890Y-96329969D01*
X120606561Y-96321600D01*
X120624415Y-96309670D01*
X120824648Y-96010000D01*
X122204895Y-96010000D01*
X122295910Y-96151441D01*
X122508110Y-96296431D01*
X122760000Y-96347440D01*
X123960000Y-96347440D01*
X124195317Y-96303162D01*
X124411441Y-96164090D01*
X124459134Y-96094289D01*
X124495910Y-96151441D01*
X124708110Y-96296431D01*
X124960000Y-96347440D01*
X125582638Y-96347440D01*
X126292599Y-97057401D01*
X126539160Y-97222148D01*
X126830000Y-97280000D01*
X148590000Y-97280000D01*
X148880839Y-97222148D01*
X149127401Y-97057401D01*
X150820619Y-95364183D01*
X150850900Y-95376757D01*
X151406661Y-95377242D01*
X151920303Y-95165010D01*
X152313629Y-94772370D01*
X152526757Y-94259100D01*
X152527242Y-93703339D01*
X152315010Y-93189697D01*
X151922370Y-92796371D01*
X151714488Y-92710051D01*
X151920303Y-92625010D01*
X152313629Y-92232370D01*
X152526757Y-91719100D01*
X152527242Y-91163339D01*
X152315010Y-90649697D01*
X151922370Y-90256371D01*
X151714488Y-90170051D01*
X151920303Y-90085010D01*
X152313629Y-89692370D01*
X152327070Y-89660000D01*
X154765352Y-89660000D01*
X154965585Y-89959670D01*
X155280366Y-90170000D01*
X154965585Y-90380330D01*
X154640729Y-90866511D01*
X154526655Y-91440000D01*
X154640729Y-92013489D01*
X154965585Y-92499670D01*
X155450000Y-92823346D01*
X155450000Y-93484960D01*
X155092400Y-93484960D01*
X154857083Y-93529238D01*
X154640959Y-93668310D01*
X154495969Y-93880510D01*
X154444960Y-94132400D01*
X154444960Y-96367600D01*
X154489238Y-96602917D01*
X154628310Y-96819041D01*
X154840510Y-96964031D01*
X155092400Y-97015040D01*
X157327600Y-97015040D01*
X157562917Y-96970762D01*
X157779041Y-96831690D01*
X157924031Y-96619490D01*
X157975040Y-96367600D01*
X157975040Y-94132400D01*
X157930762Y-93897083D01*
X157791690Y-93680959D01*
X157579490Y-93535969D01*
X157327600Y-93484960D01*
X156970000Y-93484960D01*
X156970000Y-92823346D01*
X157454415Y-92499670D01*
X157779271Y-92013489D01*
X157893345Y-91440000D01*
X157779271Y-90866511D01*
X157454415Y-90380330D01*
X157139634Y-90170000D01*
X157454415Y-89959670D01*
X157779271Y-89473489D01*
X157893345Y-88900000D01*
X157779271Y-88326511D01*
X157454415Y-87840330D01*
X157139634Y-87630000D01*
X157454415Y-87419670D01*
X157779271Y-86933489D01*
X157893345Y-86360000D01*
X157779271Y-85786511D01*
X157454415Y-85300330D01*
X157139634Y-85090000D01*
X157454415Y-84879670D01*
X157779271Y-84393489D01*
X157893345Y-83820000D01*
X157779271Y-83246511D01*
X157454415Y-82760330D01*
X157139634Y-82550000D01*
X157454415Y-82339670D01*
X157779271Y-81853489D01*
X157893345Y-81280000D01*
X157779271Y-80706511D01*
X157454415Y-80220330D01*
X157139634Y-80010000D01*
X157454415Y-79799670D01*
X157779271Y-79313489D01*
X157893345Y-78740000D01*
X157779271Y-78166511D01*
X157454415Y-77680330D01*
X157139634Y-77470000D01*
X157454415Y-77259670D01*
X157779271Y-76773489D01*
X157893345Y-76200000D01*
X157779271Y-75626511D01*
X157454415Y-75140330D01*
X157144931Y-74933539D01*
X157560732Y-74562036D01*
X157814709Y-74034791D01*
X157817358Y-74019026D01*
X157696217Y-73787000D01*
X156337000Y-73787000D01*
X156337000Y-73807000D01*
X156083000Y-73807000D01*
X156083000Y-73787000D01*
X154723783Y-73787000D01*
X154602642Y-74019026D01*
X154605291Y-74034791D01*
X154859268Y-74562036D01*
X155275069Y-74933539D01*
X154965585Y-75140330D01*
X154765352Y-75440000D01*
X152327531Y-75440000D01*
X152315010Y-75409697D01*
X151922370Y-75016371D01*
X151730273Y-74936605D01*
X151861143Y-74882397D01*
X151930608Y-74640213D01*
X151130000Y-73839605D01*
X150329392Y-74640213D01*
X150398857Y-74882397D01*
X150539318Y-74932509D01*
X150339697Y-75014990D01*
X149946371Y-75407630D01*
X149733243Y-75920900D01*
X149732758Y-76476661D01*
X149944990Y-76990303D01*
X150337630Y-77383629D01*
X150545512Y-77469949D01*
X150339697Y-77554990D01*
X149946371Y-77947630D01*
X149733243Y-78460900D01*
X149732758Y-79016661D01*
X149944990Y-79530303D01*
X150337630Y-79923629D01*
X150545512Y-80009949D01*
X150339697Y-80094990D01*
X149946371Y-80487630D01*
X149733243Y-81000900D01*
X149732758Y-81556661D01*
X149944990Y-82070303D01*
X150337630Y-82463629D01*
X150545512Y-82549949D01*
X150339697Y-82634990D01*
X149946371Y-83027630D01*
X149733243Y-83540900D01*
X149732758Y-84096661D01*
X149944990Y-84610303D01*
X150337630Y-85003629D01*
X150545512Y-85089949D01*
X150339697Y-85174990D01*
X149946371Y-85567630D01*
X149733243Y-86080900D01*
X149732758Y-86636661D01*
X149944990Y-87150303D01*
X150337630Y-87543629D01*
X150545512Y-87629949D01*
X150339697Y-87714990D01*
X149946371Y-88107630D01*
X149733243Y-88620900D01*
X149732758Y-89176661D01*
X149944990Y-89690303D01*
X150337630Y-90083629D01*
X150545512Y-90169949D01*
X150339697Y-90254990D01*
X149946371Y-90647630D01*
X149932930Y-90680000D01*
X147320000Y-90680000D01*
X147029160Y-90737852D01*
X146782599Y-90902599D01*
X145735198Y-91950000D01*
X134650879Y-91950000D01*
X134746757Y-91719100D01*
X134747242Y-91163339D01*
X134535010Y-90649697D01*
X134142370Y-90256371D01*
X133934488Y-90170051D01*
X134140303Y-90085010D01*
X134533629Y-89692370D01*
X134746757Y-89179100D01*
X134747242Y-88623339D01*
X134535010Y-88109697D01*
X134142370Y-87716371D01*
X133934488Y-87630051D01*
X134140303Y-87545010D01*
X134533629Y-87152370D01*
X134746757Y-86639100D01*
X134747242Y-86083339D01*
X134535010Y-85569697D01*
X134142370Y-85176371D01*
X133934488Y-85090051D01*
X134140303Y-85005010D01*
X134533629Y-84612370D01*
X134746757Y-84099100D01*
X134747242Y-83543339D01*
X134535010Y-83029697D01*
X134142370Y-82636371D01*
X133934488Y-82550051D01*
X134140303Y-82465010D01*
X134533629Y-82072370D01*
X134547070Y-82040000D01*
X135890000Y-82040000D01*
X136180839Y-81982148D01*
X136427401Y-81817401D01*
X136592148Y-81570839D01*
X136650000Y-81280000D01*
X136650000Y-73452302D01*
X149720856Y-73452302D01*
X149748638Y-74007368D01*
X149907603Y-74391143D01*
X150149787Y-74460608D01*
X150950395Y-73660000D01*
X151309605Y-73660000D01*
X152110213Y-74460608D01*
X152352397Y-74391143D01*
X152539144Y-73867698D01*
X152511362Y-73312632D01*
X152352397Y-72928857D01*
X152110213Y-72859392D01*
X151309605Y-73660000D01*
X150950395Y-73660000D01*
X150149787Y-72859392D01*
X149907603Y-72928857D01*
X149720856Y-73452302D01*
X136650000Y-73452302D01*
X136650000Y-69850000D01*
X136592148Y-69559161D01*
X136427401Y-69312599D01*
X136180839Y-69147852D01*
X135890000Y-69090000D01*
X134650879Y-69090000D01*
X134746757Y-68859100D01*
X134747242Y-68303339D01*
X134592681Y-67929270D01*
X139112458Y-67929270D01*
X139587512Y-69078989D01*
X140466384Y-69959396D01*
X141615272Y-70436456D01*
X142859270Y-70437542D01*
X144008989Y-69962488D01*
X144889396Y-69083616D01*
X145366456Y-67934728D01*
X145367542Y-66690730D01*
X145212980Y-66316661D01*
X149732758Y-66316661D01*
X149944990Y-66830303D01*
X150337630Y-67223629D01*
X150545512Y-67309949D01*
X150339697Y-67394990D01*
X149946371Y-67787630D01*
X149733243Y-68300900D01*
X149732758Y-68856661D01*
X149944990Y-69370303D01*
X150337630Y-69763629D01*
X150545512Y-69849949D01*
X150339697Y-69934990D01*
X149946371Y-70327630D01*
X149733243Y-70840900D01*
X149732758Y-71396661D01*
X149944990Y-71910303D01*
X150337630Y-72303629D01*
X150529727Y-72383395D01*
X150398857Y-72437603D01*
X150329392Y-72679787D01*
X151130000Y-73480395D01*
X151930608Y-72679787D01*
X151861143Y-72437603D01*
X151720682Y-72387491D01*
X151920303Y-72305010D01*
X152313629Y-71912370D01*
X152526757Y-71399100D01*
X152527242Y-70843339D01*
X152315010Y-70329697D01*
X151922370Y-69936371D01*
X151714488Y-69850051D01*
X151920303Y-69765010D01*
X152313629Y-69372370D01*
X152526757Y-68859100D01*
X152527242Y-68303339D01*
X152315010Y-67789697D01*
X151922370Y-67396371D01*
X151714488Y-67310051D01*
X151920303Y-67225010D01*
X152313629Y-66832370D01*
X152526757Y-66319100D01*
X152527242Y-65763339D01*
X152315010Y-65249697D01*
X151922370Y-64856371D01*
X151409100Y-64643243D01*
X150853339Y-64642758D01*
X150339697Y-64854990D01*
X149946371Y-65247630D01*
X149733243Y-65760900D01*
X149732758Y-66316661D01*
X145212980Y-66316661D01*
X144892488Y-65541011D01*
X144013616Y-64660604D01*
X142864728Y-64183544D01*
X141620730Y-64182458D01*
X140471011Y-64657512D01*
X139590604Y-65536384D01*
X139113544Y-66685272D01*
X139112458Y-67929270D01*
X134592681Y-67929270D01*
X134535010Y-67789697D01*
X134142370Y-67396371D01*
X133934488Y-67310051D01*
X134140303Y-67225010D01*
X134533629Y-66832370D01*
X134746757Y-66319100D01*
X134747242Y-65763339D01*
X134535010Y-65249697D01*
X134142370Y-64856371D01*
X133629100Y-64643243D01*
X133073339Y-64642758D01*
X132559697Y-64854990D01*
X132166371Y-65247630D01*
X131953243Y-65760900D01*
X131952758Y-66316661D01*
X132164990Y-66830303D01*
X132557630Y-67223629D01*
X132765512Y-67309949D01*
X132559697Y-67394990D01*
X132166371Y-67787630D01*
X131953243Y-68300900D01*
X131952758Y-68856661D01*
X132049171Y-69090000D01*
X128444648Y-69090000D01*
X128244415Y-68790330D01*
X127929634Y-68580000D01*
X128244415Y-68369670D01*
X128569271Y-67883489D01*
X128683345Y-67310000D01*
X128569271Y-66736511D01*
X128244415Y-66250330D01*
X127758234Y-65925474D01*
X127184745Y-65811400D01*
X126815255Y-65811400D01*
X126241766Y-65925474D01*
X125755585Y-66250330D01*
X125528581Y-66590065D01*
X125487414Y-66598254D01*
X125439160Y-66607852D01*
X125192599Y-66772599D01*
X124837152Y-67128046D01*
X124759271Y-66736511D01*
X124434415Y-66250330D01*
X123948234Y-65925474D01*
X123374745Y-65811400D01*
X123005255Y-65811400D01*
X122431766Y-65925474D01*
X121945585Y-66250330D01*
X121718581Y-66590065D01*
X121677414Y-66598254D01*
X121629160Y-66607852D01*
X121382599Y-66772599D01*
X121027152Y-67128046D01*
X120949271Y-66736511D01*
X120624415Y-66250330D01*
X120138234Y-65925474D01*
X119564745Y-65811400D01*
X119195255Y-65811400D01*
X118621766Y-65925474D01*
X118135585Y-66250330D01*
X117810729Y-66736511D01*
X117696655Y-67310000D01*
X114427000Y-67310000D01*
X114427000Y-66092606D01*
X116892606Y-63627000D01*
X158697394Y-63627000D01*
X161163000Y-66092606D01*
X161163000Y-66092606D01*
G37*
X161163000Y-66092606D02*
X161163000Y-107897394D01*
X158697394Y-110363000D01*
X116892606Y-110363000D01*
X114427000Y-107897394D01*
X114427000Y-107299270D01*
X114982458Y-107299270D01*
X115457512Y-108448989D01*
X116336384Y-109329396D01*
X117485272Y-109806456D01*
X118729270Y-109807542D01*
X119878989Y-109332488D01*
X120759396Y-108453616D01*
X121236456Y-107304728D01*
X121236460Y-107299270D01*
X154352458Y-107299270D01*
X154827512Y-108448989D01*
X155706384Y-109329396D01*
X156855272Y-109806456D01*
X158099270Y-109807542D01*
X159248989Y-109332488D01*
X160129396Y-108453616D01*
X160606456Y-107304728D01*
X160607542Y-106060730D01*
X160132488Y-104911011D01*
X159253616Y-104030604D01*
X158104728Y-103553544D01*
X156860730Y-103552458D01*
X155711011Y-104027512D01*
X154830604Y-104906384D01*
X154353544Y-106055272D01*
X154352458Y-107299270D01*
X121236460Y-107299270D01*
X121237542Y-106060730D01*
X120762488Y-104911011D01*
X119883616Y-104030604D01*
X118734728Y-103553544D01*
X117490730Y-103552458D01*
X116341011Y-104027512D01*
X115460604Y-104906384D01*
X114983544Y-106055272D01*
X114982458Y-107299270D01*
X114427000Y-107299270D01*
X114427000Y-99314000D01*
X136918960Y-99314000D01*
X136918960Y-101346000D01*
X136963238Y-101581317D01*
X137102310Y-101797441D01*
X137314510Y-101942431D01*
X137566400Y-101993440D01*
X139293600Y-101993440D01*
X139528917Y-101949162D01*
X139745041Y-101810090D01*
X139890031Y-101597890D01*
X139898400Y-101556561D01*
X139910330Y-101574415D01*
X140396511Y-101899271D01*
X140970000Y-102013345D01*
X141543489Y-101899271D01*
X142029670Y-101574415D01*
X142240000Y-101259634D01*
X142450330Y-101574415D01*
X142936511Y-101899271D01*
X143510000Y-102013345D01*
X144083489Y-101899271D01*
X144569670Y-101574415D01*
X144780000Y-101259634D01*
X144990330Y-101574415D01*
X145476511Y-101899271D01*
X146050000Y-102013345D01*
X146623489Y-101899271D01*
X147109670Y-101574415D01*
X147316461Y-101264931D01*
X147687964Y-101680732D01*
X148215209Y-101934709D01*
X148230974Y-101937358D01*
X148463000Y-101816217D01*
X148463000Y-100457000D01*
X148717000Y-100457000D01*
X148717000Y-101816217D01*
X148949026Y-101937358D01*
X148964791Y-101934709D01*
X149492036Y-101680732D01*
X149881954Y-101244320D01*
X150075184Y-100691913D01*
X149930924Y-100457000D01*
X148717000Y-100457000D01*
X148463000Y-100457000D01*
X148443000Y-100457000D01*
X148443000Y-100203000D01*
X148463000Y-100203000D01*
X148463000Y-98843783D01*
X148717000Y-98843783D01*
X148717000Y-100203000D01*
X149930924Y-100203000D01*
X150075184Y-99968087D01*
X149881954Y-99415680D01*
X149492036Y-98979268D01*
X148964791Y-98725291D01*
X148949026Y-98722642D01*
X148717000Y-98843783D01*
X148463000Y-98843783D01*
X148230974Y-98722642D01*
X148215209Y-98725291D01*
X147687964Y-98979268D01*
X147316461Y-99395069D01*
X147109670Y-99085585D01*
X146623489Y-98760729D01*
X146050000Y-98646655D01*
X145476511Y-98760729D01*
X144990330Y-99085585D01*
X144780000Y-99400366D01*
X144569670Y-99085585D01*
X144083489Y-98760729D01*
X143510000Y-98646655D01*
X142936511Y-98760729D01*
X142450330Y-99085585D01*
X142240000Y-99400366D01*
X142029670Y-99085585D01*
X141543489Y-98760729D01*
X140970000Y-98646655D01*
X140396511Y-98760729D01*
X139910330Y-99085585D01*
X139900757Y-99099913D01*
X139896762Y-99078683D01*
X139757690Y-98862559D01*
X139545490Y-98717569D01*
X139293600Y-98666560D01*
X137566400Y-98666560D01*
X137331083Y-98710838D01*
X137114959Y-98849910D01*
X136969969Y-99062110D01*
X136918960Y-99314000D01*
X114427000Y-99314000D01*
X114427000Y-74066400D01*
X117716560Y-74066400D01*
X117716560Y-75793600D01*
X117760838Y-76028917D01*
X117899910Y-76245041D01*
X118112110Y-76390031D01*
X118364000Y-76441040D01*
X120396000Y-76441040D01*
X120631317Y-76396762D01*
X120847441Y-76257690D01*
X120992431Y-76045490D01*
X121043440Y-75793600D01*
X121043440Y-74066400D01*
X121526560Y-74066400D01*
X121526560Y-75793600D01*
X121570838Y-76028917D01*
X121709910Y-76245041D01*
X121922110Y-76390031D01*
X122174000Y-76441040D01*
X124206000Y-76441040D01*
X124441317Y-76396762D01*
X124657441Y-76257690D01*
X124802431Y-76045490D01*
X124853440Y-75793600D01*
X124853440Y-74066400D01*
X125336560Y-74066400D01*
X125336560Y-75793600D01*
X125380838Y-76028917D01*
X125519910Y-76245041D01*
X125732110Y-76390031D01*
X125984000Y-76441040D01*
X128016000Y-76441040D01*
X128251317Y-76396762D01*
X128467441Y-76257690D01*
X128612431Y-76045490D01*
X128663440Y-75793600D01*
X128663440Y-74066400D01*
X128619162Y-73831083D01*
X128480090Y-73614959D01*
X128267890Y-73469969D01*
X128173073Y-73450768D01*
X128350732Y-73292036D01*
X128604709Y-72764791D01*
X128607358Y-72749026D01*
X128486217Y-72517000D01*
X127127000Y-72517000D01*
X127127000Y-72537000D01*
X126873000Y-72537000D01*
X126873000Y-72517000D01*
X125513783Y-72517000D01*
X125392642Y-72749026D01*
X125395291Y-72764791D01*
X125649268Y-73292036D01*
X125824845Y-73448907D01*
X125748683Y-73463238D01*
X125532559Y-73602310D01*
X125387569Y-73814510D01*
X125336560Y-74066400D01*
X124853440Y-74066400D01*
X124809162Y-73831083D01*
X124670090Y-73614959D01*
X124457890Y-73469969D01*
X124363073Y-73450768D01*
X124540732Y-73292036D01*
X124794709Y-72764791D01*
X124797358Y-72749026D01*
X124676217Y-72517000D01*
X123317000Y-72517000D01*
X123317000Y-72537000D01*
X123063000Y-72537000D01*
X123063000Y-72517000D01*
X121703783Y-72517000D01*
X121582642Y-72749026D01*
X121585291Y-72764791D01*
X121839268Y-73292036D01*
X122014845Y-73448907D01*
X121938683Y-73463238D01*
X121722559Y-73602310D01*
X121577569Y-73814510D01*
X121526560Y-74066400D01*
X121043440Y-74066400D01*
X120999162Y-73831083D01*
X120860090Y-73614959D01*
X120647890Y-73469969D01*
X120553073Y-73450768D01*
X120730732Y-73292036D01*
X120984709Y-72764791D01*
X120987358Y-72749026D01*
X120866217Y-72517000D01*
X119507000Y-72517000D01*
X119507000Y-72537000D01*
X119253000Y-72537000D01*
X119253000Y-72517000D01*
X117893783Y-72517000D01*
X117772642Y-72749026D01*
X117775291Y-72764791D01*
X118029268Y-73292036D01*
X118204845Y-73448907D01*
X118128683Y-73463238D01*
X117912559Y-73602310D01*
X117767569Y-73814510D01*
X117716560Y-74066400D01*
X114427000Y-74066400D01*
X114427000Y-67310000D01*
X117696655Y-67310000D01*
X117810729Y-67883489D01*
X118135585Y-68369670D01*
X118450366Y-68580000D01*
X118135585Y-68790330D01*
X117810729Y-69276511D01*
X117696655Y-69850000D01*
X117810729Y-70423489D01*
X118135585Y-70909670D01*
X118445069Y-71116461D01*
X118029268Y-71487964D01*
X117775291Y-72015209D01*
X117772642Y-72030974D01*
X117893783Y-72263000D01*
X119253000Y-72263000D01*
X119253000Y-72243000D01*
X119507000Y-72243000D01*
X119507000Y-72263000D01*
X120866217Y-72263000D01*
X120987358Y-72030974D01*
X120984709Y-72015209D01*
X120730732Y-71487964D01*
X120314931Y-71116461D01*
X120624415Y-70909670D01*
X120949271Y-70423489D01*
X121063345Y-69850000D01*
X120962381Y-69342421D01*
X121941398Y-68363404D01*
X121945585Y-68369670D01*
X122260366Y-68580000D01*
X121945585Y-68790330D01*
X121620729Y-69276511D01*
X121506655Y-69850000D01*
X121620729Y-70423489D01*
X121945585Y-70909670D01*
X122255069Y-71116461D01*
X121839268Y-71487964D01*
X121585291Y-72015209D01*
X121582642Y-72030974D01*
X121703783Y-72263000D01*
X123063000Y-72263000D01*
X123063000Y-72243000D01*
X123317000Y-72243000D01*
X123317000Y-72263000D01*
X124676217Y-72263000D01*
X124797358Y-72030974D01*
X124794709Y-72015209D01*
X124540732Y-71487964D01*
X124124931Y-71116461D01*
X124434415Y-70909670D01*
X124759271Y-70423489D01*
X124873345Y-69850000D01*
X124772381Y-69342421D01*
X125751398Y-68363404D01*
X125755585Y-68369670D01*
X126070366Y-68580000D01*
X125755585Y-68790330D01*
X125430729Y-69276511D01*
X125316655Y-69850000D01*
X125430729Y-70423489D01*
X125755585Y-70909670D01*
X126065069Y-71116461D01*
X125649268Y-71487964D01*
X125395291Y-72015209D01*
X125392642Y-72030974D01*
X125513783Y-72263000D01*
X126873000Y-72263000D01*
X126873000Y-72243000D01*
X127127000Y-72243000D01*
X127127000Y-72263000D01*
X128486217Y-72263000D01*
X128607358Y-72030974D01*
X128604709Y-72015209D01*
X128350732Y-71487964D01*
X127934931Y-71116461D01*
X128244415Y-70909670D01*
X128444648Y-70610000D01*
X132049121Y-70610000D01*
X131953243Y-70840900D01*
X131952758Y-71396661D01*
X132164990Y-71910303D01*
X132557630Y-72303629D01*
X132765512Y-72389949D01*
X132559697Y-72474990D01*
X132166371Y-72867630D01*
X131953243Y-73380900D01*
X131952758Y-73936661D01*
X132164990Y-74450303D01*
X132557630Y-74843629D01*
X132765512Y-74929949D01*
X132559697Y-75014990D01*
X132166371Y-75407630D01*
X131953243Y-75920900D01*
X131952758Y-76476661D01*
X132164990Y-76990303D01*
X132557630Y-77383629D01*
X132765512Y-77469949D01*
X132559697Y-77554990D01*
X132166371Y-77947630D01*
X131953243Y-78460900D01*
X131952758Y-79016661D01*
X132164990Y-79530303D01*
X132557630Y-79923629D01*
X132765512Y-80009949D01*
X132559697Y-80094990D01*
X132166371Y-80487630D01*
X131953243Y-81000900D01*
X131952758Y-81556661D01*
X132164990Y-82070303D01*
X132557630Y-82463629D01*
X132765512Y-82549949D01*
X132559697Y-82634990D01*
X132166371Y-83027630D01*
X131953243Y-83540900D01*
X131952758Y-84096661D01*
X132164990Y-84610303D01*
X132557630Y-85003629D01*
X132765512Y-85089949D01*
X132559697Y-85174990D01*
X132166371Y-85567630D01*
X131953243Y-86080900D01*
X131952940Y-86428138D01*
X130300000Y-84775198D01*
X130300000Y-80010000D01*
X130242148Y-79719161D01*
X130077401Y-79472599D01*
X129830839Y-79307852D01*
X129540000Y-79250000D01*
X126715105Y-79250000D01*
X126624090Y-79108559D01*
X126411890Y-78963569D01*
X126160000Y-78912560D01*
X124960000Y-78912560D01*
X124724683Y-78956838D01*
X124508559Y-79095910D01*
X124460866Y-79165711D01*
X124424090Y-79108559D01*
X124211890Y-78963569D01*
X123960000Y-78912560D01*
X122760000Y-78912560D01*
X122524683Y-78956838D01*
X122308559Y-79095910D01*
X122203274Y-79250000D01*
X120824648Y-79250000D01*
X120624415Y-78950330D01*
X120138234Y-78625474D01*
X119564745Y-78511400D01*
X119195255Y-78511400D01*
X118621766Y-78625474D01*
X118135585Y-78950330D01*
X117810729Y-79436511D01*
X117696655Y-80010000D01*
X117810729Y-80583489D01*
X118135585Y-81069670D01*
X118450366Y-81280000D01*
X118135585Y-81490330D01*
X117810729Y-81976511D01*
X117696655Y-82550000D01*
X117810729Y-83123489D01*
X118135585Y-83609670D01*
X118450366Y-83820000D01*
X118135585Y-84030330D01*
X117810729Y-84516511D01*
X117696655Y-85090000D01*
X117810729Y-85663489D01*
X118135585Y-86149670D01*
X118450366Y-86360000D01*
X118135585Y-86570330D01*
X117810729Y-87056511D01*
X117696655Y-87630000D01*
X117810729Y-88203489D01*
X118135585Y-88689670D01*
X118450366Y-88900000D01*
X118135585Y-89110330D01*
X117810729Y-89596511D01*
X117696655Y-90170000D01*
X117810729Y-90743489D01*
X118135585Y-91229670D01*
X118445069Y-91436461D01*
X118029268Y-91807964D01*
X117775291Y-92335209D01*
X117772642Y-92350974D01*
X117893783Y-92583000D01*
X119253000Y-92583000D01*
X119253000Y-92563000D01*
X119507000Y-92563000D01*
X119507000Y-92583000D01*
X120866217Y-92583000D01*
X120987358Y-92350974D01*
X120984709Y-92335209D01*
X120730732Y-91807964D01*
X120314931Y-91436461D01*
X120624415Y-91229670D01*
X120824648Y-90930000D01*
X122204895Y-90930000D01*
X122295910Y-91071441D01*
X122508110Y-91216431D01*
X122760000Y-91267440D01*
X123960000Y-91267440D01*
X124195317Y-91223162D01*
X124411441Y-91084090D01*
X124459134Y-91014289D01*
X124495910Y-91071441D01*
X124708110Y-91216431D01*
X124960000Y-91267440D01*
X125582638Y-91267440D01*
X130075198Y-95760000D01*
X127144802Y-95760000D01*
X126807440Y-95422638D01*
X126807440Y-94800000D01*
X126763162Y-94564683D01*
X126624090Y-94348559D01*
X126411890Y-94203569D01*
X126160000Y-94152560D01*
X124960000Y-94152560D01*
X124724683Y-94196838D01*
X124508559Y-94335910D01*
X124460866Y-94405711D01*
X124424090Y-94348559D01*
X124211890Y-94203569D01*
X123960000Y-94152560D01*
X122760000Y-94152560D01*
X122524683Y-94196838D01*
X122308559Y-94335910D01*
X122203274Y-94490000D01*
X120824648Y-94490000D01*
X120624415Y-94190330D01*
X120314931Y-93983539D01*
X120730732Y-93612036D01*
X120984709Y-93084791D01*
X120987358Y-93069026D01*
X120866217Y-92837000D01*
X119507000Y-92837000D01*
X119507000Y-92857000D01*
X119253000Y-92857000D01*
X119253000Y-92837000D01*
X117893783Y-92837000D01*
X117772642Y-93069026D01*
X117775291Y-93084791D01*
X118029268Y-93612036D01*
X118445069Y-93983539D01*
X118135585Y-94190330D01*
X117810729Y-94676511D01*
X117696655Y-95250000D01*
X117810729Y-95823489D01*
X118135585Y-96309670D01*
X118149913Y-96319243D01*
X118128683Y-96323238D01*
X117912559Y-96462310D01*
X117767569Y-96674510D01*
X117716560Y-96926400D01*
X117716560Y-98653600D01*
X117760838Y-98888917D01*
X117899910Y-99105041D01*
X118112110Y-99250031D01*
X118364000Y-99301040D01*
X120396000Y-99301040D01*
X120631317Y-99256762D01*
X120847441Y-99117690D01*
X120992431Y-98905490D01*
X121043440Y-98653600D01*
X121043440Y-97942400D01*
X154444960Y-97942400D01*
X154444960Y-100177600D01*
X154489238Y-100412917D01*
X154628310Y-100629041D01*
X154840510Y-100774031D01*
X155092400Y-100825040D01*
X157327600Y-100825040D01*
X157562917Y-100780762D01*
X157779041Y-100641690D01*
X157924031Y-100429490D01*
X157975040Y-100177600D01*
X157975040Y-99820000D01*
X158750000Y-99820000D01*
X159040839Y-99762148D01*
X159287401Y-99597401D01*
X159452148Y-99350839D01*
X159510000Y-99060000D01*
X159510000Y-71120000D01*
X159452148Y-70829161D01*
X159287401Y-70582599D01*
X159040839Y-70417852D01*
X158750000Y-70360000D01*
X157654648Y-70360000D01*
X157454415Y-70060330D01*
X157440087Y-70050757D01*
X157461317Y-70046762D01*
X157677441Y-69907690D01*
X157822431Y-69695490D01*
X157873440Y-69443600D01*
X157873440Y-67716400D01*
X157829162Y-67481083D01*
X157690090Y-67264959D01*
X157477890Y-67119969D01*
X157226000Y-67068960D01*
X155194000Y-67068960D01*
X154958683Y-67113238D01*
X154742559Y-67252310D01*
X154597569Y-67464510D01*
X154546560Y-67716400D01*
X154546560Y-69443600D01*
X154590838Y-69678917D01*
X154729910Y-69895041D01*
X154942110Y-70040031D01*
X154983439Y-70048400D01*
X154965585Y-70060330D01*
X154640729Y-70546511D01*
X154526655Y-71120000D01*
X154640729Y-71693489D01*
X154965585Y-72179670D01*
X155275069Y-72386461D01*
X154859268Y-72757964D01*
X154605291Y-73285209D01*
X154602642Y-73300974D01*
X154723783Y-73533000D01*
X156083000Y-73533000D01*
X156083000Y-73513000D01*
X156337000Y-73513000D01*
X156337000Y-73533000D01*
X157696217Y-73533000D01*
X157817358Y-73300974D01*
X157814709Y-73285209D01*
X157560732Y-72757964D01*
X157144931Y-72386461D01*
X157454415Y-72179670D01*
X157654648Y-71880000D01*
X157990000Y-71880000D01*
X157990000Y-98300000D01*
X157975040Y-98300000D01*
X157975040Y-97942400D01*
X157930762Y-97707083D01*
X157791690Y-97490959D01*
X157579490Y-97345969D01*
X157327600Y-97294960D01*
X155092400Y-97294960D01*
X154857083Y-97339238D01*
X154640959Y-97478310D01*
X154495969Y-97690510D01*
X154444960Y-97942400D01*
X121043440Y-97942400D01*
X121043440Y-96926400D01*
X120999162Y-96691083D01*
X120860090Y-96474959D01*
X120647890Y-96329969D01*
X120606561Y-96321600D01*
X120624415Y-96309670D01*
X120824648Y-96010000D01*
X122204895Y-96010000D01*
X122295910Y-96151441D01*
X122508110Y-96296431D01*
X122760000Y-96347440D01*
X123960000Y-96347440D01*
X124195317Y-96303162D01*
X124411441Y-96164090D01*
X124459134Y-96094289D01*
X124495910Y-96151441D01*
X124708110Y-96296431D01*
X124960000Y-96347440D01*
X125582638Y-96347440D01*
X126292599Y-97057401D01*
X126539160Y-97222148D01*
X126830000Y-97280000D01*
X148590000Y-97280000D01*
X148880839Y-97222148D01*
X149127401Y-97057401D01*
X150820619Y-95364183D01*
X150850900Y-95376757D01*
X151406661Y-95377242D01*
X151920303Y-95165010D01*
X152313629Y-94772370D01*
X152526757Y-94259100D01*
X152527242Y-93703339D01*
X152315010Y-93189697D01*
X151922370Y-92796371D01*
X151714488Y-92710051D01*
X151920303Y-92625010D01*
X152313629Y-92232370D01*
X152526757Y-91719100D01*
X152527242Y-91163339D01*
X152315010Y-90649697D01*
X151922370Y-90256371D01*
X151714488Y-90170051D01*
X151920303Y-90085010D01*
X152313629Y-89692370D01*
X152327070Y-89660000D01*
X154765352Y-89660000D01*
X154965585Y-89959670D01*
X155280366Y-90170000D01*
X154965585Y-90380330D01*
X154640729Y-90866511D01*
X154526655Y-91440000D01*
X154640729Y-92013489D01*
X154965585Y-92499670D01*
X155450000Y-92823346D01*
X155450000Y-93484960D01*
X155092400Y-93484960D01*
X154857083Y-93529238D01*
X154640959Y-93668310D01*
X154495969Y-93880510D01*
X154444960Y-94132400D01*
X154444960Y-96367600D01*
X154489238Y-96602917D01*
X154628310Y-96819041D01*
X154840510Y-96964031D01*
X155092400Y-97015040D01*
X157327600Y-97015040D01*
X157562917Y-96970762D01*
X157779041Y-96831690D01*
X157924031Y-96619490D01*
X157975040Y-96367600D01*
X157975040Y-94132400D01*
X157930762Y-93897083D01*
X157791690Y-93680959D01*
X157579490Y-93535969D01*
X157327600Y-93484960D01*
X156970000Y-93484960D01*
X156970000Y-92823346D01*
X157454415Y-92499670D01*
X157779271Y-92013489D01*
X157893345Y-91440000D01*
X157779271Y-90866511D01*
X157454415Y-90380330D01*
X157139634Y-90170000D01*
X157454415Y-89959670D01*
X157779271Y-89473489D01*
X157893345Y-88900000D01*
X157779271Y-88326511D01*
X157454415Y-87840330D01*
X157139634Y-87630000D01*
X157454415Y-87419670D01*
X157779271Y-86933489D01*
X157893345Y-86360000D01*
X157779271Y-85786511D01*
X157454415Y-85300330D01*
X157139634Y-85090000D01*
X157454415Y-84879670D01*
X157779271Y-84393489D01*
X157893345Y-83820000D01*
X157779271Y-83246511D01*
X157454415Y-82760330D01*
X157139634Y-82550000D01*
X157454415Y-82339670D01*
X157779271Y-81853489D01*
X157893345Y-81280000D01*
X157779271Y-80706511D01*
X157454415Y-80220330D01*
X157139634Y-80010000D01*
X157454415Y-79799670D01*
X157779271Y-79313489D01*
X157893345Y-78740000D01*
X157779271Y-78166511D01*
X157454415Y-77680330D01*
X157139634Y-77470000D01*
X157454415Y-77259670D01*
X157779271Y-76773489D01*
X157893345Y-76200000D01*
X157779271Y-75626511D01*
X157454415Y-75140330D01*
X157144931Y-74933539D01*
X157560732Y-74562036D01*
X157814709Y-74034791D01*
X157817358Y-74019026D01*
X157696217Y-73787000D01*
X156337000Y-73787000D01*
X156337000Y-73807000D01*
X156083000Y-73807000D01*
X156083000Y-73787000D01*
X154723783Y-73787000D01*
X154602642Y-74019026D01*
X154605291Y-74034791D01*
X154859268Y-74562036D01*
X155275069Y-74933539D01*
X154965585Y-75140330D01*
X154765352Y-75440000D01*
X152327531Y-75440000D01*
X152315010Y-75409697D01*
X151922370Y-75016371D01*
X151730273Y-74936605D01*
X151861143Y-74882397D01*
X151930608Y-74640213D01*
X151130000Y-73839605D01*
X150329392Y-74640213D01*
X150398857Y-74882397D01*
X150539318Y-74932509D01*
X150339697Y-75014990D01*
X149946371Y-75407630D01*
X149733243Y-75920900D01*
X149732758Y-76476661D01*
X149944990Y-76990303D01*
X150337630Y-77383629D01*
X150545512Y-77469949D01*
X150339697Y-77554990D01*
X149946371Y-77947630D01*
X149733243Y-78460900D01*
X149732758Y-79016661D01*
X149944990Y-79530303D01*
X150337630Y-79923629D01*
X150545512Y-80009949D01*
X150339697Y-80094990D01*
X149946371Y-80487630D01*
X149733243Y-81000900D01*
X149732758Y-81556661D01*
X149944990Y-82070303D01*
X150337630Y-82463629D01*
X150545512Y-82549949D01*
X150339697Y-82634990D01*
X149946371Y-83027630D01*
X149733243Y-83540900D01*
X149732758Y-84096661D01*
X149944990Y-84610303D01*
X150337630Y-85003629D01*
X150545512Y-85089949D01*
X150339697Y-85174990D01*
X149946371Y-85567630D01*
X149733243Y-86080900D01*
X149732758Y-86636661D01*
X149944990Y-87150303D01*
X150337630Y-87543629D01*
X150545512Y-87629949D01*
X150339697Y-87714990D01*
X149946371Y-88107630D01*
X149733243Y-88620900D01*
X149732758Y-89176661D01*
X149944990Y-89690303D01*
X150337630Y-90083629D01*
X150545512Y-90169949D01*
X150339697Y-90254990D01*
X149946371Y-90647630D01*
X149932930Y-90680000D01*
X147320000Y-90680000D01*
X147029160Y-90737852D01*
X146782599Y-90902599D01*
X145735198Y-91950000D01*
X134650879Y-91950000D01*
X134746757Y-91719100D01*
X134747242Y-91163339D01*
X134535010Y-90649697D01*
X134142370Y-90256371D01*
X133934488Y-90170051D01*
X134140303Y-90085010D01*
X134533629Y-89692370D01*
X134746757Y-89179100D01*
X134747242Y-88623339D01*
X134535010Y-88109697D01*
X134142370Y-87716371D01*
X133934488Y-87630051D01*
X134140303Y-87545010D01*
X134533629Y-87152370D01*
X134746757Y-86639100D01*
X134747242Y-86083339D01*
X134535010Y-85569697D01*
X134142370Y-85176371D01*
X133934488Y-85090051D01*
X134140303Y-85005010D01*
X134533629Y-84612370D01*
X134746757Y-84099100D01*
X134747242Y-83543339D01*
X134535010Y-83029697D01*
X134142370Y-82636371D01*
X133934488Y-82550051D01*
X134140303Y-82465010D01*
X134533629Y-82072370D01*
X134547070Y-82040000D01*
X135890000Y-82040000D01*
X136180839Y-81982148D01*
X136427401Y-81817401D01*
X136592148Y-81570839D01*
X136650000Y-81280000D01*
X136650000Y-73452302D01*
X149720856Y-73452302D01*
X149748638Y-74007368D01*
X149907603Y-74391143D01*
X150149787Y-74460608D01*
X150950395Y-73660000D01*
X151309605Y-73660000D01*
X152110213Y-74460608D01*
X152352397Y-74391143D01*
X152539144Y-73867698D01*
X152511362Y-73312632D01*
X152352397Y-72928857D01*
X152110213Y-72859392D01*
X151309605Y-73660000D01*
X150950395Y-73660000D01*
X150149787Y-72859392D01*
X149907603Y-72928857D01*
X149720856Y-73452302D01*
X136650000Y-73452302D01*
X136650000Y-69850000D01*
X136592148Y-69559161D01*
X136427401Y-69312599D01*
X136180839Y-69147852D01*
X135890000Y-69090000D01*
X134650879Y-69090000D01*
X134746757Y-68859100D01*
X134747242Y-68303339D01*
X134592681Y-67929270D01*
X139112458Y-67929270D01*
X139587512Y-69078989D01*
X140466384Y-69959396D01*
X141615272Y-70436456D01*
X142859270Y-70437542D01*
X144008989Y-69962488D01*
X144889396Y-69083616D01*
X145366456Y-67934728D01*
X145367542Y-66690730D01*
X145212980Y-66316661D01*
X149732758Y-66316661D01*
X149944990Y-66830303D01*
X150337630Y-67223629D01*
X150545512Y-67309949D01*
X150339697Y-67394990D01*
X149946371Y-67787630D01*
X149733243Y-68300900D01*
X149732758Y-68856661D01*
X149944990Y-69370303D01*
X150337630Y-69763629D01*
X150545512Y-69849949D01*
X150339697Y-69934990D01*
X149946371Y-70327630D01*
X149733243Y-70840900D01*
X149732758Y-71396661D01*
X149944990Y-71910303D01*
X150337630Y-72303629D01*
X150529727Y-72383395D01*
X150398857Y-72437603D01*
X150329392Y-72679787D01*
X151130000Y-73480395D01*
X151930608Y-72679787D01*
X151861143Y-72437603D01*
X151720682Y-72387491D01*
X151920303Y-72305010D01*
X152313629Y-71912370D01*
X152526757Y-71399100D01*
X152527242Y-70843339D01*
X152315010Y-70329697D01*
X151922370Y-69936371D01*
X151714488Y-69850051D01*
X151920303Y-69765010D01*
X152313629Y-69372370D01*
X152526757Y-68859100D01*
X152527242Y-68303339D01*
X152315010Y-67789697D01*
X151922370Y-67396371D01*
X151714488Y-67310051D01*
X151920303Y-67225010D01*
X152313629Y-66832370D01*
X152526757Y-66319100D01*
X152527242Y-65763339D01*
X152315010Y-65249697D01*
X151922370Y-64856371D01*
X151409100Y-64643243D01*
X150853339Y-64642758D01*
X150339697Y-64854990D01*
X149946371Y-65247630D01*
X149733243Y-65760900D01*
X149732758Y-66316661D01*
X145212980Y-66316661D01*
X144892488Y-65541011D01*
X144013616Y-64660604D01*
X142864728Y-64183544D01*
X141620730Y-64182458D01*
X140471011Y-64657512D01*
X139590604Y-65536384D01*
X139113544Y-66685272D01*
X139112458Y-67929270D01*
X134592681Y-67929270D01*
X134535010Y-67789697D01*
X134142370Y-67396371D01*
X133934488Y-67310051D01*
X134140303Y-67225010D01*
X134533629Y-66832370D01*
X134746757Y-66319100D01*
X134747242Y-65763339D01*
X134535010Y-65249697D01*
X134142370Y-64856371D01*
X133629100Y-64643243D01*
X133073339Y-64642758D01*
X132559697Y-64854990D01*
X132166371Y-65247630D01*
X131953243Y-65760900D01*
X131952758Y-66316661D01*
X132164990Y-66830303D01*
X132557630Y-67223629D01*
X132765512Y-67309949D01*
X132559697Y-67394990D01*
X132166371Y-67787630D01*
X131953243Y-68300900D01*
X131952758Y-68856661D01*
X132049171Y-69090000D01*
X128444648Y-69090000D01*
X128244415Y-68790330D01*
X127929634Y-68580000D01*
X128244415Y-68369670D01*
X128569271Y-67883489D01*
X128683345Y-67310000D01*
X128569271Y-66736511D01*
X128244415Y-66250330D01*
X127758234Y-65925474D01*
X127184745Y-65811400D01*
X126815255Y-65811400D01*
X126241766Y-65925474D01*
X125755585Y-66250330D01*
X125528581Y-66590065D01*
X125487414Y-66598254D01*
X125439160Y-66607852D01*
X125192599Y-66772599D01*
X124837152Y-67128046D01*
X124759271Y-66736511D01*
X124434415Y-66250330D01*
X123948234Y-65925474D01*
X123374745Y-65811400D01*
X123005255Y-65811400D01*
X122431766Y-65925474D01*
X121945585Y-66250330D01*
X121718581Y-66590065D01*
X121677414Y-66598254D01*
X121629160Y-66607852D01*
X121382599Y-66772599D01*
X121027152Y-67128046D01*
X120949271Y-66736511D01*
X120624415Y-66250330D01*
X120138234Y-65925474D01*
X119564745Y-65811400D01*
X119195255Y-65811400D01*
X118621766Y-65925474D01*
X118135585Y-66250330D01*
X117810729Y-66736511D01*
X117696655Y-67310000D01*
X114427000Y-67310000D01*
X114427000Y-66092606D01*
X116892606Y-63627000D01*
X158697394Y-63627000D01*
X161163000Y-66092606D01*
M02*
