G04 #@! TF.FileFunction,Copper,L2,Bot,Signal*
%FSLAX46Y46*%
G04 Gerber Fmt 4.6, Leading zero omitted, Abs format (unit mm)*
G04 Created by KiCad (PCBNEW 4.0.2-stable) date 07.07.2016 20:55:51*
%MOMM*%
G01*
G04 APERTURE LIST*
%ADD10C,0.100000*%
%ADD11R,2.032000X1.727200*%
%ADD12O,2.032000X1.727200*%
%ADD13R,1.727200X2.032000*%
%ADD14O,1.727200X2.032000*%
%ADD15R,2.235200X2.235200*%
%ADD16C,1.524000*%
%ADD17C,3.000000*%
%ADD18C,0.600000*%
%ADD19C,0.250000*%
%ADD20C,0.254000*%
G04 APERTURE END LIST*
D10*
D11*
X119380000Y-97790000D03*
D12*
X119380000Y-95250000D03*
X119380000Y-92710000D03*
X119380000Y-90170000D03*
X119380000Y-87630000D03*
X119380000Y-85090000D03*
X119380000Y-82550000D03*
X119380000Y-80010000D03*
D13*
X138430000Y-100330000D03*
D14*
X140970000Y-100330000D03*
X143510000Y-100330000D03*
X146050000Y-100330000D03*
X148590000Y-100330000D03*
D11*
X119380000Y-74930000D03*
D12*
X119380000Y-72390000D03*
X119380000Y-69850000D03*
X119380000Y-67310000D03*
D11*
X123190000Y-74930000D03*
D12*
X123190000Y-72390000D03*
X123190000Y-69850000D03*
X123190000Y-67310000D03*
D11*
X127000000Y-74930000D03*
D12*
X127000000Y-72390000D03*
X127000000Y-69850000D03*
X127000000Y-67310000D03*
D15*
X156210000Y-99060000D03*
X156210000Y-95250000D03*
D11*
X156210000Y-68580000D03*
D12*
X156210000Y-71120000D03*
X156210000Y-73660000D03*
X156210000Y-76200000D03*
X156210000Y-78740000D03*
X156210000Y-81280000D03*
X156210000Y-83820000D03*
X156210000Y-86360000D03*
X156210000Y-88900000D03*
X156210000Y-91440000D03*
D16*
X133350000Y-66040000D03*
X133350000Y-68580000D03*
X133350000Y-71120000D03*
X133350000Y-73660000D03*
X133350000Y-76200000D03*
X133350000Y-78740000D03*
X133350000Y-81280000D03*
X133350000Y-83820000D03*
X133350000Y-86360000D03*
X133350000Y-88900000D03*
X133350000Y-91440000D03*
X133350000Y-93980000D03*
X151130000Y-93980000D03*
X151130000Y-91440000D03*
X151130000Y-88900000D03*
X151130000Y-86360000D03*
X151130000Y-83820000D03*
X151130000Y-81280000D03*
X151130000Y-78740000D03*
X151130000Y-76200000D03*
X151130000Y-73660000D03*
X151130000Y-71120000D03*
X151130000Y-68580000D03*
X151130000Y-66040000D03*
D17*
X142240000Y-67310000D03*
X157480000Y-106680000D03*
X118110000Y-106680000D03*
D18*
X128270000Y-82550000D03*
X151130000Y-91440000D03*
X148590000Y-92710000D03*
D19*
X133350000Y-76200000D02*
X140970000Y-76200000D01*
X154940000Y-85090000D02*
X156210000Y-86360000D01*
X149860000Y-85090000D02*
X154940000Y-85090000D01*
X140970000Y-76200000D02*
X149860000Y-85090000D01*
X143510000Y-100330000D02*
X143510000Y-88900000D01*
X143510000Y-88900000D02*
X133350000Y-78740000D01*
X140970000Y-100330000D02*
X140970000Y-91440000D01*
X140970000Y-91440000D02*
X133350000Y-83820000D01*
X138430000Y-100330000D02*
X138430000Y-91440000D01*
X138430000Y-91440000D02*
X133350000Y-86360000D01*
X128270000Y-93980000D02*
X133350000Y-93980000D01*
X128270000Y-82550000D02*
X128270000Y-93980000D01*
X128270000Y-82550000D02*
X128270000Y-82550000D01*
X148590000Y-88900000D02*
X151130000Y-86360000D01*
X148590000Y-92710000D02*
X148590000Y-88900000D01*
D20*
G36*
X161163000Y-66092606D02*
X161163000Y-107897394D01*
X158697394Y-110363000D01*
X116892606Y-110363000D01*
X114427000Y-107897394D01*
X114427000Y-107299270D01*
X114982458Y-107299270D01*
X115457512Y-108448989D01*
X116336384Y-109329396D01*
X117485272Y-109806456D01*
X118729270Y-109807542D01*
X119878989Y-109332488D01*
X120759396Y-108453616D01*
X121236456Y-107304728D01*
X121236460Y-107299270D01*
X154352458Y-107299270D01*
X154827512Y-108448989D01*
X155706384Y-109329396D01*
X156855272Y-109806456D01*
X158099270Y-109807542D01*
X159248989Y-109332488D01*
X160129396Y-108453616D01*
X160606456Y-107304728D01*
X160607542Y-106060730D01*
X160132488Y-104911011D01*
X159253616Y-104030604D01*
X158104728Y-103553544D01*
X156860730Y-103552458D01*
X155711011Y-104027512D01*
X154830604Y-104906384D01*
X154353544Y-106055272D01*
X154352458Y-107299270D01*
X121236460Y-107299270D01*
X121237542Y-106060730D01*
X120762488Y-104911011D01*
X119883616Y-104030604D01*
X118734728Y-103553544D01*
X117490730Y-103552458D01*
X116341011Y-104027512D01*
X115460604Y-104906384D01*
X114983544Y-106055272D01*
X114982458Y-107299270D01*
X114427000Y-107299270D01*
X114427000Y-98075750D01*
X117729000Y-98075750D01*
X117729000Y-98779910D01*
X117825673Y-99013299D01*
X118004302Y-99191927D01*
X118237691Y-99288600D01*
X119094250Y-99288600D01*
X119253000Y-99129850D01*
X119253000Y-97917000D01*
X119507000Y-97917000D01*
X119507000Y-99129850D01*
X119665750Y-99288600D01*
X120522309Y-99288600D01*
X120755698Y-99191927D01*
X120934327Y-99013299D01*
X121031000Y-98779910D01*
X121031000Y-98075750D01*
X120872250Y-97917000D01*
X119507000Y-97917000D01*
X119253000Y-97917000D01*
X117887750Y-97917000D01*
X117729000Y-98075750D01*
X114427000Y-98075750D01*
X114427000Y-80010000D01*
X117696655Y-80010000D01*
X117810729Y-80583489D01*
X118135585Y-81069670D01*
X118450366Y-81280000D01*
X118135585Y-81490330D01*
X117810729Y-81976511D01*
X117696655Y-82550000D01*
X117810729Y-83123489D01*
X118135585Y-83609670D01*
X118450366Y-83820000D01*
X118135585Y-84030330D01*
X117810729Y-84516511D01*
X117696655Y-85090000D01*
X117810729Y-85663489D01*
X118135585Y-86149670D01*
X118450366Y-86360000D01*
X118135585Y-86570330D01*
X117810729Y-87056511D01*
X117696655Y-87630000D01*
X117810729Y-88203489D01*
X118135585Y-88689670D01*
X118450366Y-88900000D01*
X118135585Y-89110330D01*
X117810729Y-89596511D01*
X117696655Y-90170000D01*
X117810729Y-90743489D01*
X118135585Y-91229670D01*
X118450366Y-91440000D01*
X118135585Y-91650330D01*
X117810729Y-92136511D01*
X117696655Y-92710000D01*
X117810729Y-93283489D01*
X118135585Y-93769670D01*
X118450366Y-93980000D01*
X118135585Y-94190330D01*
X117810729Y-94676511D01*
X117696655Y-95250000D01*
X117810729Y-95823489D01*
X118135585Y-96309670D01*
X118157780Y-96324500D01*
X118004302Y-96388073D01*
X117825673Y-96566701D01*
X117729000Y-96800090D01*
X117729000Y-97504250D01*
X117887750Y-97663000D01*
X119253000Y-97663000D01*
X119253000Y-97643000D01*
X119507000Y-97643000D01*
X119507000Y-97663000D01*
X120872250Y-97663000D01*
X121031000Y-97504250D01*
X121031000Y-96800090D01*
X120934327Y-96566701D01*
X120755698Y-96388073D01*
X120602220Y-96324500D01*
X120624415Y-96309670D01*
X120949271Y-95823489D01*
X121063345Y-95250000D01*
X120949271Y-94676511D01*
X120624415Y-94190330D01*
X120309634Y-93980000D01*
X120624415Y-93769670D01*
X120949271Y-93283489D01*
X121063345Y-92710000D01*
X120949271Y-92136511D01*
X120624415Y-91650330D01*
X120309634Y-91440000D01*
X120624415Y-91229670D01*
X120949271Y-90743489D01*
X121063345Y-90170000D01*
X120949271Y-89596511D01*
X120624415Y-89110330D01*
X120309634Y-88900000D01*
X120624415Y-88689670D01*
X120949271Y-88203489D01*
X121063345Y-87630000D01*
X120949271Y-87056511D01*
X120624415Y-86570330D01*
X120309634Y-86360000D01*
X120624415Y-86149670D01*
X120949271Y-85663489D01*
X121063345Y-85090000D01*
X120949271Y-84516511D01*
X120624415Y-84030330D01*
X120309634Y-83820000D01*
X120624415Y-83609670D01*
X120949271Y-83123489D01*
X121026513Y-82735167D01*
X127334838Y-82735167D01*
X127476883Y-83078943D01*
X127510000Y-83112118D01*
X127510000Y-93980000D01*
X127567852Y-94270839D01*
X127732599Y-94517401D01*
X127979161Y-94682148D01*
X128270000Y-94740000D01*
X132152469Y-94740000D01*
X132164990Y-94770303D01*
X132557630Y-95163629D01*
X133070900Y-95376757D01*
X133626661Y-95377242D01*
X134140303Y-95165010D01*
X134533629Y-94772370D01*
X134746757Y-94259100D01*
X134747242Y-93703339D01*
X134535010Y-93189697D01*
X134142370Y-92796371D01*
X133934488Y-92710051D01*
X134140303Y-92625010D01*
X134533629Y-92232370D01*
X134746757Y-91719100D01*
X134747242Y-91163339D01*
X134535010Y-90649697D01*
X134142370Y-90256371D01*
X133934488Y-90170051D01*
X134140303Y-90085010D01*
X134533629Y-89692370D01*
X134746757Y-89179100D01*
X134747060Y-88831862D01*
X137670000Y-91754802D01*
X137670000Y-98666560D01*
X137566400Y-98666560D01*
X137331083Y-98710838D01*
X137114959Y-98849910D01*
X136969969Y-99062110D01*
X136918960Y-99314000D01*
X136918960Y-101346000D01*
X136963238Y-101581317D01*
X137102310Y-101797441D01*
X137314510Y-101942431D01*
X137566400Y-101993440D01*
X139293600Y-101993440D01*
X139528917Y-101949162D01*
X139745041Y-101810090D01*
X139890031Y-101597890D01*
X139898400Y-101556561D01*
X139910330Y-101574415D01*
X140396511Y-101899271D01*
X140970000Y-102013345D01*
X141543489Y-101899271D01*
X142029670Y-101574415D01*
X142240000Y-101259634D01*
X142450330Y-101574415D01*
X142936511Y-101899271D01*
X143510000Y-102013345D01*
X144083489Y-101899271D01*
X144569670Y-101574415D01*
X144776461Y-101264931D01*
X145147964Y-101680732D01*
X145675209Y-101934709D01*
X145690974Y-101937358D01*
X145923000Y-101816217D01*
X145923000Y-100457000D01*
X145903000Y-100457000D01*
X145903000Y-100203000D01*
X145923000Y-100203000D01*
X145923000Y-98843783D01*
X146177000Y-98843783D01*
X146177000Y-100203000D01*
X146197000Y-100203000D01*
X146197000Y-100457000D01*
X146177000Y-100457000D01*
X146177000Y-101816217D01*
X146409026Y-101937358D01*
X146424791Y-101934709D01*
X146952036Y-101680732D01*
X147323539Y-101264931D01*
X147530330Y-101574415D01*
X148016511Y-101899271D01*
X148590000Y-102013345D01*
X149163489Y-101899271D01*
X149649670Y-101574415D01*
X149974526Y-101088234D01*
X150088600Y-100514745D01*
X150088600Y-100145255D01*
X149974526Y-99571766D01*
X149649670Y-99085585D01*
X149163489Y-98760729D01*
X148590000Y-98646655D01*
X148016511Y-98760729D01*
X147530330Y-99085585D01*
X147323539Y-99395069D01*
X146952036Y-98979268D01*
X146424791Y-98725291D01*
X146409026Y-98722642D01*
X146177000Y-98843783D01*
X145923000Y-98843783D01*
X145690974Y-98722642D01*
X145675209Y-98725291D01*
X145147964Y-98979268D01*
X144776461Y-99395069D01*
X144569670Y-99085585D01*
X144270000Y-98885352D01*
X144270000Y-97942400D01*
X154444960Y-97942400D01*
X154444960Y-100177600D01*
X154489238Y-100412917D01*
X154628310Y-100629041D01*
X154840510Y-100774031D01*
X155092400Y-100825040D01*
X157327600Y-100825040D01*
X157562917Y-100780762D01*
X157779041Y-100641690D01*
X157924031Y-100429490D01*
X157975040Y-100177600D01*
X157975040Y-97942400D01*
X157930762Y-97707083D01*
X157791690Y-97490959D01*
X157579490Y-97345969D01*
X157327600Y-97294960D01*
X155092400Y-97294960D01*
X154857083Y-97339238D01*
X154640959Y-97478310D01*
X154495969Y-97690510D01*
X154444960Y-97942400D01*
X144270000Y-97942400D01*
X144270000Y-88900000D01*
X144212148Y-88609161D01*
X144047401Y-88362599D01*
X134734183Y-79049381D01*
X134746757Y-79019100D01*
X134747242Y-78463339D01*
X134535010Y-77949697D01*
X134142370Y-77556371D01*
X133934488Y-77470051D01*
X134140303Y-77385010D01*
X134533629Y-76992370D01*
X134547070Y-76960000D01*
X140655198Y-76960000D01*
X149322599Y-85627401D01*
X149569161Y-85792148D01*
X149831477Y-85844326D01*
X149733243Y-86080900D01*
X149732758Y-86636661D01*
X149746143Y-86669055D01*
X148052599Y-88362599D01*
X147887852Y-88609161D01*
X147830000Y-88900000D01*
X147830000Y-92147537D01*
X147797808Y-92179673D01*
X147655162Y-92523201D01*
X147654838Y-92895167D01*
X147796883Y-93238943D01*
X148059673Y-93502192D01*
X148403201Y-93644838D01*
X148775167Y-93645162D01*
X149118943Y-93503117D01*
X149382192Y-93240327D01*
X149524838Y-92896799D01*
X149525162Y-92524833D01*
X149383117Y-92181057D01*
X149350000Y-92147882D01*
X149350000Y-89214802D01*
X149733059Y-88831743D01*
X149732758Y-89176661D01*
X149944990Y-89690303D01*
X150337630Y-90083629D01*
X150545512Y-90169949D01*
X150339697Y-90254990D01*
X149946371Y-90647630D01*
X149733243Y-91160900D01*
X149732758Y-91716661D01*
X149944990Y-92230303D01*
X150337630Y-92623629D01*
X150545512Y-92709949D01*
X150339697Y-92794990D01*
X149946371Y-93187630D01*
X149733243Y-93700900D01*
X149732758Y-94256661D01*
X149944990Y-94770303D01*
X150337630Y-95163629D01*
X150850900Y-95376757D01*
X151406661Y-95377242D01*
X151920303Y-95165010D01*
X152313629Y-94772370D01*
X152526757Y-94259100D01*
X152526867Y-94132400D01*
X154444960Y-94132400D01*
X154444960Y-96367600D01*
X154489238Y-96602917D01*
X154628310Y-96819041D01*
X154840510Y-96964031D01*
X155092400Y-97015040D01*
X157327600Y-97015040D01*
X157562917Y-96970762D01*
X157779041Y-96831690D01*
X157924031Y-96619490D01*
X157975040Y-96367600D01*
X157975040Y-94132400D01*
X157930762Y-93897083D01*
X157791690Y-93680959D01*
X157579490Y-93535969D01*
X157327600Y-93484960D01*
X155092400Y-93484960D01*
X154857083Y-93529238D01*
X154640959Y-93668310D01*
X154495969Y-93880510D01*
X154444960Y-94132400D01*
X152526867Y-94132400D01*
X152527242Y-93703339D01*
X152315010Y-93189697D01*
X151922370Y-92796371D01*
X151714488Y-92710051D01*
X151920303Y-92625010D01*
X152313629Y-92232370D01*
X152526757Y-91719100D01*
X152527242Y-91163339D01*
X152315010Y-90649697D01*
X151922370Y-90256371D01*
X151714488Y-90170051D01*
X151920303Y-90085010D01*
X152313629Y-89692370D01*
X152526757Y-89179100D01*
X152527242Y-88623339D01*
X152315010Y-88109697D01*
X151922370Y-87716371D01*
X151714488Y-87630051D01*
X151920303Y-87545010D01*
X152313629Y-87152370D01*
X152526757Y-86639100D01*
X152527242Y-86083339D01*
X152430829Y-85850000D01*
X154625198Y-85850000D01*
X154627619Y-85852421D01*
X154526655Y-86360000D01*
X154640729Y-86933489D01*
X154965585Y-87419670D01*
X155280366Y-87630000D01*
X154965585Y-87840330D01*
X154640729Y-88326511D01*
X154526655Y-88900000D01*
X154640729Y-89473489D01*
X154965585Y-89959670D01*
X155280366Y-90170000D01*
X154965585Y-90380330D01*
X154640729Y-90866511D01*
X154526655Y-91440000D01*
X154640729Y-92013489D01*
X154965585Y-92499670D01*
X155451766Y-92824526D01*
X156025255Y-92938600D01*
X156394745Y-92938600D01*
X156968234Y-92824526D01*
X157454415Y-92499670D01*
X157779271Y-92013489D01*
X157893345Y-91440000D01*
X157779271Y-90866511D01*
X157454415Y-90380330D01*
X157139634Y-90170000D01*
X157454415Y-89959670D01*
X157779271Y-89473489D01*
X157893345Y-88900000D01*
X157779271Y-88326511D01*
X157454415Y-87840330D01*
X157139634Y-87630000D01*
X157454415Y-87419670D01*
X157779271Y-86933489D01*
X157893345Y-86360000D01*
X157779271Y-85786511D01*
X157454415Y-85300330D01*
X157139634Y-85090000D01*
X157454415Y-84879670D01*
X157779271Y-84393489D01*
X157893345Y-83820000D01*
X157779271Y-83246511D01*
X157454415Y-82760330D01*
X157139634Y-82550000D01*
X157454415Y-82339670D01*
X157779271Y-81853489D01*
X157893345Y-81280000D01*
X157779271Y-80706511D01*
X157454415Y-80220330D01*
X157139634Y-80010000D01*
X157454415Y-79799670D01*
X157779271Y-79313489D01*
X157893345Y-78740000D01*
X157779271Y-78166511D01*
X157454415Y-77680330D01*
X157139634Y-77470000D01*
X157454415Y-77259670D01*
X157779271Y-76773489D01*
X157893345Y-76200000D01*
X157779271Y-75626511D01*
X157454415Y-75140330D01*
X157139634Y-74930000D01*
X157454415Y-74719670D01*
X157779271Y-74233489D01*
X157893345Y-73660000D01*
X157779271Y-73086511D01*
X157454415Y-72600330D01*
X157139634Y-72390000D01*
X157454415Y-72179670D01*
X157779271Y-71693489D01*
X157893345Y-71120000D01*
X157779271Y-70546511D01*
X157454415Y-70060330D01*
X157432220Y-70045500D01*
X157585698Y-69981927D01*
X157764327Y-69803299D01*
X157861000Y-69569910D01*
X157861000Y-68865750D01*
X157702250Y-68707000D01*
X156337000Y-68707000D01*
X156337000Y-68727000D01*
X156083000Y-68727000D01*
X156083000Y-68707000D01*
X154717750Y-68707000D01*
X154559000Y-68865750D01*
X154559000Y-69569910D01*
X154655673Y-69803299D01*
X154834302Y-69981927D01*
X154987780Y-70045500D01*
X154965585Y-70060330D01*
X154640729Y-70546511D01*
X154526655Y-71120000D01*
X154640729Y-71693489D01*
X154965585Y-72179670D01*
X155280366Y-72390000D01*
X154965585Y-72600330D01*
X154640729Y-73086511D01*
X154526655Y-73660000D01*
X154640729Y-74233489D01*
X154965585Y-74719670D01*
X155280366Y-74930000D01*
X154965585Y-75140330D01*
X154640729Y-75626511D01*
X154526655Y-76200000D01*
X154640729Y-76773489D01*
X154965585Y-77259670D01*
X155280366Y-77470000D01*
X154965585Y-77680330D01*
X154640729Y-78166511D01*
X154526655Y-78740000D01*
X154640729Y-79313489D01*
X154965585Y-79799670D01*
X155280366Y-80010000D01*
X154965585Y-80220330D01*
X154640729Y-80706511D01*
X154526655Y-81280000D01*
X154640729Y-81853489D01*
X154965585Y-82339670D01*
X155280366Y-82550000D01*
X154965585Y-82760330D01*
X154640729Y-83246511D01*
X154526655Y-83820000D01*
X154628100Y-84330000D01*
X152430879Y-84330000D01*
X152526757Y-84099100D01*
X152527242Y-83543339D01*
X152315010Y-83029697D01*
X151922370Y-82636371D01*
X151714488Y-82550051D01*
X151920303Y-82465010D01*
X152313629Y-82072370D01*
X152526757Y-81559100D01*
X152527242Y-81003339D01*
X152315010Y-80489697D01*
X151922370Y-80096371D01*
X151714488Y-80010051D01*
X151920303Y-79925010D01*
X152313629Y-79532370D01*
X152526757Y-79019100D01*
X152527242Y-78463339D01*
X152315010Y-77949697D01*
X151922370Y-77556371D01*
X151714488Y-77470051D01*
X151920303Y-77385010D01*
X152313629Y-76992370D01*
X152526757Y-76479100D01*
X152527242Y-75923339D01*
X152315010Y-75409697D01*
X151922370Y-75016371D01*
X151714488Y-74930051D01*
X151920303Y-74845010D01*
X152313629Y-74452370D01*
X152526757Y-73939100D01*
X152527242Y-73383339D01*
X152315010Y-72869697D01*
X151922370Y-72476371D01*
X151714488Y-72390051D01*
X151920303Y-72305010D01*
X152313629Y-71912370D01*
X152526757Y-71399100D01*
X152527242Y-70843339D01*
X152315010Y-70329697D01*
X151922370Y-69936371D01*
X151730273Y-69856605D01*
X151861143Y-69802397D01*
X151930608Y-69560213D01*
X151130000Y-68759605D01*
X150329392Y-69560213D01*
X150398857Y-69802397D01*
X150539318Y-69852509D01*
X150339697Y-69934990D01*
X149946371Y-70327630D01*
X149733243Y-70840900D01*
X149732758Y-71396661D01*
X149944990Y-71910303D01*
X150337630Y-72303629D01*
X150545512Y-72389949D01*
X150339697Y-72474990D01*
X149946371Y-72867630D01*
X149733243Y-73380900D01*
X149732758Y-73936661D01*
X149944990Y-74450303D01*
X150337630Y-74843629D01*
X150545512Y-74929949D01*
X150339697Y-75014990D01*
X149946371Y-75407630D01*
X149733243Y-75920900D01*
X149732758Y-76476661D01*
X149944990Y-76990303D01*
X150337630Y-77383629D01*
X150545512Y-77469949D01*
X150339697Y-77554990D01*
X149946371Y-77947630D01*
X149733243Y-78460900D01*
X149732758Y-79016661D01*
X149944990Y-79530303D01*
X150337630Y-79923629D01*
X150545512Y-80009949D01*
X150339697Y-80094990D01*
X149946371Y-80487630D01*
X149733243Y-81000900D01*
X149732758Y-81556661D01*
X149944990Y-82070303D01*
X150337630Y-82463629D01*
X150545512Y-82549949D01*
X150339697Y-82634990D01*
X149946371Y-83027630D01*
X149733243Y-83540900D01*
X149732940Y-83888138D01*
X141507401Y-75662599D01*
X141260839Y-75497852D01*
X140970000Y-75440000D01*
X134547531Y-75440000D01*
X134535010Y-75409697D01*
X134142370Y-75016371D01*
X133950273Y-74936605D01*
X134081143Y-74882397D01*
X134150608Y-74640213D01*
X133350000Y-73839605D01*
X132549392Y-74640213D01*
X132618857Y-74882397D01*
X132759318Y-74932509D01*
X132559697Y-75014990D01*
X132166371Y-75407630D01*
X131953243Y-75920900D01*
X131952758Y-76476661D01*
X132164990Y-76990303D01*
X132557630Y-77383629D01*
X132765512Y-77469949D01*
X132559697Y-77554990D01*
X132166371Y-77947630D01*
X131953243Y-78460900D01*
X131952758Y-79016661D01*
X132164990Y-79530303D01*
X132557630Y-79923629D01*
X132765512Y-80009949D01*
X132559697Y-80094990D01*
X132166371Y-80487630D01*
X131953243Y-81000900D01*
X131952758Y-81556661D01*
X132164990Y-82070303D01*
X132557630Y-82463629D01*
X132765512Y-82549949D01*
X132559697Y-82634990D01*
X132166371Y-83027630D01*
X131953243Y-83540900D01*
X131952758Y-84096661D01*
X132164990Y-84610303D01*
X132557630Y-85003629D01*
X132765512Y-85089949D01*
X132559697Y-85174990D01*
X132166371Y-85567630D01*
X131953243Y-86080900D01*
X131952758Y-86636661D01*
X132164990Y-87150303D01*
X132557630Y-87543629D01*
X132765512Y-87629949D01*
X132559697Y-87714990D01*
X132166371Y-88107630D01*
X131953243Y-88620900D01*
X131952758Y-89176661D01*
X132164990Y-89690303D01*
X132557630Y-90083629D01*
X132765512Y-90169949D01*
X132559697Y-90254990D01*
X132166371Y-90647630D01*
X131953243Y-91160900D01*
X131952758Y-91716661D01*
X132164990Y-92230303D01*
X132557630Y-92623629D01*
X132765512Y-92709949D01*
X132559697Y-92794990D01*
X132166371Y-93187630D01*
X132152930Y-93220000D01*
X129030000Y-93220000D01*
X129030000Y-83112463D01*
X129062192Y-83080327D01*
X129204838Y-82736799D01*
X129205162Y-82364833D01*
X129063117Y-82021057D01*
X128800327Y-81757808D01*
X128456799Y-81615162D01*
X128084833Y-81614838D01*
X127741057Y-81756883D01*
X127477808Y-82019673D01*
X127335162Y-82363201D01*
X127334838Y-82735167D01*
X121026513Y-82735167D01*
X121063345Y-82550000D01*
X120949271Y-81976511D01*
X120624415Y-81490330D01*
X120309634Y-81280000D01*
X120624415Y-81069670D01*
X120949271Y-80583489D01*
X121063345Y-80010000D01*
X120949271Y-79436511D01*
X120624415Y-78950330D01*
X120138234Y-78625474D01*
X119564745Y-78511400D01*
X119195255Y-78511400D01*
X118621766Y-78625474D01*
X118135585Y-78950330D01*
X117810729Y-79436511D01*
X117696655Y-80010000D01*
X114427000Y-80010000D01*
X114427000Y-75215750D01*
X117729000Y-75215750D01*
X117729000Y-75919910D01*
X117825673Y-76153299D01*
X118004302Y-76331927D01*
X118237691Y-76428600D01*
X119094250Y-76428600D01*
X119253000Y-76269850D01*
X119253000Y-75057000D01*
X119507000Y-75057000D01*
X119507000Y-76269850D01*
X119665750Y-76428600D01*
X120522309Y-76428600D01*
X120755698Y-76331927D01*
X120934327Y-76153299D01*
X121031000Y-75919910D01*
X121031000Y-75215750D01*
X121539000Y-75215750D01*
X121539000Y-75919910D01*
X121635673Y-76153299D01*
X121814302Y-76331927D01*
X122047691Y-76428600D01*
X122904250Y-76428600D01*
X123063000Y-76269850D01*
X123063000Y-75057000D01*
X123317000Y-75057000D01*
X123317000Y-76269850D01*
X123475750Y-76428600D01*
X124332309Y-76428600D01*
X124565698Y-76331927D01*
X124744327Y-76153299D01*
X124841000Y-75919910D01*
X124841000Y-75215750D01*
X125349000Y-75215750D01*
X125349000Y-75919910D01*
X125445673Y-76153299D01*
X125624302Y-76331927D01*
X125857691Y-76428600D01*
X126714250Y-76428600D01*
X126873000Y-76269850D01*
X126873000Y-75057000D01*
X127127000Y-75057000D01*
X127127000Y-76269850D01*
X127285750Y-76428600D01*
X128142309Y-76428600D01*
X128375698Y-76331927D01*
X128554327Y-76153299D01*
X128651000Y-75919910D01*
X128651000Y-75215750D01*
X128492250Y-75057000D01*
X127127000Y-75057000D01*
X126873000Y-75057000D01*
X125507750Y-75057000D01*
X125349000Y-75215750D01*
X124841000Y-75215750D01*
X124682250Y-75057000D01*
X123317000Y-75057000D01*
X123063000Y-75057000D01*
X121697750Y-75057000D01*
X121539000Y-75215750D01*
X121031000Y-75215750D01*
X120872250Y-75057000D01*
X119507000Y-75057000D01*
X119253000Y-75057000D01*
X117887750Y-75057000D01*
X117729000Y-75215750D01*
X114427000Y-75215750D01*
X114427000Y-67310000D01*
X117696655Y-67310000D01*
X117810729Y-67883489D01*
X118135585Y-68369670D01*
X118450366Y-68580000D01*
X118135585Y-68790330D01*
X117810729Y-69276511D01*
X117696655Y-69850000D01*
X117810729Y-70423489D01*
X118135585Y-70909670D01*
X118450366Y-71120000D01*
X118135585Y-71330330D01*
X117810729Y-71816511D01*
X117696655Y-72390000D01*
X117810729Y-72963489D01*
X118135585Y-73449670D01*
X118157780Y-73464500D01*
X118004302Y-73528073D01*
X117825673Y-73706701D01*
X117729000Y-73940090D01*
X117729000Y-74644250D01*
X117887750Y-74803000D01*
X119253000Y-74803000D01*
X119253000Y-74783000D01*
X119507000Y-74783000D01*
X119507000Y-74803000D01*
X120872250Y-74803000D01*
X121031000Y-74644250D01*
X121031000Y-73940090D01*
X120934327Y-73706701D01*
X120755698Y-73528073D01*
X120602220Y-73464500D01*
X120624415Y-73449670D01*
X120949271Y-72963489D01*
X121063345Y-72390000D01*
X120949271Y-71816511D01*
X120624415Y-71330330D01*
X120309634Y-71120000D01*
X120624415Y-70909670D01*
X120949271Y-70423489D01*
X121063345Y-69850000D01*
X120949271Y-69276511D01*
X120624415Y-68790330D01*
X120309634Y-68580000D01*
X120624415Y-68369670D01*
X120949271Y-67883489D01*
X121063345Y-67310000D01*
X121506655Y-67310000D01*
X121620729Y-67883489D01*
X121945585Y-68369670D01*
X122260366Y-68580000D01*
X121945585Y-68790330D01*
X121620729Y-69276511D01*
X121506655Y-69850000D01*
X121620729Y-70423489D01*
X121945585Y-70909670D01*
X122260366Y-71120000D01*
X121945585Y-71330330D01*
X121620729Y-71816511D01*
X121506655Y-72390000D01*
X121620729Y-72963489D01*
X121945585Y-73449670D01*
X121967780Y-73464500D01*
X121814302Y-73528073D01*
X121635673Y-73706701D01*
X121539000Y-73940090D01*
X121539000Y-74644250D01*
X121697750Y-74803000D01*
X123063000Y-74803000D01*
X123063000Y-74783000D01*
X123317000Y-74783000D01*
X123317000Y-74803000D01*
X124682250Y-74803000D01*
X124841000Y-74644250D01*
X124841000Y-73940090D01*
X124744327Y-73706701D01*
X124565698Y-73528073D01*
X124412220Y-73464500D01*
X124434415Y-73449670D01*
X124759271Y-72963489D01*
X124873345Y-72390000D01*
X124759271Y-71816511D01*
X124434415Y-71330330D01*
X124119634Y-71120000D01*
X124434415Y-70909670D01*
X124759271Y-70423489D01*
X124873345Y-69850000D01*
X124759271Y-69276511D01*
X124434415Y-68790330D01*
X124119634Y-68580000D01*
X124434415Y-68369670D01*
X124759271Y-67883489D01*
X124873345Y-67310000D01*
X125316655Y-67310000D01*
X125430729Y-67883489D01*
X125755585Y-68369670D01*
X126070366Y-68580000D01*
X125755585Y-68790330D01*
X125430729Y-69276511D01*
X125316655Y-69850000D01*
X125430729Y-70423489D01*
X125755585Y-70909670D01*
X126070366Y-71120000D01*
X125755585Y-71330330D01*
X125430729Y-71816511D01*
X125316655Y-72390000D01*
X125430729Y-72963489D01*
X125755585Y-73449670D01*
X125777780Y-73464500D01*
X125624302Y-73528073D01*
X125445673Y-73706701D01*
X125349000Y-73940090D01*
X125349000Y-74644250D01*
X125507750Y-74803000D01*
X126873000Y-74803000D01*
X126873000Y-74783000D01*
X127127000Y-74783000D01*
X127127000Y-74803000D01*
X128492250Y-74803000D01*
X128651000Y-74644250D01*
X128651000Y-73940090D01*
X128554327Y-73706701D01*
X128375698Y-73528073D01*
X128222220Y-73464500D01*
X128240475Y-73452302D01*
X131940856Y-73452302D01*
X131968638Y-74007368D01*
X132127603Y-74391143D01*
X132369787Y-74460608D01*
X133170395Y-73660000D01*
X133529605Y-73660000D01*
X134330213Y-74460608D01*
X134572397Y-74391143D01*
X134759144Y-73867698D01*
X134731362Y-73312632D01*
X134572397Y-72928857D01*
X134330213Y-72859392D01*
X133529605Y-73660000D01*
X133170395Y-73660000D01*
X132369787Y-72859392D01*
X132127603Y-72928857D01*
X131940856Y-73452302D01*
X128240475Y-73452302D01*
X128244415Y-73449670D01*
X128569271Y-72963489D01*
X128683345Y-72390000D01*
X128625703Y-72100213D01*
X132549392Y-72100213D01*
X132618857Y-72342397D01*
X132742344Y-72386453D01*
X132618857Y-72437603D01*
X132549392Y-72679787D01*
X133350000Y-73480395D01*
X134150608Y-72679787D01*
X134081143Y-72437603D01*
X133957656Y-72393547D01*
X134081143Y-72342397D01*
X134150608Y-72100213D01*
X133350000Y-71299605D01*
X132549392Y-72100213D01*
X128625703Y-72100213D01*
X128569271Y-71816511D01*
X128244415Y-71330330D01*
X127929634Y-71120000D01*
X128240475Y-70912302D01*
X131940856Y-70912302D01*
X131968638Y-71467368D01*
X132127603Y-71851143D01*
X132369787Y-71920608D01*
X133170395Y-71120000D01*
X133529605Y-71120000D01*
X134330213Y-71920608D01*
X134572397Y-71851143D01*
X134759144Y-71327698D01*
X134731362Y-70772632D01*
X134572397Y-70388857D01*
X134330213Y-70319392D01*
X133529605Y-71120000D01*
X133170395Y-71120000D01*
X132369787Y-70319392D01*
X132127603Y-70388857D01*
X131940856Y-70912302D01*
X128240475Y-70912302D01*
X128244415Y-70909670D01*
X128569271Y-70423489D01*
X128683345Y-69850000D01*
X128569271Y-69276511D01*
X128244415Y-68790330D01*
X127929634Y-68580000D01*
X128244415Y-68369670D01*
X128569271Y-67883489D01*
X128683345Y-67310000D01*
X128569271Y-66736511D01*
X128288736Y-66316661D01*
X131952758Y-66316661D01*
X132164990Y-66830303D01*
X132557630Y-67223629D01*
X132765512Y-67309949D01*
X132559697Y-67394990D01*
X132166371Y-67787630D01*
X131953243Y-68300900D01*
X131952758Y-68856661D01*
X132164990Y-69370303D01*
X132557630Y-69763629D01*
X132749727Y-69843395D01*
X132618857Y-69897603D01*
X132549392Y-70139787D01*
X133350000Y-70940395D01*
X134150608Y-70139787D01*
X134081143Y-69897603D01*
X133940682Y-69847491D01*
X134140303Y-69765010D01*
X134533629Y-69372370D01*
X134746757Y-68859100D01*
X134747242Y-68303339D01*
X134592681Y-67929270D01*
X139112458Y-67929270D01*
X139587512Y-69078989D01*
X140466384Y-69959396D01*
X141615272Y-70436456D01*
X142859270Y-70437542D01*
X144008989Y-69962488D01*
X144889396Y-69083616D01*
X145184759Y-68372302D01*
X149720856Y-68372302D01*
X149748638Y-68927368D01*
X149907603Y-69311143D01*
X150149787Y-69380608D01*
X150950395Y-68580000D01*
X151309605Y-68580000D01*
X152110213Y-69380608D01*
X152352397Y-69311143D01*
X152539144Y-68787698D01*
X152511362Y-68232632D01*
X152352397Y-67848857D01*
X152110213Y-67779392D01*
X151309605Y-68580000D01*
X150950395Y-68580000D01*
X150149787Y-67779392D01*
X149907603Y-67848857D01*
X149720856Y-68372302D01*
X145184759Y-68372302D01*
X145366456Y-67934728D01*
X145367542Y-66690730D01*
X145212980Y-66316661D01*
X149732758Y-66316661D01*
X149944990Y-66830303D01*
X150337630Y-67223629D01*
X150529727Y-67303395D01*
X150398857Y-67357603D01*
X150329392Y-67599787D01*
X151130000Y-68400395D01*
X151930608Y-67599787D01*
X151927827Y-67590090D01*
X154559000Y-67590090D01*
X154559000Y-68294250D01*
X154717750Y-68453000D01*
X156083000Y-68453000D01*
X156083000Y-67240150D01*
X156337000Y-67240150D01*
X156337000Y-68453000D01*
X157702250Y-68453000D01*
X157861000Y-68294250D01*
X157861000Y-67590090D01*
X157764327Y-67356701D01*
X157585698Y-67178073D01*
X157352309Y-67081400D01*
X156495750Y-67081400D01*
X156337000Y-67240150D01*
X156083000Y-67240150D01*
X155924250Y-67081400D01*
X155067691Y-67081400D01*
X154834302Y-67178073D01*
X154655673Y-67356701D01*
X154559000Y-67590090D01*
X151927827Y-67590090D01*
X151861143Y-67357603D01*
X151720682Y-67307491D01*
X151920303Y-67225010D01*
X152313629Y-66832370D01*
X152526757Y-66319100D01*
X152527242Y-65763339D01*
X152315010Y-65249697D01*
X151922370Y-64856371D01*
X151409100Y-64643243D01*
X150853339Y-64642758D01*
X150339697Y-64854990D01*
X149946371Y-65247630D01*
X149733243Y-65760900D01*
X149732758Y-66316661D01*
X145212980Y-66316661D01*
X144892488Y-65541011D01*
X144013616Y-64660604D01*
X142864728Y-64183544D01*
X141620730Y-64182458D01*
X140471011Y-64657512D01*
X139590604Y-65536384D01*
X139113544Y-66685272D01*
X139112458Y-67929270D01*
X134592681Y-67929270D01*
X134535010Y-67789697D01*
X134142370Y-67396371D01*
X133934488Y-67310051D01*
X134140303Y-67225010D01*
X134533629Y-66832370D01*
X134746757Y-66319100D01*
X134747242Y-65763339D01*
X134535010Y-65249697D01*
X134142370Y-64856371D01*
X133629100Y-64643243D01*
X133073339Y-64642758D01*
X132559697Y-64854990D01*
X132166371Y-65247630D01*
X131953243Y-65760900D01*
X131952758Y-66316661D01*
X128288736Y-66316661D01*
X128244415Y-66250330D01*
X127758234Y-65925474D01*
X127184745Y-65811400D01*
X126815255Y-65811400D01*
X126241766Y-65925474D01*
X125755585Y-66250330D01*
X125430729Y-66736511D01*
X125316655Y-67310000D01*
X124873345Y-67310000D01*
X124759271Y-66736511D01*
X124434415Y-66250330D01*
X123948234Y-65925474D01*
X123374745Y-65811400D01*
X123005255Y-65811400D01*
X122431766Y-65925474D01*
X121945585Y-66250330D01*
X121620729Y-66736511D01*
X121506655Y-67310000D01*
X121063345Y-67310000D01*
X120949271Y-66736511D01*
X120624415Y-66250330D01*
X120138234Y-65925474D01*
X119564745Y-65811400D01*
X119195255Y-65811400D01*
X118621766Y-65925474D01*
X118135585Y-66250330D01*
X117810729Y-66736511D01*
X117696655Y-67310000D01*
X114427000Y-67310000D01*
X114427000Y-66092606D01*
X116892606Y-63627000D01*
X158697394Y-63627000D01*
X161163000Y-66092606D01*
X161163000Y-66092606D01*
G37*
X161163000Y-66092606D02*
X161163000Y-107897394D01*
X158697394Y-110363000D01*
X116892606Y-110363000D01*
X114427000Y-107897394D01*
X114427000Y-107299270D01*
X114982458Y-107299270D01*
X115457512Y-108448989D01*
X116336384Y-109329396D01*
X117485272Y-109806456D01*
X118729270Y-109807542D01*
X119878989Y-109332488D01*
X120759396Y-108453616D01*
X121236456Y-107304728D01*
X121236460Y-107299270D01*
X154352458Y-107299270D01*
X154827512Y-108448989D01*
X155706384Y-109329396D01*
X156855272Y-109806456D01*
X158099270Y-109807542D01*
X159248989Y-109332488D01*
X160129396Y-108453616D01*
X160606456Y-107304728D01*
X160607542Y-106060730D01*
X160132488Y-104911011D01*
X159253616Y-104030604D01*
X158104728Y-103553544D01*
X156860730Y-103552458D01*
X155711011Y-104027512D01*
X154830604Y-104906384D01*
X154353544Y-106055272D01*
X154352458Y-107299270D01*
X121236460Y-107299270D01*
X121237542Y-106060730D01*
X120762488Y-104911011D01*
X119883616Y-104030604D01*
X118734728Y-103553544D01*
X117490730Y-103552458D01*
X116341011Y-104027512D01*
X115460604Y-104906384D01*
X114983544Y-106055272D01*
X114982458Y-107299270D01*
X114427000Y-107299270D01*
X114427000Y-98075750D01*
X117729000Y-98075750D01*
X117729000Y-98779910D01*
X117825673Y-99013299D01*
X118004302Y-99191927D01*
X118237691Y-99288600D01*
X119094250Y-99288600D01*
X119253000Y-99129850D01*
X119253000Y-97917000D01*
X119507000Y-97917000D01*
X119507000Y-99129850D01*
X119665750Y-99288600D01*
X120522309Y-99288600D01*
X120755698Y-99191927D01*
X120934327Y-99013299D01*
X121031000Y-98779910D01*
X121031000Y-98075750D01*
X120872250Y-97917000D01*
X119507000Y-97917000D01*
X119253000Y-97917000D01*
X117887750Y-97917000D01*
X117729000Y-98075750D01*
X114427000Y-98075750D01*
X114427000Y-80010000D01*
X117696655Y-80010000D01*
X117810729Y-80583489D01*
X118135585Y-81069670D01*
X118450366Y-81280000D01*
X118135585Y-81490330D01*
X117810729Y-81976511D01*
X117696655Y-82550000D01*
X117810729Y-83123489D01*
X118135585Y-83609670D01*
X118450366Y-83820000D01*
X118135585Y-84030330D01*
X117810729Y-84516511D01*
X117696655Y-85090000D01*
X117810729Y-85663489D01*
X118135585Y-86149670D01*
X118450366Y-86360000D01*
X118135585Y-86570330D01*
X117810729Y-87056511D01*
X117696655Y-87630000D01*
X117810729Y-88203489D01*
X118135585Y-88689670D01*
X118450366Y-88900000D01*
X118135585Y-89110330D01*
X117810729Y-89596511D01*
X117696655Y-90170000D01*
X117810729Y-90743489D01*
X118135585Y-91229670D01*
X118450366Y-91440000D01*
X118135585Y-91650330D01*
X117810729Y-92136511D01*
X117696655Y-92710000D01*
X117810729Y-93283489D01*
X118135585Y-93769670D01*
X118450366Y-93980000D01*
X118135585Y-94190330D01*
X117810729Y-94676511D01*
X117696655Y-95250000D01*
X117810729Y-95823489D01*
X118135585Y-96309670D01*
X118157780Y-96324500D01*
X118004302Y-96388073D01*
X117825673Y-96566701D01*
X117729000Y-96800090D01*
X117729000Y-97504250D01*
X117887750Y-97663000D01*
X119253000Y-97663000D01*
X119253000Y-97643000D01*
X119507000Y-97643000D01*
X119507000Y-97663000D01*
X120872250Y-97663000D01*
X121031000Y-97504250D01*
X121031000Y-96800090D01*
X120934327Y-96566701D01*
X120755698Y-96388073D01*
X120602220Y-96324500D01*
X120624415Y-96309670D01*
X120949271Y-95823489D01*
X121063345Y-95250000D01*
X120949271Y-94676511D01*
X120624415Y-94190330D01*
X120309634Y-93980000D01*
X120624415Y-93769670D01*
X120949271Y-93283489D01*
X121063345Y-92710000D01*
X120949271Y-92136511D01*
X120624415Y-91650330D01*
X120309634Y-91440000D01*
X120624415Y-91229670D01*
X120949271Y-90743489D01*
X121063345Y-90170000D01*
X120949271Y-89596511D01*
X120624415Y-89110330D01*
X120309634Y-88900000D01*
X120624415Y-88689670D01*
X120949271Y-88203489D01*
X121063345Y-87630000D01*
X120949271Y-87056511D01*
X120624415Y-86570330D01*
X120309634Y-86360000D01*
X120624415Y-86149670D01*
X120949271Y-85663489D01*
X121063345Y-85090000D01*
X120949271Y-84516511D01*
X120624415Y-84030330D01*
X120309634Y-83820000D01*
X120624415Y-83609670D01*
X120949271Y-83123489D01*
X121026513Y-82735167D01*
X127334838Y-82735167D01*
X127476883Y-83078943D01*
X127510000Y-83112118D01*
X127510000Y-93980000D01*
X127567852Y-94270839D01*
X127732599Y-94517401D01*
X127979161Y-94682148D01*
X128270000Y-94740000D01*
X132152469Y-94740000D01*
X132164990Y-94770303D01*
X132557630Y-95163629D01*
X133070900Y-95376757D01*
X133626661Y-95377242D01*
X134140303Y-95165010D01*
X134533629Y-94772370D01*
X134746757Y-94259100D01*
X134747242Y-93703339D01*
X134535010Y-93189697D01*
X134142370Y-92796371D01*
X133934488Y-92710051D01*
X134140303Y-92625010D01*
X134533629Y-92232370D01*
X134746757Y-91719100D01*
X134747242Y-91163339D01*
X134535010Y-90649697D01*
X134142370Y-90256371D01*
X133934488Y-90170051D01*
X134140303Y-90085010D01*
X134533629Y-89692370D01*
X134746757Y-89179100D01*
X134747060Y-88831862D01*
X137670000Y-91754802D01*
X137670000Y-98666560D01*
X137566400Y-98666560D01*
X137331083Y-98710838D01*
X137114959Y-98849910D01*
X136969969Y-99062110D01*
X136918960Y-99314000D01*
X136918960Y-101346000D01*
X136963238Y-101581317D01*
X137102310Y-101797441D01*
X137314510Y-101942431D01*
X137566400Y-101993440D01*
X139293600Y-101993440D01*
X139528917Y-101949162D01*
X139745041Y-101810090D01*
X139890031Y-101597890D01*
X139898400Y-101556561D01*
X139910330Y-101574415D01*
X140396511Y-101899271D01*
X140970000Y-102013345D01*
X141543489Y-101899271D01*
X142029670Y-101574415D01*
X142240000Y-101259634D01*
X142450330Y-101574415D01*
X142936511Y-101899271D01*
X143510000Y-102013345D01*
X144083489Y-101899271D01*
X144569670Y-101574415D01*
X144776461Y-101264931D01*
X145147964Y-101680732D01*
X145675209Y-101934709D01*
X145690974Y-101937358D01*
X145923000Y-101816217D01*
X145923000Y-100457000D01*
X145903000Y-100457000D01*
X145903000Y-100203000D01*
X145923000Y-100203000D01*
X145923000Y-98843783D01*
X146177000Y-98843783D01*
X146177000Y-100203000D01*
X146197000Y-100203000D01*
X146197000Y-100457000D01*
X146177000Y-100457000D01*
X146177000Y-101816217D01*
X146409026Y-101937358D01*
X146424791Y-101934709D01*
X146952036Y-101680732D01*
X147323539Y-101264931D01*
X147530330Y-101574415D01*
X148016511Y-101899271D01*
X148590000Y-102013345D01*
X149163489Y-101899271D01*
X149649670Y-101574415D01*
X149974526Y-101088234D01*
X150088600Y-100514745D01*
X150088600Y-100145255D01*
X149974526Y-99571766D01*
X149649670Y-99085585D01*
X149163489Y-98760729D01*
X148590000Y-98646655D01*
X148016511Y-98760729D01*
X147530330Y-99085585D01*
X147323539Y-99395069D01*
X146952036Y-98979268D01*
X146424791Y-98725291D01*
X146409026Y-98722642D01*
X146177000Y-98843783D01*
X145923000Y-98843783D01*
X145690974Y-98722642D01*
X145675209Y-98725291D01*
X145147964Y-98979268D01*
X144776461Y-99395069D01*
X144569670Y-99085585D01*
X144270000Y-98885352D01*
X144270000Y-97942400D01*
X154444960Y-97942400D01*
X154444960Y-100177600D01*
X154489238Y-100412917D01*
X154628310Y-100629041D01*
X154840510Y-100774031D01*
X155092400Y-100825040D01*
X157327600Y-100825040D01*
X157562917Y-100780762D01*
X157779041Y-100641690D01*
X157924031Y-100429490D01*
X157975040Y-100177600D01*
X157975040Y-97942400D01*
X157930762Y-97707083D01*
X157791690Y-97490959D01*
X157579490Y-97345969D01*
X157327600Y-97294960D01*
X155092400Y-97294960D01*
X154857083Y-97339238D01*
X154640959Y-97478310D01*
X154495969Y-97690510D01*
X154444960Y-97942400D01*
X144270000Y-97942400D01*
X144270000Y-88900000D01*
X144212148Y-88609161D01*
X144047401Y-88362599D01*
X134734183Y-79049381D01*
X134746757Y-79019100D01*
X134747242Y-78463339D01*
X134535010Y-77949697D01*
X134142370Y-77556371D01*
X133934488Y-77470051D01*
X134140303Y-77385010D01*
X134533629Y-76992370D01*
X134547070Y-76960000D01*
X140655198Y-76960000D01*
X149322599Y-85627401D01*
X149569161Y-85792148D01*
X149831477Y-85844326D01*
X149733243Y-86080900D01*
X149732758Y-86636661D01*
X149746143Y-86669055D01*
X148052599Y-88362599D01*
X147887852Y-88609161D01*
X147830000Y-88900000D01*
X147830000Y-92147537D01*
X147797808Y-92179673D01*
X147655162Y-92523201D01*
X147654838Y-92895167D01*
X147796883Y-93238943D01*
X148059673Y-93502192D01*
X148403201Y-93644838D01*
X148775167Y-93645162D01*
X149118943Y-93503117D01*
X149382192Y-93240327D01*
X149524838Y-92896799D01*
X149525162Y-92524833D01*
X149383117Y-92181057D01*
X149350000Y-92147882D01*
X149350000Y-89214802D01*
X149733059Y-88831743D01*
X149732758Y-89176661D01*
X149944990Y-89690303D01*
X150337630Y-90083629D01*
X150545512Y-90169949D01*
X150339697Y-90254990D01*
X149946371Y-90647630D01*
X149733243Y-91160900D01*
X149732758Y-91716661D01*
X149944990Y-92230303D01*
X150337630Y-92623629D01*
X150545512Y-92709949D01*
X150339697Y-92794990D01*
X149946371Y-93187630D01*
X149733243Y-93700900D01*
X149732758Y-94256661D01*
X149944990Y-94770303D01*
X150337630Y-95163629D01*
X150850900Y-95376757D01*
X151406661Y-95377242D01*
X151920303Y-95165010D01*
X152313629Y-94772370D01*
X152526757Y-94259100D01*
X152526867Y-94132400D01*
X154444960Y-94132400D01*
X154444960Y-96367600D01*
X154489238Y-96602917D01*
X154628310Y-96819041D01*
X154840510Y-96964031D01*
X155092400Y-97015040D01*
X157327600Y-97015040D01*
X157562917Y-96970762D01*
X157779041Y-96831690D01*
X157924031Y-96619490D01*
X157975040Y-96367600D01*
X157975040Y-94132400D01*
X157930762Y-93897083D01*
X157791690Y-93680959D01*
X157579490Y-93535969D01*
X157327600Y-93484960D01*
X155092400Y-93484960D01*
X154857083Y-93529238D01*
X154640959Y-93668310D01*
X154495969Y-93880510D01*
X154444960Y-94132400D01*
X152526867Y-94132400D01*
X152527242Y-93703339D01*
X152315010Y-93189697D01*
X151922370Y-92796371D01*
X151714488Y-92710051D01*
X151920303Y-92625010D01*
X152313629Y-92232370D01*
X152526757Y-91719100D01*
X152527242Y-91163339D01*
X152315010Y-90649697D01*
X151922370Y-90256371D01*
X151714488Y-90170051D01*
X151920303Y-90085010D01*
X152313629Y-89692370D01*
X152526757Y-89179100D01*
X152527242Y-88623339D01*
X152315010Y-88109697D01*
X151922370Y-87716371D01*
X151714488Y-87630051D01*
X151920303Y-87545010D01*
X152313629Y-87152370D01*
X152526757Y-86639100D01*
X152527242Y-86083339D01*
X152430829Y-85850000D01*
X154625198Y-85850000D01*
X154627619Y-85852421D01*
X154526655Y-86360000D01*
X154640729Y-86933489D01*
X154965585Y-87419670D01*
X155280366Y-87630000D01*
X154965585Y-87840330D01*
X154640729Y-88326511D01*
X154526655Y-88900000D01*
X154640729Y-89473489D01*
X154965585Y-89959670D01*
X155280366Y-90170000D01*
X154965585Y-90380330D01*
X154640729Y-90866511D01*
X154526655Y-91440000D01*
X154640729Y-92013489D01*
X154965585Y-92499670D01*
X155451766Y-92824526D01*
X156025255Y-92938600D01*
X156394745Y-92938600D01*
X156968234Y-92824526D01*
X157454415Y-92499670D01*
X157779271Y-92013489D01*
X157893345Y-91440000D01*
X157779271Y-90866511D01*
X157454415Y-90380330D01*
X157139634Y-90170000D01*
X157454415Y-89959670D01*
X157779271Y-89473489D01*
X157893345Y-88900000D01*
X157779271Y-88326511D01*
X157454415Y-87840330D01*
X157139634Y-87630000D01*
X157454415Y-87419670D01*
X157779271Y-86933489D01*
X157893345Y-86360000D01*
X157779271Y-85786511D01*
X157454415Y-85300330D01*
X157139634Y-85090000D01*
X157454415Y-84879670D01*
X157779271Y-84393489D01*
X157893345Y-83820000D01*
X157779271Y-83246511D01*
X157454415Y-82760330D01*
X157139634Y-82550000D01*
X157454415Y-82339670D01*
X157779271Y-81853489D01*
X157893345Y-81280000D01*
X157779271Y-80706511D01*
X157454415Y-80220330D01*
X157139634Y-80010000D01*
X157454415Y-79799670D01*
X157779271Y-79313489D01*
X157893345Y-78740000D01*
X157779271Y-78166511D01*
X157454415Y-77680330D01*
X157139634Y-77470000D01*
X157454415Y-77259670D01*
X157779271Y-76773489D01*
X157893345Y-76200000D01*
X157779271Y-75626511D01*
X157454415Y-75140330D01*
X157139634Y-74930000D01*
X157454415Y-74719670D01*
X157779271Y-74233489D01*
X157893345Y-73660000D01*
X157779271Y-73086511D01*
X157454415Y-72600330D01*
X157139634Y-72390000D01*
X157454415Y-72179670D01*
X157779271Y-71693489D01*
X157893345Y-71120000D01*
X157779271Y-70546511D01*
X157454415Y-70060330D01*
X157432220Y-70045500D01*
X157585698Y-69981927D01*
X157764327Y-69803299D01*
X157861000Y-69569910D01*
X157861000Y-68865750D01*
X157702250Y-68707000D01*
X156337000Y-68707000D01*
X156337000Y-68727000D01*
X156083000Y-68727000D01*
X156083000Y-68707000D01*
X154717750Y-68707000D01*
X154559000Y-68865750D01*
X154559000Y-69569910D01*
X154655673Y-69803299D01*
X154834302Y-69981927D01*
X154987780Y-70045500D01*
X154965585Y-70060330D01*
X154640729Y-70546511D01*
X154526655Y-71120000D01*
X154640729Y-71693489D01*
X154965585Y-72179670D01*
X155280366Y-72390000D01*
X154965585Y-72600330D01*
X154640729Y-73086511D01*
X154526655Y-73660000D01*
X154640729Y-74233489D01*
X154965585Y-74719670D01*
X155280366Y-74930000D01*
X154965585Y-75140330D01*
X154640729Y-75626511D01*
X154526655Y-76200000D01*
X154640729Y-76773489D01*
X154965585Y-77259670D01*
X155280366Y-77470000D01*
X154965585Y-77680330D01*
X154640729Y-78166511D01*
X154526655Y-78740000D01*
X154640729Y-79313489D01*
X154965585Y-79799670D01*
X155280366Y-80010000D01*
X154965585Y-80220330D01*
X154640729Y-80706511D01*
X154526655Y-81280000D01*
X154640729Y-81853489D01*
X154965585Y-82339670D01*
X155280366Y-82550000D01*
X154965585Y-82760330D01*
X154640729Y-83246511D01*
X154526655Y-83820000D01*
X154628100Y-84330000D01*
X152430879Y-84330000D01*
X152526757Y-84099100D01*
X152527242Y-83543339D01*
X152315010Y-83029697D01*
X151922370Y-82636371D01*
X151714488Y-82550051D01*
X151920303Y-82465010D01*
X152313629Y-82072370D01*
X152526757Y-81559100D01*
X152527242Y-81003339D01*
X152315010Y-80489697D01*
X151922370Y-80096371D01*
X151714488Y-80010051D01*
X151920303Y-79925010D01*
X152313629Y-79532370D01*
X152526757Y-79019100D01*
X152527242Y-78463339D01*
X152315010Y-77949697D01*
X151922370Y-77556371D01*
X151714488Y-77470051D01*
X151920303Y-77385010D01*
X152313629Y-76992370D01*
X152526757Y-76479100D01*
X152527242Y-75923339D01*
X152315010Y-75409697D01*
X151922370Y-75016371D01*
X151714488Y-74930051D01*
X151920303Y-74845010D01*
X152313629Y-74452370D01*
X152526757Y-73939100D01*
X152527242Y-73383339D01*
X152315010Y-72869697D01*
X151922370Y-72476371D01*
X151714488Y-72390051D01*
X151920303Y-72305010D01*
X152313629Y-71912370D01*
X152526757Y-71399100D01*
X152527242Y-70843339D01*
X152315010Y-70329697D01*
X151922370Y-69936371D01*
X151730273Y-69856605D01*
X151861143Y-69802397D01*
X151930608Y-69560213D01*
X151130000Y-68759605D01*
X150329392Y-69560213D01*
X150398857Y-69802397D01*
X150539318Y-69852509D01*
X150339697Y-69934990D01*
X149946371Y-70327630D01*
X149733243Y-70840900D01*
X149732758Y-71396661D01*
X149944990Y-71910303D01*
X150337630Y-72303629D01*
X150545512Y-72389949D01*
X150339697Y-72474990D01*
X149946371Y-72867630D01*
X149733243Y-73380900D01*
X149732758Y-73936661D01*
X149944990Y-74450303D01*
X150337630Y-74843629D01*
X150545512Y-74929949D01*
X150339697Y-75014990D01*
X149946371Y-75407630D01*
X149733243Y-75920900D01*
X149732758Y-76476661D01*
X149944990Y-76990303D01*
X150337630Y-77383629D01*
X150545512Y-77469949D01*
X150339697Y-77554990D01*
X149946371Y-77947630D01*
X149733243Y-78460900D01*
X149732758Y-79016661D01*
X149944990Y-79530303D01*
X150337630Y-79923629D01*
X150545512Y-80009949D01*
X150339697Y-80094990D01*
X149946371Y-80487630D01*
X149733243Y-81000900D01*
X149732758Y-81556661D01*
X149944990Y-82070303D01*
X150337630Y-82463629D01*
X150545512Y-82549949D01*
X150339697Y-82634990D01*
X149946371Y-83027630D01*
X149733243Y-83540900D01*
X149732940Y-83888138D01*
X141507401Y-75662599D01*
X141260839Y-75497852D01*
X140970000Y-75440000D01*
X134547531Y-75440000D01*
X134535010Y-75409697D01*
X134142370Y-75016371D01*
X133950273Y-74936605D01*
X134081143Y-74882397D01*
X134150608Y-74640213D01*
X133350000Y-73839605D01*
X132549392Y-74640213D01*
X132618857Y-74882397D01*
X132759318Y-74932509D01*
X132559697Y-75014990D01*
X132166371Y-75407630D01*
X131953243Y-75920900D01*
X131952758Y-76476661D01*
X132164990Y-76990303D01*
X132557630Y-77383629D01*
X132765512Y-77469949D01*
X132559697Y-77554990D01*
X132166371Y-77947630D01*
X131953243Y-78460900D01*
X131952758Y-79016661D01*
X132164990Y-79530303D01*
X132557630Y-79923629D01*
X132765512Y-80009949D01*
X132559697Y-80094990D01*
X132166371Y-80487630D01*
X131953243Y-81000900D01*
X131952758Y-81556661D01*
X132164990Y-82070303D01*
X132557630Y-82463629D01*
X132765512Y-82549949D01*
X132559697Y-82634990D01*
X132166371Y-83027630D01*
X131953243Y-83540900D01*
X131952758Y-84096661D01*
X132164990Y-84610303D01*
X132557630Y-85003629D01*
X132765512Y-85089949D01*
X132559697Y-85174990D01*
X132166371Y-85567630D01*
X131953243Y-86080900D01*
X131952758Y-86636661D01*
X132164990Y-87150303D01*
X132557630Y-87543629D01*
X132765512Y-87629949D01*
X132559697Y-87714990D01*
X132166371Y-88107630D01*
X131953243Y-88620900D01*
X131952758Y-89176661D01*
X132164990Y-89690303D01*
X132557630Y-90083629D01*
X132765512Y-90169949D01*
X132559697Y-90254990D01*
X132166371Y-90647630D01*
X131953243Y-91160900D01*
X131952758Y-91716661D01*
X132164990Y-92230303D01*
X132557630Y-92623629D01*
X132765512Y-92709949D01*
X132559697Y-92794990D01*
X132166371Y-93187630D01*
X132152930Y-93220000D01*
X129030000Y-93220000D01*
X129030000Y-83112463D01*
X129062192Y-83080327D01*
X129204838Y-82736799D01*
X129205162Y-82364833D01*
X129063117Y-82021057D01*
X128800327Y-81757808D01*
X128456799Y-81615162D01*
X128084833Y-81614838D01*
X127741057Y-81756883D01*
X127477808Y-82019673D01*
X127335162Y-82363201D01*
X127334838Y-82735167D01*
X121026513Y-82735167D01*
X121063345Y-82550000D01*
X120949271Y-81976511D01*
X120624415Y-81490330D01*
X120309634Y-81280000D01*
X120624415Y-81069670D01*
X120949271Y-80583489D01*
X121063345Y-80010000D01*
X120949271Y-79436511D01*
X120624415Y-78950330D01*
X120138234Y-78625474D01*
X119564745Y-78511400D01*
X119195255Y-78511400D01*
X118621766Y-78625474D01*
X118135585Y-78950330D01*
X117810729Y-79436511D01*
X117696655Y-80010000D01*
X114427000Y-80010000D01*
X114427000Y-75215750D01*
X117729000Y-75215750D01*
X117729000Y-75919910D01*
X117825673Y-76153299D01*
X118004302Y-76331927D01*
X118237691Y-76428600D01*
X119094250Y-76428600D01*
X119253000Y-76269850D01*
X119253000Y-75057000D01*
X119507000Y-75057000D01*
X119507000Y-76269850D01*
X119665750Y-76428600D01*
X120522309Y-76428600D01*
X120755698Y-76331927D01*
X120934327Y-76153299D01*
X121031000Y-75919910D01*
X121031000Y-75215750D01*
X121539000Y-75215750D01*
X121539000Y-75919910D01*
X121635673Y-76153299D01*
X121814302Y-76331927D01*
X122047691Y-76428600D01*
X122904250Y-76428600D01*
X123063000Y-76269850D01*
X123063000Y-75057000D01*
X123317000Y-75057000D01*
X123317000Y-76269850D01*
X123475750Y-76428600D01*
X124332309Y-76428600D01*
X124565698Y-76331927D01*
X124744327Y-76153299D01*
X124841000Y-75919910D01*
X124841000Y-75215750D01*
X125349000Y-75215750D01*
X125349000Y-75919910D01*
X125445673Y-76153299D01*
X125624302Y-76331927D01*
X125857691Y-76428600D01*
X126714250Y-76428600D01*
X126873000Y-76269850D01*
X126873000Y-75057000D01*
X127127000Y-75057000D01*
X127127000Y-76269850D01*
X127285750Y-76428600D01*
X128142309Y-76428600D01*
X128375698Y-76331927D01*
X128554327Y-76153299D01*
X128651000Y-75919910D01*
X128651000Y-75215750D01*
X128492250Y-75057000D01*
X127127000Y-75057000D01*
X126873000Y-75057000D01*
X125507750Y-75057000D01*
X125349000Y-75215750D01*
X124841000Y-75215750D01*
X124682250Y-75057000D01*
X123317000Y-75057000D01*
X123063000Y-75057000D01*
X121697750Y-75057000D01*
X121539000Y-75215750D01*
X121031000Y-75215750D01*
X120872250Y-75057000D01*
X119507000Y-75057000D01*
X119253000Y-75057000D01*
X117887750Y-75057000D01*
X117729000Y-75215750D01*
X114427000Y-75215750D01*
X114427000Y-67310000D01*
X117696655Y-67310000D01*
X117810729Y-67883489D01*
X118135585Y-68369670D01*
X118450366Y-68580000D01*
X118135585Y-68790330D01*
X117810729Y-69276511D01*
X117696655Y-69850000D01*
X117810729Y-70423489D01*
X118135585Y-70909670D01*
X118450366Y-71120000D01*
X118135585Y-71330330D01*
X117810729Y-71816511D01*
X117696655Y-72390000D01*
X117810729Y-72963489D01*
X118135585Y-73449670D01*
X118157780Y-73464500D01*
X118004302Y-73528073D01*
X117825673Y-73706701D01*
X117729000Y-73940090D01*
X117729000Y-74644250D01*
X117887750Y-74803000D01*
X119253000Y-74803000D01*
X119253000Y-74783000D01*
X119507000Y-74783000D01*
X119507000Y-74803000D01*
X120872250Y-74803000D01*
X121031000Y-74644250D01*
X121031000Y-73940090D01*
X120934327Y-73706701D01*
X120755698Y-73528073D01*
X120602220Y-73464500D01*
X120624415Y-73449670D01*
X120949271Y-72963489D01*
X121063345Y-72390000D01*
X120949271Y-71816511D01*
X120624415Y-71330330D01*
X120309634Y-71120000D01*
X120624415Y-70909670D01*
X120949271Y-70423489D01*
X121063345Y-69850000D01*
X120949271Y-69276511D01*
X120624415Y-68790330D01*
X120309634Y-68580000D01*
X120624415Y-68369670D01*
X120949271Y-67883489D01*
X121063345Y-67310000D01*
X121506655Y-67310000D01*
X121620729Y-67883489D01*
X121945585Y-68369670D01*
X122260366Y-68580000D01*
X121945585Y-68790330D01*
X121620729Y-69276511D01*
X121506655Y-69850000D01*
X121620729Y-70423489D01*
X121945585Y-70909670D01*
X122260366Y-71120000D01*
X121945585Y-71330330D01*
X121620729Y-71816511D01*
X121506655Y-72390000D01*
X121620729Y-72963489D01*
X121945585Y-73449670D01*
X121967780Y-73464500D01*
X121814302Y-73528073D01*
X121635673Y-73706701D01*
X121539000Y-73940090D01*
X121539000Y-74644250D01*
X121697750Y-74803000D01*
X123063000Y-74803000D01*
X123063000Y-74783000D01*
X123317000Y-74783000D01*
X123317000Y-74803000D01*
X124682250Y-74803000D01*
X124841000Y-74644250D01*
X124841000Y-73940090D01*
X124744327Y-73706701D01*
X124565698Y-73528073D01*
X124412220Y-73464500D01*
X124434415Y-73449670D01*
X124759271Y-72963489D01*
X124873345Y-72390000D01*
X124759271Y-71816511D01*
X124434415Y-71330330D01*
X124119634Y-71120000D01*
X124434415Y-70909670D01*
X124759271Y-70423489D01*
X124873345Y-69850000D01*
X124759271Y-69276511D01*
X124434415Y-68790330D01*
X124119634Y-68580000D01*
X124434415Y-68369670D01*
X124759271Y-67883489D01*
X124873345Y-67310000D01*
X125316655Y-67310000D01*
X125430729Y-67883489D01*
X125755585Y-68369670D01*
X126070366Y-68580000D01*
X125755585Y-68790330D01*
X125430729Y-69276511D01*
X125316655Y-69850000D01*
X125430729Y-70423489D01*
X125755585Y-70909670D01*
X126070366Y-71120000D01*
X125755585Y-71330330D01*
X125430729Y-71816511D01*
X125316655Y-72390000D01*
X125430729Y-72963489D01*
X125755585Y-73449670D01*
X125777780Y-73464500D01*
X125624302Y-73528073D01*
X125445673Y-73706701D01*
X125349000Y-73940090D01*
X125349000Y-74644250D01*
X125507750Y-74803000D01*
X126873000Y-74803000D01*
X126873000Y-74783000D01*
X127127000Y-74783000D01*
X127127000Y-74803000D01*
X128492250Y-74803000D01*
X128651000Y-74644250D01*
X128651000Y-73940090D01*
X128554327Y-73706701D01*
X128375698Y-73528073D01*
X128222220Y-73464500D01*
X128240475Y-73452302D01*
X131940856Y-73452302D01*
X131968638Y-74007368D01*
X132127603Y-74391143D01*
X132369787Y-74460608D01*
X133170395Y-73660000D01*
X133529605Y-73660000D01*
X134330213Y-74460608D01*
X134572397Y-74391143D01*
X134759144Y-73867698D01*
X134731362Y-73312632D01*
X134572397Y-72928857D01*
X134330213Y-72859392D01*
X133529605Y-73660000D01*
X133170395Y-73660000D01*
X132369787Y-72859392D01*
X132127603Y-72928857D01*
X131940856Y-73452302D01*
X128240475Y-73452302D01*
X128244415Y-73449670D01*
X128569271Y-72963489D01*
X128683345Y-72390000D01*
X128625703Y-72100213D01*
X132549392Y-72100213D01*
X132618857Y-72342397D01*
X132742344Y-72386453D01*
X132618857Y-72437603D01*
X132549392Y-72679787D01*
X133350000Y-73480395D01*
X134150608Y-72679787D01*
X134081143Y-72437603D01*
X133957656Y-72393547D01*
X134081143Y-72342397D01*
X134150608Y-72100213D01*
X133350000Y-71299605D01*
X132549392Y-72100213D01*
X128625703Y-72100213D01*
X128569271Y-71816511D01*
X128244415Y-71330330D01*
X127929634Y-71120000D01*
X128240475Y-70912302D01*
X131940856Y-70912302D01*
X131968638Y-71467368D01*
X132127603Y-71851143D01*
X132369787Y-71920608D01*
X133170395Y-71120000D01*
X133529605Y-71120000D01*
X134330213Y-71920608D01*
X134572397Y-71851143D01*
X134759144Y-71327698D01*
X134731362Y-70772632D01*
X134572397Y-70388857D01*
X134330213Y-70319392D01*
X133529605Y-71120000D01*
X133170395Y-71120000D01*
X132369787Y-70319392D01*
X132127603Y-70388857D01*
X131940856Y-70912302D01*
X128240475Y-70912302D01*
X128244415Y-70909670D01*
X128569271Y-70423489D01*
X128683345Y-69850000D01*
X128569271Y-69276511D01*
X128244415Y-68790330D01*
X127929634Y-68580000D01*
X128244415Y-68369670D01*
X128569271Y-67883489D01*
X128683345Y-67310000D01*
X128569271Y-66736511D01*
X128288736Y-66316661D01*
X131952758Y-66316661D01*
X132164990Y-66830303D01*
X132557630Y-67223629D01*
X132765512Y-67309949D01*
X132559697Y-67394990D01*
X132166371Y-67787630D01*
X131953243Y-68300900D01*
X131952758Y-68856661D01*
X132164990Y-69370303D01*
X132557630Y-69763629D01*
X132749727Y-69843395D01*
X132618857Y-69897603D01*
X132549392Y-70139787D01*
X133350000Y-70940395D01*
X134150608Y-70139787D01*
X134081143Y-69897603D01*
X133940682Y-69847491D01*
X134140303Y-69765010D01*
X134533629Y-69372370D01*
X134746757Y-68859100D01*
X134747242Y-68303339D01*
X134592681Y-67929270D01*
X139112458Y-67929270D01*
X139587512Y-69078989D01*
X140466384Y-69959396D01*
X141615272Y-70436456D01*
X142859270Y-70437542D01*
X144008989Y-69962488D01*
X144889396Y-69083616D01*
X145184759Y-68372302D01*
X149720856Y-68372302D01*
X149748638Y-68927368D01*
X149907603Y-69311143D01*
X150149787Y-69380608D01*
X150950395Y-68580000D01*
X151309605Y-68580000D01*
X152110213Y-69380608D01*
X152352397Y-69311143D01*
X152539144Y-68787698D01*
X152511362Y-68232632D01*
X152352397Y-67848857D01*
X152110213Y-67779392D01*
X151309605Y-68580000D01*
X150950395Y-68580000D01*
X150149787Y-67779392D01*
X149907603Y-67848857D01*
X149720856Y-68372302D01*
X145184759Y-68372302D01*
X145366456Y-67934728D01*
X145367542Y-66690730D01*
X145212980Y-66316661D01*
X149732758Y-66316661D01*
X149944990Y-66830303D01*
X150337630Y-67223629D01*
X150529727Y-67303395D01*
X150398857Y-67357603D01*
X150329392Y-67599787D01*
X151130000Y-68400395D01*
X151930608Y-67599787D01*
X151927827Y-67590090D01*
X154559000Y-67590090D01*
X154559000Y-68294250D01*
X154717750Y-68453000D01*
X156083000Y-68453000D01*
X156083000Y-67240150D01*
X156337000Y-67240150D01*
X156337000Y-68453000D01*
X157702250Y-68453000D01*
X157861000Y-68294250D01*
X157861000Y-67590090D01*
X157764327Y-67356701D01*
X157585698Y-67178073D01*
X157352309Y-67081400D01*
X156495750Y-67081400D01*
X156337000Y-67240150D01*
X156083000Y-67240150D01*
X155924250Y-67081400D01*
X155067691Y-67081400D01*
X154834302Y-67178073D01*
X154655673Y-67356701D01*
X154559000Y-67590090D01*
X151927827Y-67590090D01*
X151861143Y-67357603D01*
X151720682Y-67307491D01*
X151920303Y-67225010D01*
X152313629Y-66832370D01*
X152526757Y-66319100D01*
X152527242Y-65763339D01*
X152315010Y-65249697D01*
X151922370Y-64856371D01*
X151409100Y-64643243D01*
X150853339Y-64642758D01*
X150339697Y-64854990D01*
X149946371Y-65247630D01*
X149733243Y-65760900D01*
X149732758Y-66316661D01*
X145212980Y-66316661D01*
X144892488Y-65541011D01*
X144013616Y-64660604D01*
X142864728Y-64183544D01*
X141620730Y-64182458D01*
X140471011Y-64657512D01*
X139590604Y-65536384D01*
X139113544Y-66685272D01*
X139112458Y-67929270D01*
X134592681Y-67929270D01*
X134535010Y-67789697D01*
X134142370Y-67396371D01*
X133934488Y-67310051D01*
X134140303Y-67225010D01*
X134533629Y-66832370D01*
X134746757Y-66319100D01*
X134747242Y-65763339D01*
X134535010Y-65249697D01*
X134142370Y-64856371D01*
X133629100Y-64643243D01*
X133073339Y-64642758D01*
X132559697Y-64854990D01*
X132166371Y-65247630D01*
X131953243Y-65760900D01*
X131952758Y-66316661D01*
X128288736Y-66316661D01*
X128244415Y-66250330D01*
X127758234Y-65925474D01*
X127184745Y-65811400D01*
X126815255Y-65811400D01*
X126241766Y-65925474D01*
X125755585Y-66250330D01*
X125430729Y-66736511D01*
X125316655Y-67310000D01*
X124873345Y-67310000D01*
X124759271Y-66736511D01*
X124434415Y-66250330D01*
X123948234Y-65925474D01*
X123374745Y-65811400D01*
X123005255Y-65811400D01*
X122431766Y-65925474D01*
X121945585Y-66250330D01*
X121620729Y-66736511D01*
X121506655Y-67310000D01*
X121063345Y-67310000D01*
X120949271Y-66736511D01*
X120624415Y-66250330D01*
X120138234Y-65925474D01*
X119564745Y-65811400D01*
X119195255Y-65811400D01*
X118621766Y-65925474D01*
X118135585Y-66250330D01*
X117810729Y-66736511D01*
X117696655Y-67310000D01*
X114427000Y-67310000D01*
X114427000Y-66092606D01*
X116892606Y-63627000D01*
X158697394Y-63627000D01*
X161163000Y-66092606D01*
M02*
