M48
;DRILL file {KiCad 4.0.2-stable} date 11.07.2016 20:29:51
;FORMAT={-:-/ absolute / metric / decimal}
FMAT,2
METRIC,TZ
T1C0.400
T2C0.762
T3C1.016
T4C3.000
%
G90
G05
M71
T1
X128.27Y-82.55
X148.59Y-92.71
T2
X133.35Y-66.04
X133.35Y-68.58
X133.35Y-71.12
X133.35Y-73.66
X133.35Y-76.2
X133.35Y-78.74
X133.35Y-81.28
X133.35Y-83.82
X133.35Y-86.36
X133.35Y-88.9
X133.35Y-91.44
X133.35Y-93.98
X151.13Y-66.04
X151.13Y-68.58
X151.13Y-71.12
X151.13Y-73.66
X151.13Y-76.2
X151.13Y-78.74
X151.13Y-81.28
X151.13Y-83.82
X151.13Y-86.36
X151.13Y-88.9
X151.13Y-91.44
X151.13Y-93.98
T3
X119.38Y-67.31
X119.38Y-69.85
X119.38Y-72.39
X119.38Y-74.93
X119.38Y-80.01
X119.38Y-82.55
X119.38Y-85.09
X119.38Y-87.63
X119.38Y-90.17
X119.38Y-92.71
X119.38Y-95.25
X119.38Y-97.79
X123.19Y-67.31
X123.19Y-69.85
X123.19Y-72.39
X123.19Y-74.93
X127.Y-67.31
X127.Y-69.85
X127.Y-72.39
X127.Y-74.93
X138.43Y-100.33
X140.97Y-100.33
X143.51Y-100.33
X146.05Y-100.33
X148.59Y-100.33
X156.21Y-68.58
X156.21Y-71.12
X156.21Y-73.66
X156.21Y-76.2
X156.21Y-78.74
X156.21Y-81.28
X156.21Y-83.82
X156.21Y-86.36
X156.21Y-88.9
X156.21Y-91.44
X156.21Y-95.25
X156.21Y-99.06
T4
X118.11Y-106.68
X142.24Y-67.31
X157.48Y-106.68
T0
M30
