%FSLAX45Y45*%
G04 Gerber Fmt 4.5, Leading zero omitted, Abs format (unit mm)*
G04 Created by KiCad (PCBNEW 4.0.2-stable) date 15.07.2016 23:15:40*
%MOMM*%
G01*
G04 APERTURE LIST*
%ADD10C,0.127000*%
%ADD11C,0.150000*%
%ADD12C,0.200000*%
%ADD13C,0.300000*%
G04 APERTURE END LIST*
D10*
D11*
X16002000Y-11176000D02*
G75*
G03X16256000Y-10922000I0J254000D01*
G01*
X11303000Y-10922000D02*
G75*
G03X11557000Y-11176000I254000J0D01*
G01*
X11557000Y-6223000D02*
G75*
G03X11303000Y-6477000I0J-254000D01*
G01*
X16256000Y-6477000D02*
G75*
G03X16002000Y-6223000I-254000J0D01*
G01*
X16256000Y-10922000D02*
X16256000Y-6477000D01*
X11557000Y-11176000D02*
X16002000Y-11176000D01*
X11303000Y-6477000D02*
X11303000Y-10922000D01*
X11557000Y-6223000D02*
X16002000Y-6223000D01*
D12*
X12807000Y-8235000D02*
X12847000Y-8275000D01*
X12847000Y-8235000D02*
X12807000Y-8275000D01*
X14839000Y-9251000D02*
X14879000Y-9291000D01*
X14879000Y-9251000D02*
X14839000Y-9291000D01*
X11988800Y-6731000D02*
G75*
G03X11988800Y-6731000I-50800J0D01*
G01*
X11988800Y-6985000D02*
G75*
G03X11988800Y-6985000I-50800J0D01*
G01*
X11988800Y-7239000D02*
G75*
G03X11988800Y-7239000I-50800J0D01*
G01*
X11988800Y-7493000D02*
G75*
G03X11988800Y-7493000I-50800J0D01*
G01*
X11988800Y-8001000D02*
G75*
G03X11988800Y-8001000I-50800J0D01*
G01*
X11988800Y-8255000D02*
G75*
G03X11988800Y-8255000I-50800J0D01*
G01*
X11988800Y-8509000D02*
G75*
G03X11988800Y-8509000I-50800J0D01*
G01*
X11988800Y-8763000D02*
G75*
G03X11988800Y-8763000I-50800J0D01*
G01*
X11988800Y-9017000D02*
G75*
G03X11988800Y-9017000I-50800J0D01*
G01*
X11988800Y-9271000D02*
G75*
G03X11988800Y-9271000I-50800J0D01*
G01*
X11988800Y-9525000D02*
G75*
G03X11988800Y-9525000I-50800J0D01*
G01*
X11988800Y-9779000D02*
G75*
G03X11988800Y-9779000I-50800J0D01*
G01*
X12369800Y-6731000D02*
G75*
G03X12369800Y-6731000I-50800J0D01*
G01*
X12369800Y-6985000D02*
G75*
G03X12369800Y-6985000I-50800J0D01*
G01*
X12369800Y-7239000D02*
G75*
G03X12369800Y-7239000I-50800J0D01*
G01*
X12369800Y-7493000D02*
G75*
G03X12369800Y-7493000I-50800J0D01*
G01*
X12750800Y-6731000D02*
G75*
G03X12750800Y-6731000I-50800J0D01*
G01*
X12750800Y-6985000D02*
G75*
G03X12750800Y-6985000I-50800J0D01*
G01*
X12750800Y-7239000D02*
G75*
G03X12750800Y-7239000I-50800J0D01*
G01*
X12750800Y-7493000D02*
G75*
G03X12750800Y-7493000I-50800J0D01*
G01*
X13385800Y-6604000D02*
G75*
G03X13385800Y-6604000I-50800J0D01*
G01*
X13385800Y-6858000D02*
G75*
G03X13385800Y-6858000I-50800J0D01*
G01*
X13385800Y-7112000D02*
G75*
G03X13385800Y-7112000I-50800J0D01*
G01*
X13385800Y-7366000D02*
G75*
G03X13385800Y-7366000I-50800J0D01*
G01*
X13385800Y-7620000D02*
G75*
G03X13385800Y-7620000I-50800J0D01*
G01*
X13385800Y-7874000D02*
G75*
G03X13385800Y-7874000I-50800J0D01*
G01*
X13385800Y-8128000D02*
G75*
G03X13385800Y-8128000I-50800J0D01*
G01*
X13385800Y-8382000D02*
G75*
G03X13385800Y-8382000I-50800J0D01*
G01*
X13385800Y-8636000D02*
G75*
G03X13385800Y-8636000I-50800J0D01*
G01*
X13385800Y-8890000D02*
G75*
G03X13385800Y-8890000I-50800J0D01*
G01*
X13385800Y-9144000D02*
G75*
G03X13385800Y-9144000I-50800J0D01*
G01*
X13385800Y-9398000D02*
G75*
G03X13385800Y-9398000I-50800J0D01*
G01*
X13893800Y-10033000D02*
G75*
G03X13893800Y-10033000I-50800J0D01*
G01*
X14147800Y-10033000D02*
G75*
G03X14147800Y-10033000I-50800J0D01*
G01*
X14401800Y-10033000D02*
G75*
G03X14401800Y-10033000I-50800J0D01*
G01*
X14655800Y-10033000D02*
G75*
G03X14655800Y-10033000I-50800J0D01*
G01*
X14909800Y-10033000D02*
G75*
G03X14909800Y-10033000I-50800J0D01*
G01*
X15163800Y-6604000D02*
G75*
G03X15163800Y-6604000I-50800J0D01*
G01*
X15163800Y-6858000D02*
G75*
G03X15163800Y-6858000I-50800J0D01*
G01*
X15163800Y-7112000D02*
G75*
G03X15163800Y-7112000I-50800J0D01*
G01*
X15163800Y-7366000D02*
G75*
G03X15163800Y-7366000I-50800J0D01*
G01*
X15163800Y-7620000D02*
G75*
G03X15163800Y-7620000I-50800J0D01*
G01*
X15163800Y-7874000D02*
G75*
G03X15163800Y-7874000I-50800J0D01*
G01*
X15163800Y-8128000D02*
G75*
G03X15163800Y-8128000I-50800J0D01*
G01*
X15163800Y-8382000D02*
G75*
G03X15163800Y-8382000I-50800J0D01*
G01*
X15163800Y-8636000D02*
G75*
G03X15163800Y-8636000I-50800J0D01*
G01*
X15163800Y-8890000D02*
G75*
G03X15163800Y-8890000I-50800J0D01*
G01*
X15163800Y-9144000D02*
G75*
G03X15163800Y-9144000I-50800J0D01*
G01*
X15163800Y-9398000D02*
G75*
G03X15163800Y-9398000I-50800J0D01*
G01*
X15671800Y-6858000D02*
G75*
G03X15671800Y-6858000I-50800J0D01*
G01*
X15671800Y-7112000D02*
G75*
G03X15671800Y-7112000I-50800J0D01*
G01*
X15671800Y-7366000D02*
G75*
G03X15671800Y-7366000I-50800J0D01*
G01*
X15671800Y-7620000D02*
G75*
G03X15671800Y-7620000I-50800J0D01*
G01*
X15671800Y-7874000D02*
G75*
G03X15671800Y-7874000I-50800J0D01*
G01*
X15671800Y-8128000D02*
G75*
G03X15671800Y-8128000I-50800J0D01*
G01*
X15671800Y-8382000D02*
G75*
G03X15671800Y-8382000I-50800J0D01*
G01*
X15671800Y-8636000D02*
G75*
G03X15671800Y-8636000I-50800J0D01*
G01*
X15671800Y-8890000D02*
G75*
G03X15671800Y-8890000I-50800J0D01*
G01*
X15671800Y-9144000D02*
G75*
G03X15671800Y-9144000I-50800J0D01*
G01*
X15671800Y-9525000D02*
G75*
G03X15671800Y-9525000I-50800J0D01*
G01*
X15671800Y-9906000D02*
G75*
G03X15671800Y-9906000I-50800J0D01*
G01*
X11811000Y-10518000D02*
X11811000Y-10818000D01*
X11661000Y-10668000D02*
X11961000Y-10668000D01*
X14224000Y-6581000D02*
X14224000Y-6881000D01*
X14074000Y-6731000D02*
X14374000Y-6731000D01*
X15748000Y-10518000D02*
X15748000Y-10818000D01*
X15598000Y-10668000D02*
X15898000Y-10668000D01*
D13*
X11566928Y-11649214D02*
X11566928Y-11349214D01*
X11638357Y-11349214D01*
X11681214Y-11363500D01*
X11709786Y-11392071D01*
X11724071Y-11420643D01*
X11738357Y-11477786D01*
X11738357Y-11520643D01*
X11724071Y-11577786D01*
X11709786Y-11606357D01*
X11681214Y-11634929D01*
X11638357Y-11649214D01*
X11566928Y-11649214D01*
X11866928Y-11649214D02*
X11866928Y-11449214D01*
X11866928Y-11506357D02*
X11881214Y-11477786D01*
X11895500Y-11463500D01*
X11924071Y-11449214D01*
X11952643Y-11449214D01*
X12052643Y-11649214D02*
X12052643Y-11449214D01*
X12052643Y-11349214D02*
X12038357Y-11363500D01*
X12052643Y-11377786D01*
X12066928Y-11363500D01*
X12052643Y-11349214D01*
X12052643Y-11377786D01*
X12238357Y-11649214D02*
X12209786Y-11634929D01*
X12195500Y-11606357D01*
X12195500Y-11349214D01*
X12395500Y-11649214D02*
X12366928Y-11634929D01*
X12352643Y-11606357D01*
X12352643Y-11349214D01*
X12738357Y-11649214D02*
X12738357Y-11349214D01*
X12838357Y-11563500D01*
X12938357Y-11349214D01*
X12938357Y-11649214D01*
X13209786Y-11649214D02*
X13209786Y-11492071D01*
X13195500Y-11463500D01*
X13166928Y-11449214D01*
X13109786Y-11449214D01*
X13081214Y-11463500D01*
X13209786Y-11634929D02*
X13181214Y-11649214D01*
X13109786Y-11649214D01*
X13081214Y-11634929D01*
X13066928Y-11606357D01*
X13066928Y-11577786D01*
X13081214Y-11549214D01*
X13109786Y-11534929D01*
X13181214Y-11534929D01*
X13209786Y-11520643D01*
X13352643Y-11449214D02*
X13352643Y-11749214D01*
X13352643Y-11463500D02*
X13381214Y-11449214D01*
X13438357Y-11449214D01*
X13466928Y-11463500D01*
X13481214Y-11477786D01*
X13495500Y-11506357D01*
X13495500Y-11592071D01*
X13481214Y-11620643D01*
X13466928Y-11634929D01*
X13438357Y-11649214D01*
X13381214Y-11649214D01*
X13352643Y-11634929D01*
X13624071Y-11620643D02*
X13638357Y-11634929D01*
X13624071Y-11649214D01*
X13609786Y-11634929D01*
X13624071Y-11620643D01*
X13624071Y-11649214D01*
X13624071Y-11463500D02*
X13638357Y-11477786D01*
X13624071Y-11492071D01*
X13609786Y-11477786D01*
X13624071Y-11463500D01*
X13624071Y-11492071D01*
X11255500Y-12123500D02*
X11295500Y-12163500D01*
X11295500Y-12123500D02*
X11255500Y-12163500D01*
X11624071Y-11979214D02*
X11652643Y-11979214D01*
X11681214Y-11993500D01*
X11695500Y-12007786D01*
X11709786Y-12036357D01*
X11724071Y-12093500D01*
X11724071Y-12164929D01*
X11709786Y-12222071D01*
X11695500Y-12250643D01*
X11681214Y-12264929D01*
X11652643Y-12279214D01*
X11624071Y-12279214D01*
X11595500Y-12264929D01*
X11581214Y-12250643D01*
X11566928Y-12222071D01*
X11552643Y-12164929D01*
X11552643Y-12093500D01*
X11566928Y-12036357D01*
X11581214Y-12007786D01*
X11595500Y-11993500D01*
X11624071Y-11979214D01*
X11852643Y-12250643D02*
X11866928Y-12264929D01*
X11852643Y-12279214D01*
X11838357Y-12264929D01*
X11852643Y-12250643D01*
X11852643Y-12279214D01*
X12124071Y-12079214D02*
X12124071Y-12279214D01*
X12052643Y-11964929D02*
X11981214Y-12179214D01*
X12166928Y-12179214D01*
X12338357Y-11979214D02*
X12366928Y-11979214D01*
X12395500Y-11993500D01*
X12409786Y-12007786D01*
X12424071Y-12036357D01*
X12438357Y-12093500D01*
X12438357Y-12164929D01*
X12424071Y-12222071D01*
X12409786Y-12250643D01*
X12395500Y-12264929D01*
X12366928Y-12279214D01*
X12338357Y-12279214D01*
X12309786Y-12264929D01*
X12295500Y-12250643D01*
X12281214Y-12222071D01*
X12266928Y-12164929D01*
X12266928Y-12093500D01*
X12281214Y-12036357D01*
X12295500Y-12007786D01*
X12309786Y-11993500D01*
X12338357Y-11979214D01*
X12566928Y-12279214D02*
X12566928Y-12079214D01*
X12566928Y-12107786D02*
X12581214Y-12093500D01*
X12609786Y-12079214D01*
X12652643Y-12079214D01*
X12681214Y-12093500D01*
X12695500Y-12122071D01*
X12695500Y-12279214D01*
X12695500Y-12122071D02*
X12709786Y-12093500D01*
X12738357Y-12079214D01*
X12781214Y-12079214D01*
X12809786Y-12093500D01*
X12824071Y-12122071D01*
X12824071Y-12279214D01*
X12966928Y-12279214D02*
X12966928Y-12079214D01*
X12966928Y-12107786D02*
X12981214Y-12093500D01*
X13009786Y-12079214D01*
X13052643Y-12079214D01*
X13081214Y-12093500D01*
X13095500Y-12122071D01*
X13095500Y-12279214D01*
X13095500Y-12122071D02*
X13109786Y-12093500D01*
X13138357Y-12079214D01*
X13181214Y-12079214D01*
X13209786Y-12093500D01*
X13224071Y-12122071D01*
X13224071Y-12279214D01*
X13809786Y-11964929D02*
X13552643Y-12350643D01*
X14195500Y-11979214D02*
X14224071Y-11979214D01*
X14252643Y-11993500D01*
X14266928Y-12007786D01*
X14281214Y-12036357D01*
X14295500Y-12093500D01*
X14295500Y-12164929D01*
X14281214Y-12222071D01*
X14266928Y-12250643D01*
X14252643Y-12264929D01*
X14224071Y-12279214D01*
X14195500Y-12279214D01*
X14166928Y-12264929D01*
X14152643Y-12250643D01*
X14138357Y-12222071D01*
X14124071Y-12164929D01*
X14124071Y-12093500D01*
X14138357Y-12036357D01*
X14152643Y-12007786D01*
X14166928Y-11993500D01*
X14195500Y-11979214D01*
X14424071Y-12250643D02*
X14438357Y-12264929D01*
X14424071Y-12279214D01*
X14409786Y-12264929D01*
X14424071Y-12250643D01*
X14424071Y-12279214D01*
X14624071Y-11979214D02*
X14652643Y-11979214D01*
X14681214Y-11993500D01*
X14695500Y-12007786D01*
X14709785Y-12036357D01*
X14724071Y-12093500D01*
X14724071Y-12164929D01*
X14709785Y-12222071D01*
X14695500Y-12250643D01*
X14681214Y-12264929D01*
X14652643Y-12279214D01*
X14624071Y-12279214D01*
X14595500Y-12264929D01*
X14581214Y-12250643D01*
X14566928Y-12222071D01*
X14552643Y-12164929D01*
X14552643Y-12093500D01*
X14566928Y-12036357D01*
X14581214Y-12007786D01*
X14595500Y-11993500D01*
X14624071Y-11979214D01*
X15009785Y-12279214D02*
X14838357Y-12279214D01*
X14924071Y-12279214D02*
X14924071Y-11979214D01*
X14895500Y-12022071D01*
X14866928Y-12050643D01*
X14838357Y-12064929D01*
X15266928Y-11979214D02*
X15209785Y-11979214D01*
X15181214Y-11993500D01*
X15166928Y-12007786D01*
X15138357Y-12050643D01*
X15124071Y-12107786D01*
X15124071Y-12222071D01*
X15138357Y-12250643D01*
X15152643Y-12264929D01*
X15181214Y-12279214D01*
X15238357Y-12279214D01*
X15266928Y-12264929D01*
X15281214Y-12250643D01*
X15295500Y-12222071D01*
X15295500Y-12150643D01*
X15281214Y-12122071D01*
X15266928Y-12107786D01*
X15238357Y-12093500D01*
X15181214Y-12093500D01*
X15152643Y-12107786D01*
X15138357Y-12122071D01*
X15124071Y-12150643D01*
X15409786Y-11979214D02*
X15409786Y-12036357D01*
X15524071Y-11979214D02*
X15524071Y-12036357D01*
X15966928Y-12393500D02*
X15952643Y-12379214D01*
X15924071Y-12336357D01*
X15909785Y-12307786D01*
X15895500Y-12264929D01*
X15881214Y-12193500D01*
X15881214Y-12136357D01*
X15895500Y-12064929D01*
X15909785Y-12022071D01*
X15924071Y-11993500D01*
X15952643Y-11950643D01*
X15966928Y-11936357D01*
X16066928Y-12007786D02*
X16081214Y-11993500D01*
X16109785Y-11979214D01*
X16181214Y-11979214D01*
X16209785Y-11993500D01*
X16224071Y-12007786D01*
X16238357Y-12036357D01*
X16238357Y-12064929D01*
X16224071Y-12107786D01*
X16052643Y-12279214D01*
X16238357Y-12279214D01*
X16595500Y-12279214D02*
X16595500Y-11979214D01*
X16724071Y-12279214D02*
X16724071Y-12122071D01*
X16709785Y-12093500D01*
X16681214Y-12079214D01*
X16638357Y-12079214D01*
X16609785Y-12093500D01*
X16595500Y-12107786D01*
X16909786Y-12279214D02*
X16881214Y-12264929D01*
X16866928Y-12250643D01*
X16852643Y-12222071D01*
X16852643Y-12136357D01*
X16866928Y-12107786D01*
X16881214Y-12093500D01*
X16909786Y-12079214D01*
X16952643Y-12079214D01*
X16981214Y-12093500D01*
X16995500Y-12107786D01*
X17009786Y-12136357D01*
X17009786Y-12222071D01*
X16995500Y-12250643D01*
X16981214Y-12264929D01*
X16952643Y-12279214D01*
X16909786Y-12279214D01*
X17181214Y-12279214D02*
X17152643Y-12264929D01*
X17138357Y-12236357D01*
X17138357Y-11979214D01*
X17409786Y-12264929D02*
X17381214Y-12279214D01*
X17324071Y-12279214D01*
X17295500Y-12264929D01*
X17281214Y-12236357D01*
X17281214Y-12122071D01*
X17295500Y-12093500D01*
X17324071Y-12079214D01*
X17381214Y-12079214D01*
X17409786Y-12093500D01*
X17424071Y-12122071D01*
X17424071Y-12150643D01*
X17281214Y-12179214D01*
X17538357Y-12264929D02*
X17566929Y-12279214D01*
X17624071Y-12279214D01*
X17652643Y-12264929D01*
X17666929Y-12236357D01*
X17666929Y-12222071D01*
X17652643Y-12193500D01*
X17624071Y-12179214D01*
X17581214Y-12179214D01*
X17552643Y-12164929D01*
X17538357Y-12136357D01*
X17538357Y-12122071D01*
X17552643Y-12093500D01*
X17581214Y-12079214D01*
X17624071Y-12079214D01*
X17652643Y-12093500D01*
X17766928Y-12393500D02*
X17781214Y-12379214D01*
X17809786Y-12336357D01*
X17824071Y-12307786D01*
X17838357Y-12264929D01*
X17852643Y-12193500D01*
X17852643Y-12136357D01*
X17838357Y-12064929D01*
X17824071Y-12022071D01*
X17809786Y-11993500D01*
X17781214Y-11950643D01*
X17766928Y-11936357D01*
X11295500Y-12539500D02*
G75*
G03X11295500Y-12539500I-50800J0D01*
G01*
X11724071Y-12675214D02*
X11552643Y-12675214D01*
X11638357Y-12675214D02*
X11638357Y-12375214D01*
X11609786Y-12418071D01*
X11581214Y-12446643D01*
X11552643Y-12460929D01*
X11852643Y-12646643D02*
X11866928Y-12660929D01*
X11852643Y-12675214D01*
X11838357Y-12660929D01*
X11852643Y-12646643D01*
X11852643Y-12675214D01*
X12052643Y-12375214D02*
X12081214Y-12375214D01*
X12109786Y-12389500D01*
X12124071Y-12403786D01*
X12138357Y-12432357D01*
X12152643Y-12489500D01*
X12152643Y-12560929D01*
X12138357Y-12618071D01*
X12124071Y-12646643D01*
X12109786Y-12660929D01*
X12081214Y-12675214D01*
X12052643Y-12675214D01*
X12024071Y-12660929D01*
X12009786Y-12646643D01*
X11995500Y-12618071D01*
X11981214Y-12560929D01*
X11981214Y-12489500D01*
X11995500Y-12432357D01*
X12009786Y-12403786D01*
X12024071Y-12389500D01*
X12052643Y-12375214D01*
X12266928Y-12403786D02*
X12281214Y-12389500D01*
X12309786Y-12375214D01*
X12381214Y-12375214D01*
X12409786Y-12389500D01*
X12424071Y-12403786D01*
X12438357Y-12432357D01*
X12438357Y-12460929D01*
X12424071Y-12503786D01*
X12252643Y-12675214D01*
X12438357Y-12675214D01*
X12566928Y-12675214D02*
X12566928Y-12475214D01*
X12566928Y-12503786D02*
X12581214Y-12489500D01*
X12609786Y-12475214D01*
X12652643Y-12475214D01*
X12681214Y-12489500D01*
X12695500Y-12518071D01*
X12695500Y-12675214D01*
X12695500Y-12518071D02*
X12709786Y-12489500D01*
X12738357Y-12475214D01*
X12781214Y-12475214D01*
X12809786Y-12489500D01*
X12824071Y-12518071D01*
X12824071Y-12675214D01*
X12966928Y-12675214D02*
X12966928Y-12475214D01*
X12966928Y-12503786D02*
X12981214Y-12489500D01*
X13009786Y-12475214D01*
X13052643Y-12475214D01*
X13081214Y-12489500D01*
X13095500Y-12518071D01*
X13095500Y-12675214D01*
X13095500Y-12518071D02*
X13109786Y-12489500D01*
X13138357Y-12475214D01*
X13181214Y-12475214D01*
X13209786Y-12489500D01*
X13224071Y-12518071D01*
X13224071Y-12675214D01*
X13809786Y-12360929D02*
X13552643Y-12746643D01*
X14195500Y-12375214D02*
X14224071Y-12375214D01*
X14252643Y-12389500D01*
X14266928Y-12403786D01*
X14281214Y-12432357D01*
X14295500Y-12489500D01*
X14295500Y-12560929D01*
X14281214Y-12618071D01*
X14266928Y-12646643D01*
X14252643Y-12660929D01*
X14224071Y-12675214D01*
X14195500Y-12675214D01*
X14166928Y-12660929D01*
X14152643Y-12646643D01*
X14138357Y-12618071D01*
X14124071Y-12560929D01*
X14124071Y-12489500D01*
X14138357Y-12432357D01*
X14152643Y-12403786D01*
X14166928Y-12389500D01*
X14195500Y-12375214D01*
X14424071Y-12646643D02*
X14438357Y-12660929D01*
X14424071Y-12675214D01*
X14409786Y-12660929D01*
X14424071Y-12646643D01*
X14424071Y-12675214D01*
X14624071Y-12375214D02*
X14652643Y-12375214D01*
X14681214Y-12389500D01*
X14695500Y-12403786D01*
X14709785Y-12432357D01*
X14724071Y-12489500D01*
X14724071Y-12560929D01*
X14709785Y-12618071D01*
X14695500Y-12646643D01*
X14681214Y-12660929D01*
X14652643Y-12675214D01*
X14624071Y-12675214D01*
X14595500Y-12660929D01*
X14581214Y-12646643D01*
X14566928Y-12618071D01*
X14552643Y-12560929D01*
X14552643Y-12489500D01*
X14566928Y-12432357D01*
X14581214Y-12403786D01*
X14595500Y-12389500D01*
X14624071Y-12375214D01*
X14981214Y-12475214D02*
X14981214Y-12675214D01*
X14909785Y-12360929D02*
X14838357Y-12575214D01*
X15024071Y-12575214D01*
X15195500Y-12375214D02*
X15224071Y-12375214D01*
X15252643Y-12389500D01*
X15266928Y-12403786D01*
X15281214Y-12432357D01*
X15295500Y-12489500D01*
X15295500Y-12560929D01*
X15281214Y-12618071D01*
X15266928Y-12646643D01*
X15252643Y-12660929D01*
X15224071Y-12675214D01*
X15195500Y-12675214D01*
X15166928Y-12660929D01*
X15152643Y-12646643D01*
X15138357Y-12618071D01*
X15124071Y-12560929D01*
X15124071Y-12489500D01*
X15138357Y-12432357D01*
X15152643Y-12403786D01*
X15166928Y-12389500D01*
X15195500Y-12375214D01*
X15409786Y-12375214D02*
X15409786Y-12432357D01*
X15524071Y-12375214D02*
X15524071Y-12432357D01*
X15966928Y-12789500D02*
X15952643Y-12775214D01*
X15924071Y-12732357D01*
X15909785Y-12703786D01*
X15895500Y-12660929D01*
X15881214Y-12589500D01*
X15881214Y-12532357D01*
X15895500Y-12460929D01*
X15909785Y-12418071D01*
X15924071Y-12389500D01*
X15952643Y-12346643D01*
X15966928Y-12332357D01*
X16209785Y-12375214D02*
X16152643Y-12375214D01*
X16124071Y-12389500D01*
X16109785Y-12403786D01*
X16081214Y-12446643D01*
X16066928Y-12503786D01*
X16066928Y-12618071D01*
X16081214Y-12646643D01*
X16095500Y-12660929D01*
X16124071Y-12675214D01*
X16181214Y-12675214D01*
X16209785Y-12660929D01*
X16224071Y-12646643D01*
X16238357Y-12618071D01*
X16238357Y-12546643D01*
X16224071Y-12518071D01*
X16209785Y-12503786D01*
X16181214Y-12489500D01*
X16124071Y-12489500D01*
X16095500Y-12503786D01*
X16081214Y-12518071D01*
X16066928Y-12546643D01*
X16524071Y-12675214D02*
X16352643Y-12675214D01*
X16438357Y-12675214D02*
X16438357Y-12375214D01*
X16409785Y-12418071D01*
X16381214Y-12446643D01*
X16352643Y-12460929D01*
X16881214Y-12675214D02*
X16881214Y-12375214D01*
X17009786Y-12675214D02*
X17009786Y-12518071D01*
X16995500Y-12489500D01*
X16966928Y-12475214D01*
X16924071Y-12475214D01*
X16895500Y-12489500D01*
X16881214Y-12503786D01*
X17195500Y-12675214D02*
X17166928Y-12660929D01*
X17152643Y-12646643D01*
X17138357Y-12618071D01*
X17138357Y-12532357D01*
X17152643Y-12503786D01*
X17166928Y-12489500D01*
X17195500Y-12475214D01*
X17238357Y-12475214D01*
X17266928Y-12489500D01*
X17281214Y-12503786D01*
X17295500Y-12532357D01*
X17295500Y-12618071D01*
X17281214Y-12646643D01*
X17266928Y-12660929D01*
X17238357Y-12675214D01*
X17195500Y-12675214D01*
X17466928Y-12675214D02*
X17438357Y-12660929D01*
X17424071Y-12632357D01*
X17424071Y-12375214D01*
X17695500Y-12660929D02*
X17666929Y-12675214D01*
X17609786Y-12675214D01*
X17581214Y-12660929D01*
X17566929Y-12632357D01*
X17566929Y-12518071D01*
X17581214Y-12489500D01*
X17609786Y-12475214D01*
X17666929Y-12475214D01*
X17695500Y-12489500D01*
X17709786Y-12518071D01*
X17709786Y-12546643D01*
X17566929Y-12575214D01*
X17824071Y-12660929D02*
X17852643Y-12675214D01*
X17909786Y-12675214D01*
X17938357Y-12660929D01*
X17952643Y-12632357D01*
X17952643Y-12618071D01*
X17938357Y-12589500D01*
X17909786Y-12575214D01*
X17866929Y-12575214D01*
X17838357Y-12560929D01*
X17824071Y-12532357D01*
X17824071Y-12518071D01*
X17838357Y-12489500D01*
X17866929Y-12475214D01*
X17909786Y-12475214D01*
X17938357Y-12489500D01*
X18052643Y-12789500D02*
X18066929Y-12775214D01*
X18095500Y-12732357D01*
X18109786Y-12703786D01*
X18124071Y-12660929D01*
X18138357Y-12589500D01*
X18138357Y-12532357D01*
X18124071Y-12460929D01*
X18109786Y-12418071D01*
X18095500Y-12389500D01*
X18066929Y-12346643D01*
X18052643Y-12332357D01*
X11145500Y-12785500D02*
X11145500Y-13085500D01*
X10995500Y-12935500D02*
X11295500Y-12935500D01*
X11538357Y-12771214D02*
X11724071Y-12771214D01*
X11624071Y-12885500D01*
X11666928Y-12885500D01*
X11695500Y-12899786D01*
X11709786Y-12914071D01*
X11724071Y-12942643D01*
X11724071Y-13014071D01*
X11709786Y-13042643D01*
X11695500Y-13056929D01*
X11666928Y-13071214D01*
X11581214Y-13071214D01*
X11552643Y-13056929D01*
X11538357Y-13042643D01*
X11852643Y-13042643D02*
X11866928Y-13056929D01*
X11852643Y-13071214D01*
X11838357Y-13056929D01*
X11852643Y-13042643D01*
X11852643Y-13071214D01*
X12052643Y-12771214D02*
X12081214Y-12771214D01*
X12109786Y-12785500D01*
X12124071Y-12799786D01*
X12138357Y-12828357D01*
X12152643Y-12885500D01*
X12152643Y-12956929D01*
X12138357Y-13014071D01*
X12124071Y-13042643D01*
X12109786Y-13056929D01*
X12081214Y-13071214D01*
X12052643Y-13071214D01*
X12024071Y-13056929D01*
X12009786Y-13042643D01*
X11995500Y-13014071D01*
X11981214Y-12956929D01*
X11981214Y-12885500D01*
X11995500Y-12828357D01*
X12009786Y-12799786D01*
X12024071Y-12785500D01*
X12052643Y-12771214D01*
X12338357Y-12771214D02*
X12366928Y-12771214D01*
X12395500Y-12785500D01*
X12409786Y-12799786D01*
X12424071Y-12828357D01*
X12438357Y-12885500D01*
X12438357Y-12956929D01*
X12424071Y-13014071D01*
X12409786Y-13042643D01*
X12395500Y-13056929D01*
X12366928Y-13071214D01*
X12338357Y-13071214D01*
X12309786Y-13056929D01*
X12295500Y-13042643D01*
X12281214Y-13014071D01*
X12266928Y-12956929D01*
X12266928Y-12885500D01*
X12281214Y-12828357D01*
X12295500Y-12799786D01*
X12309786Y-12785500D01*
X12338357Y-12771214D01*
X12566928Y-13071214D02*
X12566928Y-12871214D01*
X12566928Y-12899786D02*
X12581214Y-12885500D01*
X12609786Y-12871214D01*
X12652643Y-12871214D01*
X12681214Y-12885500D01*
X12695500Y-12914071D01*
X12695500Y-13071214D01*
X12695500Y-12914071D02*
X12709786Y-12885500D01*
X12738357Y-12871214D01*
X12781214Y-12871214D01*
X12809786Y-12885500D01*
X12824071Y-12914071D01*
X12824071Y-13071214D01*
X12966928Y-13071214D02*
X12966928Y-12871214D01*
X12966928Y-12899786D02*
X12981214Y-12885500D01*
X13009786Y-12871214D01*
X13052643Y-12871214D01*
X13081214Y-12885500D01*
X13095500Y-12914071D01*
X13095500Y-13071214D01*
X13095500Y-12914071D02*
X13109786Y-12885500D01*
X13138357Y-12871214D01*
X13181214Y-12871214D01*
X13209786Y-12885500D01*
X13224071Y-12914071D01*
X13224071Y-13071214D01*
X13809786Y-12756929D02*
X13552643Y-13142643D01*
X14195500Y-12771214D02*
X14224071Y-12771214D01*
X14252643Y-12785500D01*
X14266928Y-12799786D01*
X14281214Y-12828357D01*
X14295500Y-12885500D01*
X14295500Y-12956929D01*
X14281214Y-13014071D01*
X14266928Y-13042643D01*
X14252643Y-13056929D01*
X14224071Y-13071214D01*
X14195500Y-13071214D01*
X14166928Y-13056929D01*
X14152643Y-13042643D01*
X14138357Y-13014071D01*
X14124071Y-12956929D01*
X14124071Y-12885500D01*
X14138357Y-12828357D01*
X14152643Y-12799786D01*
X14166928Y-12785500D01*
X14195500Y-12771214D01*
X14424071Y-13042643D02*
X14438357Y-13056929D01*
X14424071Y-13071214D01*
X14409786Y-13056929D01*
X14424071Y-13042643D01*
X14424071Y-13071214D01*
X14724071Y-13071214D02*
X14552643Y-13071214D01*
X14638357Y-13071214D02*
X14638357Y-12771214D01*
X14609785Y-12814071D01*
X14581214Y-12842643D01*
X14552643Y-12856929D01*
X15009785Y-13071214D02*
X14838357Y-13071214D01*
X14924071Y-13071214D02*
X14924071Y-12771214D01*
X14895500Y-12814071D01*
X14866928Y-12842643D01*
X14838357Y-12856929D01*
X15181214Y-12899786D02*
X15152643Y-12885500D01*
X15138357Y-12871214D01*
X15124071Y-12842643D01*
X15124071Y-12828357D01*
X15138357Y-12799786D01*
X15152643Y-12785500D01*
X15181214Y-12771214D01*
X15238357Y-12771214D01*
X15266928Y-12785500D01*
X15281214Y-12799786D01*
X15295500Y-12828357D01*
X15295500Y-12842643D01*
X15281214Y-12871214D01*
X15266928Y-12885500D01*
X15238357Y-12899786D01*
X15181214Y-12899786D01*
X15152643Y-12914071D01*
X15138357Y-12928357D01*
X15124071Y-12956929D01*
X15124071Y-13014071D01*
X15138357Y-13042643D01*
X15152643Y-13056929D01*
X15181214Y-13071214D01*
X15238357Y-13071214D01*
X15266928Y-13056929D01*
X15281214Y-13042643D01*
X15295500Y-13014071D01*
X15295500Y-12956929D01*
X15281214Y-12928357D01*
X15266928Y-12914071D01*
X15238357Y-12899786D01*
X15409786Y-12771214D02*
X15409786Y-12828357D01*
X15524071Y-12771214D02*
X15524071Y-12828357D01*
X15966928Y-13185500D02*
X15952643Y-13171214D01*
X15924071Y-13128357D01*
X15909785Y-13099786D01*
X15895500Y-13056929D01*
X15881214Y-12985500D01*
X15881214Y-12928357D01*
X15895500Y-12856929D01*
X15909785Y-12814071D01*
X15924071Y-12785500D01*
X15952643Y-12742643D01*
X15966928Y-12728357D01*
X16052643Y-12771214D02*
X16238357Y-12771214D01*
X16138357Y-12885500D01*
X16181214Y-12885500D01*
X16209785Y-12899786D01*
X16224071Y-12914071D01*
X16238357Y-12942643D01*
X16238357Y-13014071D01*
X16224071Y-13042643D01*
X16209785Y-13056929D01*
X16181214Y-13071214D01*
X16095500Y-13071214D01*
X16066928Y-13056929D01*
X16052643Y-13042643D01*
X16595500Y-13071214D02*
X16595500Y-12771214D01*
X16724071Y-13071214D02*
X16724071Y-12914071D01*
X16709785Y-12885500D01*
X16681214Y-12871214D01*
X16638357Y-12871214D01*
X16609785Y-12885500D01*
X16595500Y-12899786D01*
X16909786Y-13071214D02*
X16881214Y-13056929D01*
X16866928Y-13042643D01*
X16852643Y-13014071D01*
X16852643Y-12928357D01*
X16866928Y-12899786D01*
X16881214Y-12885500D01*
X16909786Y-12871214D01*
X16952643Y-12871214D01*
X16981214Y-12885500D01*
X16995500Y-12899786D01*
X17009786Y-12928357D01*
X17009786Y-13014071D01*
X16995500Y-13042643D01*
X16981214Y-13056929D01*
X16952643Y-13071214D01*
X16909786Y-13071214D01*
X17181214Y-13071214D02*
X17152643Y-13056929D01*
X17138357Y-13028357D01*
X17138357Y-12771214D01*
X17409786Y-13056929D02*
X17381214Y-13071214D01*
X17324071Y-13071214D01*
X17295500Y-13056929D01*
X17281214Y-13028357D01*
X17281214Y-12914071D01*
X17295500Y-12885500D01*
X17324071Y-12871214D01*
X17381214Y-12871214D01*
X17409786Y-12885500D01*
X17424071Y-12914071D01*
X17424071Y-12942643D01*
X17281214Y-12971214D01*
X17538357Y-13056929D02*
X17566929Y-13071214D01*
X17624071Y-13071214D01*
X17652643Y-13056929D01*
X17666929Y-13028357D01*
X17666929Y-13014071D01*
X17652643Y-12985500D01*
X17624071Y-12971214D01*
X17581214Y-12971214D01*
X17552643Y-12956929D01*
X17538357Y-12928357D01*
X17538357Y-12914071D01*
X17552643Y-12885500D01*
X17581214Y-12871214D01*
X17624071Y-12871214D01*
X17652643Y-12885500D01*
X17766928Y-13185500D02*
X17781214Y-13171214D01*
X17809786Y-13128357D01*
X17824071Y-13099786D01*
X17838357Y-13056929D01*
X17852643Y-12985500D01*
X17852643Y-12928357D01*
X17838357Y-12856929D01*
X17824071Y-12814071D01*
X17809786Y-12785500D01*
X17781214Y-12742643D01*
X17766928Y-12728357D01*
M02*
