G04 #@! TF.FileFunction,Legend,Top*
%FSLAX46Y46*%
G04 Gerber Fmt 4.6, Leading zero omitted, Abs format (unit mm)*
G04 Created by KiCad (PCBNEW 4.0.2-stable) date 12.07.2016 21:11:00*
%MOMM*%
G01*
G04 APERTURE LIST*
%ADD10C,0.100000*%
%ADD11C,0.200000*%
%ADD12C,0.300000*%
%ADD13C,0.150000*%
G04 APERTURE END LIST*
D10*
D11*
X142406667Y-89184763D02*
X142406667Y-88708572D01*
X142692381Y-89280001D02*
X141692381Y-88946668D01*
X142692381Y-88613334D01*
X142692381Y-88280001D02*
X142025714Y-88280001D01*
X142216190Y-88280001D02*
X142120952Y-88232382D01*
X142073333Y-88184763D01*
X142025714Y-88089525D01*
X142025714Y-87994286D01*
X142692381Y-87232381D02*
X141692381Y-87232381D01*
X142644762Y-87232381D02*
X142692381Y-87327619D01*
X142692381Y-87518096D01*
X142644762Y-87613334D01*
X142597143Y-87660953D01*
X142501905Y-87708572D01*
X142216190Y-87708572D01*
X142120952Y-87660953D01*
X142073333Y-87613334D01*
X142025714Y-87518096D01*
X142025714Y-87327619D01*
X142073333Y-87232381D01*
X142025714Y-86327619D02*
X142692381Y-86327619D01*
X142025714Y-86756191D02*
X142549524Y-86756191D01*
X142644762Y-86708572D01*
X142692381Y-86613334D01*
X142692381Y-86470476D01*
X142644762Y-86375238D01*
X142597143Y-86327619D01*
X142692381Y-85851429D02*
X142025714Y-85851429D01*
X141692381Y-85851429D02*
X141740000Y-85899048D01*
X141787619Y-85851429D01*
X141740000Y-85803810D01*
X141692381Y-85851429D01*
X141787619Y-85851429D01*
X142025714Y-85375239D02*
X142692381Y-85375239D01*
X142120952Y-85375239D02*
X142073333Y-85327620D01*
X142025714Y-85232382D01*
X142025714Y-85089524D01*
X142073333Y-84994286D01*
X142168571Y-84946667D01*
X142692381Y-84946667D01*
X142692381Y-84327620D02*
X142644762Y-84422858D01*
X142597143Y-84470477D01*
X142501905Y-84518096D01*
X142216190Y-84518096D01*
X142120952Y-84470477D01*
X142073333Y-84422858D01*
X142025714Y-84327620D01*
X142025714Y-84184762D01*
X142073333Y-84089524D01*
X142120952Y-84041905D01*
X142216190Y-83994286D01*
X142501905Y-83994286D01*
X142597143Y-84041905D01*
X142644762Y-84089524D01*
X142692381Y-84184762D01*
X142692381Y-84327620D01*
X142692381Y-82803810D02*
X141692381Y-82803810D01*
X141692381Y-82422857D01*
X141740000Y-82327619D01*
X141787619Y-82280000D01*
X141882857Y-82232381D01*
X142025714Y-82232381D01*
X142120952Y-82280000D01*
X142168571Y-82327619D01*
X142216190Y-82422857D01*
X142216190Y-82803810D01*
X142692381Y-81803810D02*
X142025714Y-81803810D01*
X142216190Y-81803810D02*
X142120952Y-81756191D01*
X142073333Y-81708572D01*
X142025714Y-81613334D01*
X142025714Y-81518095D01*
X142692381Y-81041905D02*
X142644762Y-81137143D01*
X142597143Y-81184762D01*
X142501905Y-81232381D01*
X142216190Y-81232381D01*
X142120952Y-81184762D01*
X142073333Y-81137143D01*
X142025714Y-81041905D01*
X142025714Y-80899047D01*
X142073333Y-80803809D01*
X142120952Y-80756190D01*
X142216190Y-80708571D01*
X142501905Y-80708571D01*
X142597143Y-80756190D01*
X142644762Y-80803809D01*
X142692381Y-80899047D01*
X142692381Y-81041905D01*
X142692381Y-79518095D02*
X141692381Y-79518095D01*
X142406667Y-79184761D01*
X141692381Y-78851428D01*
X142692381Y-78851428D01*
X142692381Y-78375238D02*
X142025714Y-78375238D01*
X141692381Y-78375238D02*
X141740000Y-78422857D01*
X141787619Y-78375238D01*
X141740000Y-78327619D01*
X141692381Y-78375238D01*
X141787619Y-78375238D01*
X142644762Y-77470476D02*
X142692381Y-77565714D01*
X142692381Y-77756191D01*
X142644762Y-77851429D01*
X142597143Y-77899048D01*
X142501905Y-77946667D01*
X142216190Y-77946667D01*
X142120952Y-77899048D01*
X142073333Y-77851429D01*
X142025714Y-77756191D01*
X142025714Y-77565714D01*
X142073333Y-77470476D01*
X142692381Y-77041905D02*
X142025714Y-77041905D01*
X142216190Y-77041905D02*
X142120952Y-76994286D01*
X142073333Y-76946667D01*
X142025714Y-76851429D01*
X142025714Y-76756190D01*
X142692381Y-76280000D02*
X142644762Y-76375238D01*
X142597143Y-76422857D01*
X142501905Y-76470476D01*
X142216190Y-76470476D01*
X142120952Y-76422857D01*
X142073333Y-76375238D01*
X142025714Y-76280000D01*
X142025714Y-76137142D01*
X142073333Y-76041904D01*
X142120952Y-75994285D01*
X142216190Y-75946666D01*
X142501905Y-75946666D01*
X142597143Y-75994285D01*
X142644762Y-76041904D01*
X142692381Y-76137142D01*
X142692381Y-76280000D01*
X141692381Y-74279999D02*
X141692381Y-74756190D01*
X142168571Y-74803809D01*
X142120952Y-74756190D01*
X142073333Y-74660952D01*
X142073333Y-74422856D01*
X142120952Y-74327618D01*
X142168571Y-74279999D01*
X142263810Y-74232380D01*
X142501905Y-74232380D01*
X142597143Y-74279999D01*
X142644762Y-74327618D01*
X142692381Y-74422856D01*
X142692381Y-74660952D01*
X142644762Y-74756190D01*
X142597143Y-74803809D01*
X141692381Y-73946666D02*
X142692381Y-73613333D01*
X141692381Y-73279999D01*
X142962381Y-104473333D02*
X142962381Y-103854285D01*
X143343333Y-104187619D01*
X143343333Y-104044761D01*
X143390952Y-103949523D01*
X143438571Y-103901904D01*
X143533810Y-103854285D01*
X143771905Y-103854285D01*
X143867143Y-103901904D01*
X143914762Y-103949523D01*
X143962381Y-104044761D01*
X143962381Y-104330476D01*
X143914762Y-104425714D01*
X143867143Y-104473333D01*
X140422381Y-103901904D02*
X140422381Y-104378095D01*
X140898571Y-104425714D01*
X140850952Y-104378095D01*
X140803333Y-104282857D01*
X140803333Y-104044761D01*
X140850952Y-103949523D01*
X140898571Y-103901904D01*
X140993810Y-103854285D01*
X141231905Y-103854285D01*
X141327143Y-103901904D01*
X141374762Y-103949523D01*
X141422381Y-104044761D01*
X141422381Y-104282857D01*
X141374762Y-104378095D01*
X141327143Y-104425714D01*
X138596667Y-104854286D02*
X138596667Y-104378095D01*
X138882381Y-104949524D02*
X137882381Y-104616191D01*
X138882381Y-104282857D01*
X137882381Y-104044762D02*
X137882381Y-103378095D01*
X138882381Y-103806667D01*
X148042381Y-105473333D02*
X149042381Y-105140000D01*
X148042381Y-104806666D01*
X148947143Y-103901904D02*
X148994762Y-103949523D01*
X149042381Y-104092380D01*
X149042381Y-104187618D01*
X148994762Y-104330476D01*
X148899524Y-104425714D01*
X148804286Y-104473333D01*
X148613810Y-104520952D01*
X148470952Y-104520952D01*
X148280476Y-104473333D01*
X148185238Y-104425714D01*
X148090000Y-104330476D01*
X148042381Y-104187618D01*
X148042381Y-104092380D01*
X148090000Y-103949523D01*
X148137619Y-103901904D01*
X148947143Y-102901904D02*
X148994762Y-102949523D01*
X149042381Y-103092380D01*
X149042381Y-103187618D01*
X148994762Y-103330476D01*
X148899524Y-103425714D01*
X148804286Y-103473333D01*
X148613810Y-103520952D01*
X148470952Y-103520952D01*
X148280476Y-103473333D01*
X148185238Y-103425714D01*
X148090000Y-103330476D01*
X148042381Y-103187618D01*
X148042381Y-103092380D01*
X148090000Y-102949523D01*
X148137619Y-102901904D01*
X145550000Y-104901904D02*
X145502381Y-104997142D01*
X145502381Y-105139999D01*
X145550000Y-105282857D01*
X145645238Y-105378095D01*
X145740476Y-105425714D01*
X145930952Y-105473333D01*
X146073810Y-105473333D01*
X146264286Y-105425714D01*
X146359524Y-105378095D01*
X146454762Y-105282857D01*
X146502381Y-105139999D01*
X146502381Y-105044761D01*
X146454762Y-104901904D01*
X146407143Y-104854285D01*
X146073810Y-104854285D01*
X146073810Y-105044761D01*
X146502381Y-104425714D02*
X145502381Y-104425714D01*
X146502381Y-103854285D01*
X145502381Y-103854285D01*
X146502381Y-103378095D02*
X145502381Y-103378095D01*
X145502381Y-103140000D01*
X145550000Y-102997142D01*
X145645238Y-102901904D01*
X145740476Y-102854285D01*
X145930952Y-102806666D01*
X146073810Y-102806666D01*
X146264286Y-102854285D01*
X146359524Y-102901904D01*
X146454762Y-102997142D01*
X146502381Y-103140000D01*
X146502381Y-103378095D01*
X159281905Y-91892381D02*
X159281905Y-90892381D01*
X159662858Y-90892381D01*
X159758096Y-90940000D01*
X159805715Y-90987619D01*
X159853334Y-91082857D01*
X159853334Y-91225714D01*
X159805715Y-91320952D01*
X159758096Y-91368571D01*
X159662858Y-91416190D01*
X159281905Y-91416190D01*
X160710477Y-90892381D02*
X160520000Y-90892381D01*
X160424762Y-90940000D01*
X160377143Y-90987619D01*
X160281905Y-91130476D01*
X160234286Y-91320952D01*
X160234286Y-91701905D01*
X160281905Y-91797143D01*
X160329524Y-91844762D01*
X160424762Y-91892381D01*
X160615239Y-91892381D01*
X160710477Y-91844762D01*
X160758096Y-91797143D01*
X160805715Y-91701905D01*
X160805715Y-91463810D01*
X160758096Y-91368571D01*
X160710477Y-91320952D01*
X160615239Y-91273333D01*
X160424762Y-91273333D01*
X160329524Y-91320952D01*
X160281905Y-91368571D01*
X160234286Y-91463810D01*
X159829524Y-89352381D02*
X159258095Y-89352381D01*
X159543809Y-89352381D02*
X159543809Y-88352381D01*
X159448571Y-88495238D01*
X159353333Y-88590476D01*
X159258095Y-88638095D01*
X160686667Y-88685714D02*
X160686667Y-89352381D01*
X160448571Y-88304762D02*
X160210476Y-89019048D01*
X160829524Y-89019048D01*
X159734286Y-85907619D02*
X159781905Y-85860000D01*
X159877143Y-85812381D01*
X160115239Y-85812381D01*
X160210477Y-85860000D01*
X160258096Y-85907619D01*
X160305715Y-86002857D01*
X160305715Y-86098095D01*
X160258096Y-86240952D01*
X159686667Y-86812381D01*
X160305715Y-86812381D01*
X159305714Y-83986667D02*
X159781905Y-83986667D01*
X159210476Y-84272381D02*
X159543809Y-83272381D01*
X159877143Y-84272381D01*
X160400952Y-83272381D02*
X160496191Y-83272381D01*
X160591429Y-83320000D01*
X160639048Y-83367619D01*
X160686667Y-83462857D01*
X160734286Y-83653333D01*
X160734286Y-83891429D01*
X160686667Y-84081905D01*
X160639048Y-84177143D01*
X160591429Y-84224762D01*
X160496191Y-84272381D01*
X160400952Y-84272381D01*
X160305714Y-84224762D01*
X160258095Y-84177143D01*
X160210476Y-84081905D01*
X160162857Y-83891429D01*
X160162857Y-83653333D01*
X160210476Y-83462857D01*
X160258095Y-83367619D01*
X160305714Y-83320000D01*
X160400952Y-83272381D01*
X159305714Y-81446667D02*
X159781905Y-81446667D01*
X159210476Y-81732381D02*
X159543809Y-80732381D01*
X159877143Y-81732381D01*
X160734286Y-81732381D02*
X160162857Y-81732381D01*
X160448571Y-81732381D02*
X160448571Y-80732381D01*
X160353333Y-80875238D01*
X160258095Y-80970476D01*
X160162857Y-81018095D01*
X159305714Y-78906667D02*
X159781905Y-78906667D01*
X159210476Y-79192381D02*
X159543809Y-78192381D01*
X159877143Y-79192381D01*
X160162857Y-78287619D02*
X160210476Y-78240000D01*
X160305714Y-78192381D01*
X160543810Y-78192381D01*
X160639048Y-78240000D01*
X160686667Y-78287619D01*
X160734286Y-78382857D01*
X160734286Y-78478095D01*
X160686667Y-78620952D01*
X160115238Y-79192381D01*
X160734286Y-79192381D01*
X159305714Y-76366667D02*
X159781905Y-76366667D01*
X159210476Y-76652381D02*
X159543809Y-75652381D01*
X159877143Y-76652381D01*
X160115238Y-75652381D02*
X160734286Y-75652381D01*
X160400952Y-76033333D01*
X160543810Y-76033333D01*
X160639048Y-76080952D01*
X160686667Y-76128571D01*
X160734286Y-76223810D01*
X160734286Y-76461905D01*
X160686667Y-76557143D01*
X160639048Y-76604762D01*
X160543810Y-76652381D01*
X160258095Y-76652381D01*
X160162857Y-76604762D01*
X160115238Y-76557143D01*
X158686667Y-73112381D02*
X159020000Y-74112381D01*
X159353334Y-73112381D01*
X160258096Y-74017143D02*
X160210477Y-74064762D01*
X160067620Y-74112381D01*
X159972382Y-74112381D01*
X159829524Y-74064762D01*
X159734286Y-73969524D01*
X159686667Y-73874286D01*
X159639048Y-73683810D01*
X159639048Y-73540952D01*
X159686667Y-73350476D01*
X159734286Y-73255238D01*
X159829524Y-73160000D01*
X159972382Y-73112381D01*
X160067620Y-73112381D01*
X160210477Y-73160000D01*
X160258096Y-73207619D01*
X161258096Y-74017143D02*
X161210477Y-74064762D01*
X161067620Y-74112381D01*
X160972382Y-74112381D01*
X160829524Y-74064762D01*
X160734286Y-73969524D01*
X160686667Y-73874286D01*
X160639048Y-73683810D01*
X160639048Y-73540952D01*
X160686667Y-73350476D01*
X160734286Y-73255238D01*
X160829524Y-73160000D01*
X160972382Y-73112381D01*
X161067620Y-73112381D01*
X161210477Y-73160000D01*
X161258096Y-73207619D01*
X159281905Y-71572381D02*
X159281905Y-70572381D01*
X159662858Y-70572381D01*
X159758096Y-70620000D01*
X159805715Y-70667619D01*
X159853334Y-70762857D01*
X159853334Y-70905714D01*
X159805715Y-71000952D01*
X159758096Y-71048571D01*
X159662858Y-71096190D01*
X159281905Y-71096190D01*
X160758096Y-70572381D02*
X160281905Y-70572381D01*
X160234286Y-71048571D01*
X160281905Y-71000952D01*
X160377143Y-70953333D01*
X160615239Y-70953333D01*
X160710477Y-71000952D01*
X160758096Y-71048571D01*
X160805715Y-71143810D01*
X160805715Y-71381905D01*
X160758096Y-71477143D01*
X160710477Y-71524762D01*
X160615239Y-71572381D01*
X160377143Y-71572381D01*
X160281905Y-71524762D01*
X160234286Y-71477143D01*
X159258096Y-68080000D02*
X159162858Y-68032381D01*
X159020001Y-68032381D01*
X158877143Y-68080000D01*
X158781905Y-68175238D01*
X158734286Y-68270476D01*
X158686667Y-68460952D01*
X158686667Y-68603810D01*
X158734286Y-68794286D01*
X158781905Y-68889524D01*
X158877143Y-68984762D01*
X159020001Y-69032381D01*
X159115239Y-69032381D01*
X159258096Y-68984762D01*
X159305715Y-68937143D01*
X159305715Y-68603810D01*
X159115239Y-68603810D01*
X159734286Y-69032381D02*
X159734286Y-68032381D01*
X160305715Y-69032381D01*
X160305715Y-68032381D01*
X160781905Y-69032381D02*
X160781905Y-68032381D01*
X161020000Y-68032381D01*
X161162858Y-68080000D01*
X161258096Y-68175238D01*
X161305715Y-68270476D01*
X161353334Y-68460952D01*
X161353334Y-68603810D01*
X161305715Y-68794286D01*
X161258096Y-68889524D01*
X161162858Y-68984762D01*
X161020000Y-69032381D01*
X160781905Y-69032381D01*
X115022381Y-80462381D02*
X114689047Y-79986190D01*
X114450952Y-80462381D02*
X114450952Y-79462381D01*
X114831905Y-79462381D01*
X114927143Y-79510000D01*
X114974762Y-79557619D01*
X115022381Y-79652857D01*
X115022381Y-79795714D01*
X114974762Y-79890952D01*
X114927143Y-79938571D01*
X114831905Y-79986190D01*
X114450952Y-79986190D01*
X115403333Y-80414762D02*
X115546190Y-80462381D01*
X115784286Y-80462381D01*
X115879524Y-80414762D01*
X115927143Y-80367143D01*
X115974762Y-80271905D01*
X115974762Y-80176667D01*
X115927143Y-80081429D01*
X115879524Y-80033810D01*
X115784286Y-79986190D01*
X115593809Y-79938571D01*
X115498571Y-79890952D01*
X115450952Y-79843333D01*
X115403333Y-79748095D01*
X115403333Y-79652857D01*
X115450952Y-79557619D01*
X115498571Y-79510000D01*
X115593809Y-79462381D01*
X115831905Y-79462381D01*
X115974762Y-79510000D01*
X116260476Y-79462381D02*
X116831905Y-79462381D01*
X116546190Y-80462381D02*
X116546190Y-79462381D01*
X115403334Y-82907143D02*
X115355715Y-82954762D01*
X115212858Y-83002381D01*
X115117620Y-83002381D01*
X114974762Y-82954762D01*
X114879524Y-82859524D01*
X114831905Y-82764286D01*
X114784286Y-82573810D01*
X114784286Y-82430952D01*
X114831905Y-82240476D01*
X114879524Y-82145238D01*
X114974762Y-82050000D01*
X115117620Y-82002381D01*
X115212858Y-82002381D01*
X115355715Y-82050000D01*
X115403334Y-82097619D01*
X115784286Y-82954762D02*
X115927143Y-83002381D01*
X116165239Y-83002381D01*
X116260477Y-82954762D01*
X116308096Y-82907143D01*
X116355715Y-82811905D01*
X116355715Y-82716667D01*
X116308096Y-82621429D01*
X116260477Y-82573810D01*
X116165239Y-82526190D01*
X115974762Y-82478571D01*
X115879524Y-82430952D01*
X115831905Y-82383333D01*
X115784286Y-82288095D01*
X115784286Y-82192857D01*
X115831905Y-82097619D01*
X115879524Y-82050000D01*
X115974762Y-82002381D01*
X116212858Y-82002381D01*
X116355715Y-82050000D01*
X114474762Y-85542381D02*
X114474762Y-84542381D01*
X114712857Y-84542381D01*
X114855715Y-84590000D01*
X114950953Y-84685238D01*
X114998572Y-84780476D01*
X115046191Y-84970952D01*
X115046191Y-85113810D01*
X114998572Y-85304286D01*
X114950953Y-85399524D01*
X114855715Y-85494762D01*
X114712857Y-85542381D01*
X114474762Y-85542381D01*
X115141429Y-84447143D02*
X115998572Y-85732857D01*
X116712858Y-85447143D02*
X116665239Y-85494762D01*
X116522382Y-85542381D01*
X116427144Y-85542381D01*
X116284286Y-85494762D01*
X116189048Y-85399524D01*
X116141429Y-85304286D01*
X116093810Y-85113810D01*
X116093810Y-84970952D01*
X116141429Y-84780476D01*
X116189048Y-84685238D01*
X116284286Y-84590000D01*
X116427144Y-84542381D01*
X116522382Y-84542381D01*
X116665239Y-84590000D01*
X116712858Y-84637619D01*
X114546191Y-88082381D02*
X114546191Y-87082381D01*
X114784286Y-87082381D01*
X114927144Y-87130000D01*
X115022382Y-87225238D01*
X115070001Y-87320476D01*
X115117620Y-87510952D01*
X115117620Y-87653810D01*
X115070001Y-87844286D01*
X115022382Y-87939524D01*
X114927144Y-88034762D01*
X114784286Y-88082381D01*
X114546191Y-88082381D01*
X115546191Y-88082381D02*
X115546191Y-87082381D01*
X116022381Y-88082381D02*
X116022381Y-87082381D01*
X116593810Y-88082381D01*
X116593810Y-87082381D01*
X114974762Y-90527143D02*
X114927143Y-90574762D01*
X114784286Y-90622381D01*
X114689048Y-90622381D01*
X114546190Y-90574762D01*
X114450952Y-90479524D01*
X114403333Y-90384286D01*
X114355714Y-90193810D01*
X114355714Y-90050952D01*
X114403333Y-89860476D01*
X114450952Y-89765238D01*
X114546190Y-89670000D01*
X114689048Y-89622381D01*
X114784286Y-89622381D01*
X114927143Y-89670000D01*
X114974762Y-89717619D01*
X115879524Y-90622381D02*
X115403333Y-90622381D01*
X115403333Y-89622381D01*
X116212857Y-90622381D02*
X116212857Y-89622381D01*
X116784286Y-90622381D02*
X116355714Y-90050952D01*
X116784286Y-89622381D02*
X116212857Y-90193810D01*
X114236667Y-92162381D02*
X114570000Y-93162381D01*
X114903334Y-92162381D01*
X115808096Y-93067143D02*
X115760477Y-93114762D01*
X115617620Y-93162381D01*
X115522382Y-93162381D01*
X115379524Y-93114762D01*
X115284286Y-93019524D01*
X115236667Y-92924286D01*
X115189048Y-92733810D01*
X115189048Y-92590952D01*
X115236667Y-92400476D01*
X115284286Y-92305238D01*
X115379524Y-92210000D01*
X115522382Y-92162381D01*
X115617620Y-92162381D01*
X115760477Y-92210000D01*
X115808096Y-92257619D01*
X116808096Y-93067143D02*
X116760477Y-93114762D01*
X116617620Y-93162381D01*
X116522382Y-93162381D01*
X116379524Y-93114762D01*
X116284286Y-93019524D01*
X116236667Y-92924286D01*
X116189048Y-92733810D01*
X116189048Y-92590952D01*
X116236667Y-92400476D01*
X116284286Y-92305238D01*
X116379524Y-92210000D01*
X116522382Y-92162381D01*
X116617620Y-92162381D01*
X116760477Y-92210000D01*
X116808096Y-92257619D01*
X115236667Y-95178571D02*
X115379524Y-95226190D01*
X115427143Y-95273810D01*
X115474762Y-95369048D01*
X115474762Y-95511905D01*
X115427143Y-95607143D01*
X115379524Y-95654762D01*
X115284286Y-95702381D01*
X114903333Y-95702381D01*
X114903333Y-94702381D01*
X115236667Y-94702381D01*
X115331905Y-94750000D01*
X115379524Y-94797619D01*
X115427143Y-94892857D01*
X115427143Y-94988095D01*
X115379524Y-95083333D01*
X115331905Y-95130952D01*
X115236667Y-95178571D01*
X114903333Y-95178571D01*
X116379524Y-95702381D02*
X115903333Y-95702381D01*
X115903333Y-94702381D01*
X114808096Y-97290000D02*
X114712858Y-97242381D01*
X114570001Y-97242381D01*
X114427143Y-97290000D01*
X114331905Y-97385238D01*
X114284286Y-97480476D01*
X114236667Y-97670952D01*
X114236667Y-97813810D01*
X114284286Y-98004286D01*
X114331905Y-98099524D01*
X114427143Y-98194762D01*
X114570001Y-98242381D01*
X114665239Y-98242381D01*
X114808096Y-98194762D01*
X114855715Y-98147143D01*
X114855715Y-97813810D01*
X114665239Y-97813810D01*
X115284286Y-98242381D02*
X115284286Y-97242381D01*
X115855715Y-98242381D01*
X115855715Y-97242381D01*
X116331905Y-98242381D02*
X116331905Y-97242381D01*
X116570000Y-97242381D01*
X116712858Y-97290000D01*
X116808096Y-97385238D01*
X116855715Y-97480476D01*
X116903334Y-97670952D01*
X116903334Y-97813810D01*
X116855715Y-98004286D01*
X116808096Y-98099524D01*
X116712858Y-98194762D01*
X116570000Y-98242381D01*
X116331905Y-98242381D01*
X113879524Y-67762381D02*
X113879524Y-66762381D01*
X114117619Y-66762381D01*
X114260477Y-66810000D01*
X114355715Y-66905238D01*
X114403334Y-67000476D01*
X114450953Y-67190952D01*
X114450953Y-67333810D01*
X114403334Y-67524286D01*
X114355715Y-67619524D01*
X114260477Y-67714762D01*
X114117619Y-67762381D01*
X113879524Y-67762381D01*
X115070000Y-66762381D02*
X115260477Y-66762381D01*
X115355715Y-66810000D01*
X115450953Y-66905238D01*
X115498572Y-67095714D01*
X115498572Y-67429048D01*
X115450953Y-67619524D01*
X115355715Y-67714762D01*
X115260477Y-67762381D01*
X115070000Y-67762381D01*
X114974762Y-67714762D01*
X114879524Y-67619524D01*
X114831905Y-67429048D01*
X114831905Y-67095714D01*
X114879524Y-66905238D01*
X114974762Y-66810000D01*
X115070000Y-66762381D01*
X115927143Y-66762381D02*
X115927143Y-67571905D01*
X115974762Y-67667143D01*
X116022381Y-67714762D01*
X116117619Y-67762381D01*
X116308096Y-67762381D01*
X116403334Y-67714762D01*
X116450953Y-67667143D01*
X116498572Y-67571905D01*
X116498572Y-66762381D01*
X116831905Y-66762381D02*
X117403334Y-66762381D01*
X117117619Y-67762381D02*
X117117619Y-66762381D01*
X114546191Y-70302381D02*
X114546191Y-69302381D01*
X114784286Y-69302381D01*
X114927144Y-69350000D01*
X115022382Y-69445238D01*
X115070001Y-69540476D01*
X115117620Y-69730952D01*
X115117620Y-69873810D01*
X115070001Y-70064286D01*
X115022382Y-70159524D01*
X114927144Y-70254762D01*
X114784286Y-70302381D01*
X114546191Y-70302381D01*
X115546191Y-70302381D02*
X115546191Y-69302381D01*
X116022381Y-70302381D02*
X116022381Y-69302381D01*
X116593810Y-70302381D01*
X116593810Y-69302381D01*
X114236667Y-71842381D02*
X114570000Y-72842381D01*
X114903334Y-71842381D01*
X115808096Y-72747143D02*
X115760477Y-72794762D01*
X115617620Y-72842381D01*
X115522382Y-72842381D01*
X115379524Y-72794762D01*
X115284286Y-72699524D01*
X115236667Y-72604286D01*
X115189048Y-72413810D01*
X115189048Y-72270952D01*
X115236667Y-72080476D01*
X115284286Y-71985238D01*
X115379524Y-71890000D01*
X115522382Y-71842381D01*
X115617620Y-71842381D01*
X115760477Y-71890000D01*
X115808096Y-71937619D01*
X116808096Y-72747143D02*
X116760477Y-72794762D01*
X116617620Y-72842381D01*
X116522382Y-72842381D01*
X116379524Y-72794762D01*
X116284286Y-72699524D01*
X116236667Y-72604286D01*
X116189048Y-72413810D01*
X116189048Y-72270952D01*
X116236667Y-72080476D01*
X116284286Y-71985238D01*
X116379524Y-71890000D01*
X116522382Y-71842381D01*
X116617620Y-71842381D01*
X116760477Y-71890000D01*
X116808096Y-71937619D01*
X114808096Y-74430000D02*
X114712858Y-74382381D01*
X114570001Y-74382381D01*
X114427143Y-74430000D01*
X114331905Y-74525238D01*
X114284286Y-74620476D01*
X114236667Y-74810952D01*
X114236667Y-74953810D01*
X114284286Y-75144286D01*
X114331905Y-75239524D01*
X114427143Y-75334762D01*
X114570001Y-75382381D01*
X114665239Y-75382381D01*
X114808096Y-75334762D01*
X114855715Y-75287143D01*
X114855715Y-74953810D01*
X114665239Y-74953810D01*
X115284286Y-75382381D02*
X115284286Y-74382381D01*
X115855715Y-75382381D01*
X115855715Y-74382381D01*
X116331905Y-75382381D02*
X116331905Y-74382381D01*
X116570000Y-74382381D01*
X116712858Y-74430000D01*
X116808096Y-74525238D01*
X116855715Y-74620476D01*
X116903334Y-74810952D01*
X116903334Y-74953810D01*
X116855715Y-75144286D01*
X116808096Y-75239524D01*
X116712858Y-75334762D01*
X116570000Y-75382381D01*
X116331905Y-75382381D01*
D12*
X123231429Y-109470000D02*
X123945715Y-109470000D01*
X123088572Y-109898571D02*
X123588572Y-108398571D01*
X124088572Y-109898571D01*
X125445715Y-109755714D02*
X125374286Y-109827143D01*
X125160000Y-109898571D01*
X125017143Y-109898571D01*
X124802858Y-109827143D01*
X124660000Y-109684286D01*
X124588572Y-109541429D01*
X124517143Y-109255714D01*
X124517143Y-109041429D01*
X124588572Y-108755714D01*
X124660000Y-108612857D01*
X124802858Y-108470000D01*
X125017143Y-108398571D01*
X125160000Y-108398571D01*
X125374286Y-108470000D01*
X125445715Y-108541429D01*
X125874286Y-108398571D02*
X126731429Y-108398571D01*
X126302858Y-109898571D02*
X126302858Y-108398571D01*
X128088572Y-109755714D02*
X128017143Y-109827143D01*
X127802857Y-109898571D01*
X127660000Y-109898571D01*
X127445715Y-109827143D01*
X127302857Y-109684286D01*
X127231429Y-109541429D01*
X127160000Y-109255714D01*
X127160000Y-109041429D01*
X127231429Y-108755714D01*
X127302857Y-108612857D01*
X127445715Y-108470000D01*
X127660000Y-108398571D01*
X127802857Y-108398571D01*
X128017143Y-108470000D01*
X128088572Y-108541429D01*
X128945715Y-109898571D02*
X128802857Y-109827143D01*
X128731429Y-109755714D01*
X128660000Y-109612857D01*
X128660000Y-109184286D01*
X128731429Y-109041429D01*
X128802857Y-108970000D01*
X128945715Y-108898571D01*
X129160000Y-108898571D01*
X129302857Y-108970000D01*
X129374286Y-109041429D01*
X129445715Y-109184286D01*
X129445715Y-109612857D01*
X129374286Y-109755714D01*
X129302857Y-109827143D01*
X129160000Y-109898571D01*
X128945715Y-109898571D01*
X130088572Y-108898571D02*
X130088572Y-109898571D01*
X130088572Y-109041429D02*
X130160000Y-108970000D01*
X130302858Y-108898571D01*
X130517143Y-108898571D01*
X130660000Y-108970000D01*
X130731429Y-109112857D01*
X130731429Y-109898571D01*
X132588572Y-109898571D02*
X132588572Y-108398571D01*
X132588572Y-108970000D02*
X132731429Y-108898571D01*
X133017143Y-108898571D01*
X133160000Y-108970000D01*
X133231429Y-109041429D01*
X133302858Y-109184286D01*
X133302858Y-109612857D01*
X133231429Y-109755714D01*
X133160000Y-109827143D01*
X133017143Y-109898571D01*
X132731429Y-109898571D01*
X132588572Y-109827143D01*
X133802858Y-108898571D02*
X134160001Y-109898571D01*
X134517143Y-108898571D02*
X134160001Y-109898571D01*
X134017143Y-110255714D01*
X133945715Y-110327143D01*
X133802858Y-110398571D01*
X136231429Y-109898571D02*
X136231429Y-108398571D01*
X136731429Y-109470000D01*
X137231429Y-108398571D01*
X137231429Y-109898571D01*
X137945715Y-109898571D02*
X137945715Y-108898571D01*
X137945715Y-108398571D02*
X137874286Y-108470000D01*
X137945715Y-108541429D01*
X138017143Y-108470000D01*
X137945715Y-108398571D01*
X137945715Y-108541429D01*
X139302858Y-109827143D02*
X139160001Y-109898571D01*
X138874287Y-109898571D01*
X138731429Y-109827143D01*
X138660001Y-109755714D01*
X138588572Y-109612857D01*
X138588572Y-109184286D01*
X138660001Y-109041429D01*
X138731429Y-108970000D01*
X138874287Y-108898571D01*
X139160001Y-108898571D01*
X139302858Y-108970000D01*
X139945715Y-109898571D02*
X139945715Y-108398571D01*
X140588572Y-109898571D02*
X140588572Y-109112857D01*
X140517143Y-108970000D01*
X140374286Y-108898571D01*
X140160001Y-108898571D01*
X140017143Y-108970000D01*
X139945715Y-109041429D01*
X141945715Y-109898571D02*
X141945715Y-109112857D01*
X141874286Y-108970000D01*
X141731429Y-108898571D01*
X141445715Y-108898571D01*
X141302858Y-108970000D01*
X141945715Y-109827143D02*
X141802858Y-109898571D01*
X141445715Y-109898571D01*
X141302858Y-109827143D01*
X141231429Y-109684286D01*
X141231429Y-109541429D01*
X141302858Y-109398571D01*
X141445715Y-109327143D01*
X141802858Y-109327143D01*
X141945715Y-109255714D01*
X143231429Y-109827143D02*
X143088572Y-109898571D01*
X142802858Y-109898571D01*
X142660001Y-109827143D01*
X142588572Y-109684286D01*
X142588572Y-109112857D01*
X142660001Y-108970000D01*
X142802858Y-108898571D01*
X143088572Y-108898571D01*
X143231429Y-108970000D01*
X143302858Y-109112857D01*
X143302858Y-109255714D01*
X142588572Y-109398571D01*
X144160001Y-109898571D02*
X144017143Y-109827143D01*
X143945715Y-109684286D01*
X143945715Y-108398571D01*
X145874286Y-109898571D02*
X145874286Y-108398571D01*
X146231429Y-108398571D01*
X146445714Y-108470000D01*
X146588572Y-108612857D01*
X146660000Y-108755714D01*
X146731429Y-109041429D01*
X146731429Y-109255714D01*
X146660000Y-109541429D01*
X146588572Y-109684286D01*
X146445714Y-109827143D01*
X146231429Y-109898571D01*
X145874286Y-109898571D01*
X147374286Y-109898571D02*
X147374286Y-108898571D01*
X147374286Y-109184286D02*
X147445714Y-109041429D01*
X147517143Y-108970000D01*
X147660000Y-108898571D01*
X147802857Y-108898571D01*
X148517143Y-109898571D02*
X148374285Y-109827143D01*
X148302857Y-109755714D01*
X148231428Y-109612857D01*
X148231428Y-109184286D01*
X148302857Y-109041429D01*
X148374285Y-108970000D01*
X148517143Y-108898571D01*
X148731428Y-108898571D01*
X148874285Y-108970000D01*
X148945714Y-109041429D01*
X149017143Y-109184286D01*
X149017143Y-109612857D01*
X148945714Y-109755714D01*
X148874285Y-109827143D01*
X148731428Y-109898571D01*
X148517143Y-109898571D01*
X149588571Y-109827143D02*
X149731428Y-109898571D01*
X150017143Y-109898571D01*
X150160000Y-109827143D01*
X150231428Y-109684286D01*
X150231428Y-109612857D01*
X150160000Y-109470000D01*
X150017143Y-109398571D01*
X149802857Y-109398571D01*
X149660000Y-109327143D01*
X149588571Y-109184286D01*
X149588571Y-109112857D01*
X149660000Y-108970000D01*
X149802857Y-108898571D01*
X150017143Y-108898571D01*
X150160000Y-108970000D01*
X150660000Y-108898571D02*
X151231429Y-108898571D01*
X150874286Y-108398571D02*
X150874286Y-109684286D01*
X150945714Y-109827143D01*
X151088572Y-109898571D01*
X151231429Y-109898571D01*
D11*
X113030000Y-111760000D02*
X113030000Y-62230000D01*
X162560000Y-111760000D02*
X113030000Y-111760000D01*
X162560000Y-62230000D02*
X162560000Y-111760000D01*
X113030000Y-62230000D02*
X162560000Y-62230000D01*
D12*
X104381429Y-81495001D02*
X103381429Y-81495001D01*
X104952857Y-81137858D02*
X103881429Y-80780715D01*
X103881429Y-81709287D01*
X103381429Y-82352143D02*
X103381429Y-82637858D01*
X103452857Y-82780715D01*
X103524286Y-82852143D01*
X103738571Y-82995001D01*
X104024286Y-83066429D01*
X104595714Y-83066429D01*
X104738571Y-82995001D01*
X104810000Y-82923572D01*
X104881429Y-82780715D01*
X104881429Y-82495001D01*
X104810000Y-82352143D01*
X104738571Y-82280715D01*
X104595714Y-82209286D01*
X104238571Y-82209286D01*
X104095714Y-82280715D01*
X104024286Y-82352143D01*
X103952857Y-82495001D01*
X103952857Y-82780715D01*
X104024286Y-82923572D01*
X104095714Y-82995001D01*
X104238571Y-83066429D01*
X103452857Y-83780714D02*
X103381429Y-83780714D01*
X103238571Y-83709286D01*
X103167143Y-83637857D01*
X104881429Y-85137858D02*
X104881429Y-84423572D01*
X104167143Y-84352143D01*
X104238571Y-84423572D01*
X104310000Y-84566429D01*
X104310000Y-84923572D01*
X104238571Y-85066429D01*
X104167143Y-85137858D01*
X104024286Y-85209286D01*
X103667143Y-85209286D01*
X103524286Y-85137858D01*
X103452857Y-85066429D01*
X103381429Y-84923572D01*
X103381429Y-84566429D01*
X103452857Y-84423572D01*
X103524286Y-84352143D01*
X104881429Y-85709286D02*
X104881429Y-86637857D01*
X104310000Y-86137857D01*
X104310000Y-86352143D01*
X104238571Y-86495000D01*
X104167143Y-86566429D01*
X104024286Y-86637857D01*
X103667143Y-86637857D01*
X103524286Y-86566429D01*
X103452857Y-86495000D01*
X103381429Y-86352143D01*
X103381429Y-85923571D01*
X103452857Y-85780714D01*
X103524286Y-85709286D01*
X104881429Y-87566428D02*
X104881429Y-87709285D01*
X104810000Y-87852142D01*
X104738571Y-87923571D01*
X104595714Y-87995000D01*
X104310000Y-88066428D01*
X103952857Y-88066428D01*
X103667143Y-87995000D01*
X103524286Y-87923571D01*
X103452857Y-87852142D01*
X103381429Y-87709285D01*
X103381429Y-87566428D01*
X103452857Y-87423571D01*
X103524286Y-87352142D01*
X103667143Y-87280714D01*
X103952857Y-87209285D01*
X104310000Y-87209285D01*
X104595714Y-87280714D01*
X104738571Y-87352142D01*
X104810000Y-87423571D01*
X104881429Y-87566428D01*
X103381429Y-89852142D02*
X104381429Y-89852142D01*
X104238571Y-89852142D02*
X104310000Y-89923570D01*
X104381429Y-90066428D01*
X104381429Y-90280713D01*
X104310000Y-90423570D01*
X104167143Y-90494999D01*
X103381429Y-90494999D01*
X104167143Y-90494999D02*
X104310000Y-90566428D01*
X104381429Y-90709285D01*
X104381429Y-90923570D01*
X104310000Y-91066428D01*
X104167143Y-91137856D01*
X103381429Y-91137856D01*
X103381429Y-91852142D02*
X104381429Y-91852142D01*
X104238571Y-91852142D02*
X104310000Y-91923570D01*
X104381429Y-92066428D01*
X104381429Y-92280713D01*
X104310000Y-92423570D01*
X104167143Y-92494999D01*
X103381429Y-92494999D01*
X104167143Y-92494999D02*
X104310000Y-92566428D01*
X104381429Y-92709285D01*
X104381429Y-92923570D01*
X104310000Y-93066428D01*
X104167143Y-93137856D01*
X103381429Y-93137856D01*
X105410000Y-62230000D02*
X105410000Y-111760000D01*
X113030000Y-62230000D02*
X102710000Y-62230000D01*
X113030000Y-111760000D02*
X102710000Y-111760000D01*
X105410000Y-111760000D02*
X104823579Y-110633496D01*
X105410000Y-111760000D02*
X105996421Y-110633496D01*
X105410000Y-62230000D02*
X104823579Y-63356504D01*
X105410000Y-62230000D02*
X105996421Y-63356504D01*
X132295001Y-55478571D02*
X132295001Y-56478571D01*
X131937858Y-54907143D02*
X131580715Y-55978571D01*
X132509287Y-55978571D01*
X133152143Y-56478571D02*
X133437858Y-56478571D01*
X133580715Y-56407143D01*
X133652143Y-56335714D01*
X133795001Y-56121429D01*
X133866429Y-55835714D01*
X133866429Y-55264286D01*
X133795001Y-55121429D01*
X133723572Y-55050000D01*
X133580715Y-54978571D01*
X133295001Y-54978571D01*
X133152143Y-55050000D01*
X133080715Y-55121429D01*
X133009286Y-55264286D01*
X133009286Y-55621429D01*
X133080715Y-55764286D01*
X133152143Y-55835714D01*
X133295001Y-55907143D01*
X133580715Y-55907143D01*
X133723572Y-55835714D01*
X133795001Y-55764286D01*
X133866429Y-55621429D01*
X134580714Y-56407143D02*
X134580714Y-56478571D01*
X134509286Y-56621429D01*
X134437857Y-56692857D01*
X135937858Y-54978571D02*
X135223572Y-54978571D01*
X135152143Y-55692857D01*
X135223572Y-55621429D01*
X135366429Y-55550000D01*
X135723572Y-55550000D01*
X135866429Y-55621429D01*
X135937858Y-55692857D01*
X136009286Y-55835714D01*
X136009286Y-56192857D01*
X135937858Y-56335714D01*
X135866429Y-56407143D01*
X135723572Y-56478571D01*
X135366429Y-56478571D01*
X135223572Y-56407143D01*
X135152143Y-56335714D01*
X136509286Y-54978571D02*
X137437857Y-54978571D01*
X136937857Y-55550000D01*
X137152143Y-55550000D01*
X137295000Y-55621429D01*
X137366429Y-55692857D01*
X137437857Y-55835714D01*
X137437857Y-56192857D01*
X137366429Y-56335714D01*
X137295000Y-56407143D01*
X137152143Y-56478571D01*
X136723571Y-56478571D01*
X136580714Y-56407143D01*
X136509286Y-56335714D01*
X138366428Y-54978571D02*
X138509285Y-54978571D01*
X138652142Y-55050000D01*
X138723571Y-55121429D01*
X138795000Y-55264286D01*
X138866428Y-55550000D01*
X138866428Y-55907143D01*
X138795000Y-56192857D01*
X138723571Y-56335714D01*
X138652142Y-56407143D01*
X138509285Y-56478571D01*
X138366428Y-56478571D01*
X138223571Y-56407143D01*
X138152142Y-56335714D01*
X138080714Y-56192857D01*
X138009285Y-55907143D01*
X138009285Y-55550000D01*
X138080714Y-55264286D01*
X138152142Y-55121429D01*
X138223571Y-55050000D01*
X138366428Y-54978571D01*
X140652142Y-56478571D02*
X140652142Y-55478571D01*
X140652142Y-55621429D02*
X140723570Y-55550000D01*
X140866428Y-55478571D01*
X141080713Y-55478571D01*
X141223570Y-55550000D01*
X141294999Y-55692857D01*
X141294999Y-56478571D01*
X141294999Y-55692857D02*
X141366428Y-55550000D01*
X141509285Y-55478571D01*
X141723570Y-55478571D01*
X141866428Y-55550000D01*
X141937856Y-55692857D01*
X141937856Y-56478571D01*
X142652142Y-56478571D02*
X142652142Y-55478571D01*
X142652142Y-55621429D02*
X142723570Y-55550000D01*
X142866428Y-55478571D01*
X143080713Y-55478571D01*
X143223570Y-55550000D01*
X143294999Y-55692857D01*
X143294999Y-56478571D01*
X143294999Y-55692857D02*
X143366428Y-55550000D01*
X143509285Y-55478571D01*
X143723570Y-55478571D01*
X143866428Y-55550000D01*
X143937856Y-55692857D01*
X143937856Y-56478571D01*
X113030000Y-57150000D02*
X162560000Y-57150000D01*
X113030000Y-62230000D02*
X113030000Y-54450000D01*
X162560000Y-62230000D02*
X162560000Y-54450000D01*
X162560000Y-57150000D02*
X161433496Y-57736421D01*
X162560000Y-57150000D02*
X161433496Y-56563579D01*
X113030000Y-57150000D02*
X114156504Y-57736421D01*
X113030000Y-57150000D02*
X114156504Y-56563579D01*
D13*
X118110000Y-96520000D02*
X118110000Y-78740000D01*
X118110000Y-78740000D02*
X120650000Y-78740000D01*
X120650000Y-78740000D02*
X120650000Y-96520000D01*
X117830000Y-99340000D02*
X117830000Y-97790000D01*
X118110000Y-96520000D02*
X120650000Y-96520000D01*
X120930000Y-97790000D02*
X120930000Y-99340000D01*
X120930000Y-99340000D02*
X117830000Y-99340000D01*
X138430000Y-101880000D02*
X136880000Y-101880000D01*
X136880000Y-101880000D02*
X136880000Y-98780000D01*
X136880000Y-98780000D02*
X138430000Y-98780000D01*
X139700000Y-99060000D02*
X149860000Y-99060000D01*
X149860000Y-99060000D02*
X149860000Y-101600000D01*
X149860000Y-101600000D02*
X139700000Y-101600000D01*
X139700000Y-99060000D02*
X139700000Y-101600000D01*
X120650000Y-73660000D02*
X120650000Y-66040000D01*
X118110000Y-73660000D02*
X118110000Y-66040000D01*
X117830000Y-76480000D02*
X117830000Y-74930000D01*
X120650000Y-66040000D02*
X118110000Y-66040000D01*
X118110000Y-73660000D02*
X120650000Y-73660000D01*
X120930000Y-74930000D02*
X120930000Y-76480000D01*
X120930000Y-76480000D02*
X117830000Y-76480000D01*
X124460000Y-73660000D02*
X124460000Y-66040000D01*
X121920000Y-73660000D02*
X121920000Y-66040000D01*
X121640000Y-76480000D02*
X121640000Y-74930000D01*
X124460000Y-66040000D02*
X121920000Y-66040000D01*
X121920000Y-73660000D02*
X124460000Y-73660000D01*
X124740000Y-74930000D02*
X124740000Y-76480000D01*
X124740000Y-76480000D02*
X121640000Y-76480000D01*
X128270000Y-73660000D02*
X128270000Y-66040000D01*
X125730000Y-73660000D02*
X125730000Y-66040000D01*
X125450000Y-76480000D02*
X125450000Y-74930000D01*
X128270000Y-66040000D02*
X125730000Y-66040000D01*
X125730000Y-73660000D02*
X128270000Y-73660000D01*
X128550000Y-74930000D02*
X128550000Y-76480000D01*
X128550000Y-76480000D02*
X125450000Y-76480000D01*
X157760000Y-97510000D02*
X157760000Y-99060000D01*
X154660000Y-99060000D02*
X154660000Y-97510000D01*
X154660000Y-97510000D02*
X157760000Y-97510000D01*
X154940000Y-100330000D02*
X157480000Y-100330000D01*
X157760000Y-93700000D02*
X157760000Y-95250000D01*
X154660000Y-95250000D02*
X154660000Y-93700000D01*
X154660000Y-93700000D02*
X157760000Y-93700000D01*
X154940000Y-96520000D02*
X157480000Y-96520000D01*
X157480000Y-69850000D02*
X157480000Y-92710000D01*
X157480000Y-92710000D02*
X154940000Y-92710000D01*
X154940000Y-92710000D02*
X154940000Y-69850000D01*
X157760000Y-67030000D02*
X157760000Y-68580000D01*
X157480000Y-69850000D02*
X154940000Y-69850000D01*
X154660000Y-68580000D02*
X154660000Y-67030000D01*
X154660000Y-67030000D02*
X157760000Y-67030000D01*
X123960000Y-79335000D02*
X124960000Y-79335000D01*
X124960000Y-80685000D02*
X123960000Y-80685000D01*
X123960000Y-81875000D02*
X124960000Y-81875000D01*
X124960000Y-83225000D02*
X123960000Y-83225000D01*
X123960000Y-84415000D02*
X124960000Y-84415000D01*
X124960000Y-85765000D02*
X123960000Y-85765000D01*
X123960000Y-86955000D02*
X124960000Y-86955000D01*
X124960000Y-88305000D02*
X123960000Y-88305000D01*
X123960000Y-89495000D02*
X124960000Y-89495000D01*
X124960000Y-90845000D02*
X123960000Y-90845000D01*
X123960000Y-94575000D02*
X124960000Y-94575000D01*
X124960000Y-95925000D02*
X123960000Y-95925000D01*
X138430000Y-63500000D02*
X138430000Y-68580000D01*
X138430000Y-68580000D02*
X146050000Y-68580000D01*
X146050000Y-68580000D02*
X146050000Y-63500000D01*
X130810000Y-63500000D02*
X130810000Y-96520000D01*
X130810000Y-96520000D02*
X153670000Y-96520000D01*
X153670000Y-96520000D02*
X153670000Y-63500000D01*
X153670000Y-63500000D02*
X130810000Y-63500000D01*
X118403810Y-100782381D02*
X118403810Y-99782381D01*
X119451429Y-100687143D02*
X119403810Y-100734762D01*
X119260953Y-100782381D01*
X119165715Y-100782381D01*
X119022857Y-100734762D01*
X118927619Y-100639524D01*
X118880000Y-100544286D01*
X118832381Y-100353810D01*
X118832381Y-100210952D01*
X118880000Y-100020476D01*
X118927619Y-99925238D01*
X119022857Y-99830000D01*
X119165715Y-99782381D01*
X119260953Y-99782381D01*
X119403810Y-99830000D01*
X119451429Y-99877619D01*
X120403810Y-100782381D02*
X119832381Y-100782381D01*
X120118095Y-100782381D02*
X120118095Y-99782381D01*
X120022857Y-99925238D01*
X119927619Y-100020476D01*
X119832381Y-100068095D01*
X136342381Y-101068095D02*
X135342381Y-101068095D01*
X135342381Y-100687142D01*
X135390000Y-100591904D01*
X135437619Y-100544285D01*
X135532857Y-100496666D01*
X135675714Y-100496666D01*
X135770952Y-100544285D01*
X135818571Y-100591904D01*
X135866190Y-100687142D01*
X135866190Y-101068095D01*
X136342381Y-99544285D02*
X136342381Y-100115714D01*
X136342381Y-99830000D02*
X135342381Y-99830000D01*
X135485238Y-99925238D01*
X135580476Y-100020476D01*
X135628095Y-100115714D01*
X118641905Y-77922381D02*
X118641905Y-76922381D01*
X119022858Y-76922381D01*
X119118096Y-76970000D01*
X119165715Y-77017619D01*
X119213334Y-77112857D01*
X119213334Y-77255714D01*
X119165715Y-77350952D01*
X119118096Y-77398571D01*
X119022858Y-77446190D01*
X118641905Y-77446190D01*
X119594286Y-77017619D02*
X119641905Y-76970000D01*
X119737143Y-76922381D01*
X119975239Y-76922381D01*
X120070477Y-76970000D01*
X120118096Y-77017619D01*
X120165715Y-77112857D01*
X120165715Y-77208095D01*
X120118096Y-77350952D01*
X119546667Y-77922381D01*
X120165715Y-77922381D01*
X122451905Y-77922381D02*
X122451905Y-76922381D01*
X122832858Y-76922381D01*
X122928096Y-76970000D01*
X122975715Y-77017619D01*
X123023334Y-77112857D01*
X123023334Y-77255714D01*
X122975715Y-77350952D01*
X122928096Y-77398571D01*
X122832858Y-77446190D01*
X122451905Y-77446190D01*
X123356667Y-76922381D02*
X123975715Y-76922381D01*
X123642381Y-77303333D01*
X123785239Y-77303333D01*
X123880477Y-77350952D01*
X123928096Y-77398571D01*
X123975715Y-77493810D01*
X123975715Y-77731905D01*
X123928096Y-77827143D01*
X123880477Y-77874762D01*
X123785239Y-77922381D01*
X123499524Y-77922381D01*
X123404286Y-77874762D01*
X123356667Y-77827143D01*
X126261905Y-77922381D02*
X126261905Y-76922381D01*
X126642858Y-76922381D01*
X126738096Y-76970000D01*
X126785715Y-77017619D01*
X126833334Y-77112857D01*
X126833334Y-77255714D01*
X126785715Y-77350952D01*
X126738096Y-77398571D01*
X126642858Y-77446190D01*
X126261905Y-77446190D01*
X127690477Y-77255714D02*
X127690477Y-77922381D01*
X127452381Y-76874762D02*
X127214286Y-77589048D01*
X127833334Y-77589048D01*
X159281905Y-99512381D02*
X159281905Y-98512381D01*
X159662858Y-98512381D01*
X159758096Y-98560000D01*
X159805715Y-98607619D01*
X159853334Y-98702857D01*
X159853334Y-98845714D01*
X159805715Y-98940952D01*
X159758096Y-98988571D01*
X159662858Y-99036190D01*
X159281905Y-99036190D01*
X160758096Y-98512381D02*
X160281905Y-98512381D01*
X160234286Y-98988571D01*
X160281905Y-98940952D01*
X160377143Y-98893333D01*
X160615239Y-98893333D01*
X160710477Y-98940952D01*
X160758096Y-98988571D01*
X160805715Y-99083810D01*
X160805715Y-99321905D01*
X160758096Y-99417143D01*
X160710477Y-99464762D01*
X160615239Y-99512381D01*
X160377143Y-99512381D01*
X160281905Y-99464762D01*
X160234286Y-99417143D01*
X159281905Y-95702381D02*
X159281905Y-94702381D01*
X159662858Y-94702381D01*
X159758096Y-94750000D01*
X159805715Y-94797619D01*
X159853334Y-94892857D01*
X159853334Y-95035714D01*
X159805715Y-95130952D01*
X159758096Y-95178571D01*
X159662858Y-95226190D01*
X159281905Y-95226190D01*
X160710477Y-94702381D02*
X160520000Y-94702381D01*
X160424762Y-94750000D01*
X160377143Y-94797619D01*
X160281905Y-94940476D01*
X160234286Y-95130952D01*
X160234286Y-95511905D01*
X160281905Y-95607143D01*
X160329524Y-95654762D01*
X160424762Y-95702381D01*
X160615239Y-95702381D01*
X160710477Y-95654762D01*
X160758096Y-95607143D01*
X160805715Y-95511905D01*
X160805715Y-95273810D01*
X160758096Y-95178571D01*
X160710477Y-95130952D01*
X160615239Y-95083333D01*
X160424762Y-95083333D01*
X160329524Y-95130952D01*
X160281905Y-95178571D01*
X160234286Y-95273810D01*
X155471905Y-66492381D02*
X155471905Y-65492381D01*
X155852858Y-65492381D01*
X155948096Y-65540000D01*
X155995715Y-65587619D01*
X156043334Y-65682857D01*
X156043334Y-65825714D01*
X155995715Y-65920952D01*
X155948096Y-65968571D01*
X155852858Y-66016190D01*
X155471905Y-66016190D01*
X156376667Y-65492381D02*
X157043334Y-65492381D01*
X156614762Y-66492381D01*
X121753334Y-79192381D02*
X121420000Y-78716190D01*
X121181905Y-79192381D02*
X121181905Y-78192381D01*
X121562858Y-78192381D01*
X121658096Y-78240000D01*
X121705715Y-78287619D01*
X121753334Y-78382857D01*
X121753334Y-78525714D01*
X121705715Y-78620952D01*
X121658096Y-78668571D01*
X121562858Y-78716190D01*
X121181905Y-78716190D01*
X122705715Y-79192381D02*
X122134286Y-79192381D01*
X122420000Y-79192381D02*
X122420000Y-78192381D01*
X122324762Y-78335238D01*
X122229524Y-78430476D01*
X122134286Y-78478095D01*
X121753334Y-81732381D02*
X121420000Y-81256190D01*
X121181905Y-81732381D02*
X121181905Y-80732381D01*
X121562858Y-80732381D01*
X121658096Y-80780000D01*
X121705715Y-80827619D01*
X121753334Y-80922857D01*
X121753334Y-81065714D01*
X121705715Y-81160952D01*
X121658096Y-81208571D01*
X121562858Y-81256190D01*
X121181905Y-81256190D01*
X122134286Y-80827619D02*
X122181905Y-80780000D01*
X122277143Y-80732381D01*
X122515239Y-80732381D01*
X122610477Y-80780000D01*
X122658096Y-80827619D01*
X122705715Y-80922857D01*
X122705715Y-81018095D01*
X122658096Y-81160952D01*
X122086667Y-81732381D01*
X122705715Y-81732381D01*
X121753334Y-84272381D02*
X121420000Y-83796190D01*
X121181905Y-84272381D02*
X121181905Y-83272381D01*
X121562858Y-83272381D01*
X121658096Y-83320000D01*
X121705715Y-83367619D01*
X121753334Y-83462857D01*
X121753334Y-83605714D01*
X121705715Y-83700952D01*
X121658096Y-83748571D01*
X121562858Y-83796190D01*
X121181905Y-83796190D01*
X122086667Y-83272381D02*
X122705715Y-83272381D01*
X122372381Y-83653333D01*
X122515239Y-83653333D01*
X122610477Y-83700952D01*
X122658096Y-83748571D01*
X122705715Y-83843810D01*
X122705715Y-84081905D01*
X122658096Y-84177143D01*
X122610477Y-84224762D01*
X122515239Y-84272381D01*
X122229524Y-84272381D01*
X122134286Y-84224762D01*
X122086667Y-84177143D01*
X121753334Y-86812381D02*
X121420000Y-86336190D01*
X121181905Y-86812381D02*
X121181905Y-85812381D01*
X121562858Y-85812381D01*
X121658096Y-85860000D01*
X121705715Y-85907619D01*
X121753334Y-86002857D01*
X121753334Y-86145714D01*
X121705715Y-86240952D01*
X121658096Y-86288571D01*
X121562858Y-86336190D01*
X121181905Y-86336190D01*
X122610477Y-86145714D02*
X122610477Y-86812381D01*
X122372381Y-85764762D02*
X122134286Y-86479048D01*
X122753334Y-86479048D01*
X121753334Y-89352381D02*
X121420000Y-88876190D01*
X121181905Y-89352381D02*
X121181905Y-88352381D01*
X121562858Y-88352381D01*
X121658096Y-88400000D01*
X121705715Y-88447619D01*
X121753334Y-88542857D01*
X121753334Y-88685714D01*
X121705715Y-88780952D01*
X121658096Y-88828571D01*
X121562858Y-88876190D01*
X121181905Y-88876190D01*
X122658096Y-88352381D02*
X122181905Y-88352381D01*
X122134286Y-88828571D01*
X122181905Y-88780952D01*
X122277143Y-88733333D01*
X122515239Y-88733333D01*
X122610477Y-88780952D01*
X122658096Y-88828571D01*
X122705715Y-88923810D01*
X122705715Y-89161905D01*
X122658096Y-89257143D01*
X122610477Y-89304762D01*
X122515239Y-89352381D01*
X122277143Y-89352381D01*
X122181905Y-89304762D01*
X122134286Y-89257143D01*
X121753334Y-94432381D02*
X121420000Y-93956190D01*
X121181905Y-94432381D02*
X121181905Y-93432381D01*
X121562858Y-93432381D01*
X121658096Y-93480000D01*
X121705715Y-93527619D01*
X121753334Y-93622857D01*
X121753334Y-93765714D01*
X121705715Y-93860952D01*
X121658096Y-93908571D01*
X121562858Y-93956190D01*
X121181905Y-93956190D01*
X122610477Y-93432381D02*
X122420000Y-93432381D01*
X122324762Y-93480000D01*
X122277143Y-93527619D01*
X122181905Y-93670476D01*
X122134286Y-93860952D01*
X122134286Y-94241905D01*
X122181905Y-94337143D01*
X122229524Y-94384762D01*
X122324762Y-94432381D01*
X122515239Y-94432381D01*
X122610477Y-94384762D01*
X122658096Y-94337143D01*
X122705715Y-94241905D01*
X122705715Y-94003810D01*
X122658096Y-93908571D01*
X122610477Y-93860952D01*
X122515239Y-93813333D01*
X122324762Y-93813333D01*
X122229524Y-93860952D01*
X122181905Y-93908571D01*
X122134286Y-94003810D01*
M02*
